SplineFontDB: 3.2
FontName: KoreeneSans-ExtraLight
FullName: Koreene Sans ExtraLight
FamilyName: Koreene Sans ExtraLight
Weight: Extra-Light
Copyright: (C) Copyright HanYang I&C Co.,Ltd. All rights reserved.
Version: 2.52
ItalicAngle: 0
UnderlinePosition: -244
UnderlineWidth: 90
Ascent: 1638
Descent: 410
InvalidEm: 0
sfntRevision: 0x00020147
LayerCount: 2
Layer: 0 1 "Back" 1
Layer: 1 1 "Fore" 0
XUID: [1021 531 -1996577725 4407703]
StyleMap: 0x0040
FSType: 0
OS2Version: 4
OS2_WeightWidthSlopeOnly: 0
OS2_UseTypoMetrics: 1
CreationTime: 1068260456
ModificationTime: 1706985123
PfmFamily: 81
TTFWeight: 200
TTFWidth: 5
LineGap: 512
VLineGap: 0
Panose: 0 0 0 0 0 0 0 0 0 0
OS2TypoAscent: 1940
OS2TypoAOffset: 0
OS2TypoDescent: -470
OS2TypoDOffset: 0
OS2TypoLinegap: 512
OS2WinAscent: 2196
OS2WinAOffset: 0
OS2WinDescent: 726
OS2WinDOffset: 0
HheadAscent: 1940
HheadAOffset: 0
HheadDescent: -470
HheadDOffset: 0
OS2SubXSize: 410
OS2SubYSize: 410
OS2SubXOff: 0
OS2SubYOff: 574
OS2SupXSize: 410
OS2SupYSize: 410
OS2SupXOff: 0
OS2SupYOff: 1926
OS2StrikeYSize: 204
OS2StrikeYPos: 1024
OS2CapHeight: 1470
OS2XHeight: 1046
OS2Vendor: 'HY  '
OS2CodePages: 2000019f.00000000
OS2UnicodeRanges: e10002ff.4000001b.00000000.00000000
Lookup: 1 0 0 "'aalt' Access All Alternates lookup 0" { "'aalt' Access All Alternates lookup 0 subtable"  } ['aalt' ('DFLT' <'dflt' > 'cyrl' <'dflt' > 'grek' <'dflt' > 'hang' <'dflt' > 'jamo' <'dflt' > 'latn' <'dflt' > ) ]
Lookup: 3 0 0 "'aalt' Access All Alternates lookup 1" { "'aalt' Access All Alternates lookup 1 subtable"  } ['aalt' ('DFLT' <'dflt' > 'cyrl' <'dflt' > 'grek' <'dflt' > 'hang' <'dflt' > 'jamo' <'dflt' > 'latn' <'dflt' > ) ]
Lookup: 1 0 0 "'locl' Localized Forms in Latin lookup 2" { "'locl' Localized Forms in Latin lookup 2 subtable"  } ['locl' ('latn' <'MOL ' > ) ]
Lookup: 1 0 0 "'locl' Localized Forms in Latin lookup 3" { "'locl' Localized Forms in Latin lookup 3 subtable"  } ['locl' ('latn' <'ROM ' > ) ]

StartChar: exclam
Encoding: 33 33 4
Width: 630
GlyphClass: 2
Flags: W
LayerCount: 2
Fore
SplineSet
218 -18 m 1,0,-1
 218 172 l 1,1,-1
 416 172 l 1,2,-1
 416 -18 l 1,3,-1
 218 -18 l 1,0,-1
358 418 m 1,4,-1
 274 418 l 1,5,-1
 258 1472 l 1,6,-1
 374 1472 l 1,7,-1
 358 418 l 1,4,-1
EndSplineSet
EndChar

StartChar: quotedbl
Encoding: 34 34 5
Width: 936
GlyphClass: 2
Flags: W
LayerCount: 2
Fore
SplineSet
526 1106 m 1,0,-1
 700 1664 l 1,1,-1
 850 1664 l 1,2,-1
 606 1106 l 1,3,-1
 526 1106 l 1,0,-1
142 1106 m 1,4,-1
 316 1664 l 1,5,-1
 464 1664 l 1,6,-1
 222 1106 l 1,7,-1
 142 1106 l 1,4,-1
EndSplineSet
EndChar

StartChar: numbersign
Encoding: 35 35 6
Width: 1396
GlyphClass: 2
Flags: W
LayerCount: 2
Fore
SplineSet
98 424 m 1,0,-1
 98 498 l 1,1,-1
 362 498 l 1,2,-1
 426 934 l 1,3,-1
 164 934 l 1,4,-1
 164 1006 l 1,5,-1
 434 1006 l 1,6,-1
 494 1422 l 1,7,-1
 576 1422 l 1,8,-1
 520 1006 l 1,9,-1
 960 1006 l 1,10,-1
 1020 1422 l 1,11,-1
 1102 1422 l 1,12,-1
 1046 1006 l 1,13,-1
 1300 1006 l 1,14,-1
 1300 934 l 1,15,-1
 1036 934 l 1,16,-1
 974 498 l 1,17,-1
 1236 498 l 1,18,-1
 1236 424 l 1,19,-1
 966 424 l 1,20,-1
 910 6 l 1,21,-1
 822 6 l 1,22,-1
 880 424 l 1,23,-1
 440 424 l 1,24,-1
 384 6 l 1,25,-1
 296 6 l 1,26,-1
 354 424 l 1,27,-1
 98 424 l 1,0,-1
448 498 m 1,28,-1
 888 498 l 1,29,-1
 952 934 l 1,30,-1
 510 934 l 1,31,-1
 448 498 l 1,28,-1
EndSplineSet
EndChar

StartChar: dollar
Encoding: 36 36 7
Width: 1188
GlyphClass: 2
Flags: W
LayerCount: 2
Fore
SplineSet
154 242 m 1,0,-1
 226 284 l 1,1,2
 286 194 286 194 394 137 c 128,-1,3
 502 80 502 80 598 80 c 0,4,5
 744 80 744 80 840 148 c 128,-1,6
 936 216 936 216 936 360 c 0,7,8
 936 422 936 422 913 474 c 128,-1,9
 890 526 890 526 859 560 c 128,-1,10
 828 594 828 594 769 627 c 128,-1,11
 710 660 710 660 664 680 c 128,-1,12
 618 700 618 700 542 730 c 0,13,14
 518 740 518 740 506 744 c 0,15,16
 352 804 352 804 268 890 c 128,-1,17
 184 976 184 976 184 1122 c 0,18,19
 184 1258 184 1258 284 1358 c 128,-1,20
 384 1458 384 1458 550 1466 c 1,21,-1
 550 1634 l 1,22,-1
 640 1634 l 1,23,-1
 640 1464 l 1,24,25
 746 1462 746 1462 843 1399 c 128,-1,26
 940 1336 940 1336 978 1260 c 1,27,-1
 906 1224 l 1,28,29
 784 1388 784 1388 596 1388 c 0,30,31
 448 1388 448 1388 364 1313 c 128,-1,32
 280 1238 280 1238 280 1120 c 0,33,34
 280 992 280 992 363 923 c 128,-1,35
 446 854 446 854 616 786 c 0,36,37
 692 756 692 756 736 737 c 128,-1,38
 780 718 780 718 845 679 c 128,-1,39
 910 640 910 640 944 600 c 128,-1,40
 978 560 978 560 1005 500 c 128,-1,41
 1032 440 1032 440 1032 370 c 0,42,43
 1032 194 1032 194 920 101 c 128,-1,44
 808 8 808 8 640 0 c 1,45,-1
 640 -160 l 1,46,-1
 550 -160 l 1,47,-1
 550 2 l 1,48,49
 448 6 448 6 335 69 c 128,-1,50
 222 132 222 132 154 242 c 1,0,-1
EndSplineSet
EndChar

StartChar: percent
Encoding: 37 37 8
Width: 1952
GlyphClass: 2
Flags: W
LayerCount: 2
Fore
SplineSet
1076 310 m 0,0,1
 1076 462 1076 462 1179 559 c 128,-1,2
 1282 656 1282 656 1436 656 c 256,3,4
 1590 656 1590 656 1693 558 c 128,-1,5
 1796 460 1796 460 1796 310 c 0,6,7
 1796 154 1796 154 1692 59 c 128,-1,8
 1588 -36 1588 -36 1436 -36 c 0,9,10
 1286 -36 1286 -36 1181 59 c 128,-1,11
 1076 154 1076 154 1076 310 c 0,0,1
1166 310 m 0,12,13
 1166 190 1166 190 1248 114 c 128,-1,14
 1330 38 1330 38 1436 38 c 0,15,16
 1544 38 1544 38 1625 114 c 128,-1,17
 1706 190 1706 190 1706 310 c 256,18,19
 1706 430 1706 430 1628 505 c 128,-1,20
 1550 580 1550 580 1436 580 c 0,21,22
 1324 580 1324 580 1245 504 c 128,-1,23
 1166 428 1166 428 1166 310 c 0,12,13
160 1162 m 256,24,25
 160 1316 160 1316 262 1412 c 128,-1,26
 364 1508 364 1508 518 1508 c 0,27,28
 670 1508 670 1508 773 1412 c 128,-1,29
 876 1316 876 1316 876 1162 c 0,30,31
 876 1010 876 1010 772 914 c 128,-1,32
 668 818 668 818 518 818 c 0,33,34
 366 818 366 818 263 913 c 128,-1,35
 160 1008 160 1008 160 1162 c 256,24,25
246 1162 m 0,36,37
 246 1042 246 1042 328 967 c 128,-1,38
 410 892 410 892 518 892 c 256,39,40
 626 892 626 892 706 967 c 128,-1,41
 786 1042 786 1042 786 1162 c 256,42,43
 786 1282 786 1282 708 1358 c 128,-1,44
 630 1434 630 1434 518 1434 c 0,45,46
 408 1434 408 1434 327 1357 c 128,-1,47
 246 1280 246 1280 246 1162 c 0,36,37
394 -6 m 1,48,-1
 1462 1476 l 1,49,-1
 1562 1476 l 1,50,-1
 492 -6 l 1,51,-1
 394 -6 l 1,48,-1
EndSplineSet
EndChar

StartChar: ampersand
Encoding: 38 38 9
Width: 1290
GlyphClass: 2
Flags: W
LayerCount: 2
Fore
SplineSet
242 364 m 0,0,1
 242 224 242 224 339 132 c 128,-1,2
 436 40 436 40 584 40 c 0,3,4
 706 40 706 40 807 105 c 128,-1,5
 908 170 908 170 972 266 c 1,6,-1
 560 800 l 1,7,8
 242 616 242 616 242 364 c 0,0,1
148 362 m 0,9,10
 148 666 148 666 508 870 c 1,11,12
 450 950 450 950 426 989 c 128,-1,13
 402 1028 402 1028 375 1090 c 128,-1,14
 348 1152 348 1152 348 1202 c 0,15,16
 348 1324 348 1324 439 1407 c 128,-1,17
 530 1490 530 1490 690 1490 c 0,18,19
 820 1490 820 1490 914 1422 c 128,-1,20
 1008 1354 1008 1354 1056 1256 c 1,21,-1
 978 1224 l 1,22,23
 942 1296 942 1296 864 1353 c 128,-1,24
 786 1410 786 1410 694 1410 c 0,25,26
 576 1410 576 1410 510 1348 c 128,-1,27
 444 1286 444 1286 444 1200 c 0,28,29
 444 1160 444 1160 472 1100 c 128,-1,30
 500 1040 500 1040 571 938 c 128,-1,31
 642 836 642 836 689 773 c 128,-1,32
 736 710 736 710 856 556 c 128,-1,33
 976 402 976 402 1022 344 c 1,34,35
 1094 482 1094 482 1120 670 c 1,36,-1
 1210 656 l 1,37,38
 1180 442 1180 442 1082 266 c 1,39,-1
 1288 0 l 1,40,-1
 1178 0 l 1,41,-1
 1028 192 l 1,42,43
 862 -38 862 -38 582 -38 c 0,44,45
 382 -38 382 -38 265 77 c 128,-1,46
 148 192 148 192 148 362 c 0,9,10
EndSplineSet
EndChar

StartChar: quotesingle
Encoding: 39 39 10
Width: 552
GlyphClass: 2
Flags: W
LayerCount: 2
Fore
SplineSet
146 1106 m 1,0,-1
 320 1664 l 1,1,-1
 468 1664 l 1,2,-1
 228 1106 l 1,3,-1
 146 1106 l 1,0,-1
EndSplineSet
EndChar

StartChar: parenleft
Encoding: 40 40 11
Width: 926
GlyphClass: 2
Flags: W
LayerCount: 2
Fore
SplineSet
344 702 m 0,0,1
 344 1292 344 1292 692 1716 c 1,2,-1
 758 1680 l 1,3,4
 692 1586 692 1586 648 1511 c 128,-1,5
 604 1436 604 1436 550 1312 c 128,-1,6
 496 1188 496 1188 468 1034 c 128,-1,7
 440 880 440 880 440 702 c 0,8,9
 440 550 440 550 465 410 c 128,-1,10
 490 270 490 270 517 181 c 128,-1,11
 544 92 544 92 600 -15 c 128,-1,12
 656 -122 656 -122 679 -158 c 128,-1,13
 702 -194 702 -194 758 -276 c 1,14,-1
 692 -312 l 1,15,16
 344 124 344 124 344 702 c 0,0,1
EndSplineSet
Substitution2: "'sups' Superscript lookup 5 subtable" uni207D
Substitution2: "'aalt' Access All Alternates lookup 0 subtable" uni207D
EndChar

StartChar: parenright
Encoding: 41 41 12
Width: 926
GlyphClass: 2
Flags: W
LayerCount: 2
Fore
SplineSet
170 -276 m 1,0,1
 236 -180 236 -180 278 -107 c 128,-1,2
 320 -34 320 -34 375 90 c 128,-1,3
 430 214 430 214 459 369 c 128,-1,4
 488 524 488 524 488 702 c 0,5,6
 488 878 488 878 460 1030 c 128,-1,7
 432 1182 432 1182 380 1305 c 128,-1,8
 328 1428 328 1428 282 1506 c 128,-1,9
 236 1584 236 1584 170 1680 c 1,10,-1
 236 1716 l 1,11,12
 582 1296 582 1296 582 702 c 0,13,14
 582 120 582 120 236 -312 c 1,15,-1
 170 -276 l 1,0,1
EndSplineSet
Substitution2: "'sups' Superscript lookup 5 subtable" uni207E
Substitution2: "'aalt' Access All Alternates lookup 0 subtable" uni207E
EndChar

StartChar: asterisk
Encoding: 42 42 13
Width: 1124
GlyphClass: 2
Flags: W
LayerCount: 2
Fore
SplineSet
72 854 m 1,0,-1
 106 938 l 1,1,-1
 526 778 l 1,2,-1
 512 1194 l 1,3,-1
 612 1194 l 1,4,-1
 600 778 l 1,5,-1
 1020 938 l 1,6,-1
 1054 854 l 1,7,-1
 624 706 l 1,8,-1
 946 342 l 1,9,-1
 870 286 l 1,10,-1
 562 658 l 1,11,-1
 252 286 l 1,12,-1
 180 342 l 1,13,-1
 502 704 l 1,14,-1
 72 854 l 1,0,-1
EndSplineSet
EndChar

StartChar: plus
Encoding: 43 43 14
Width: 1124
GlyphClass: 2
Flags: W
LayerCount: 2
Fore
SplineSet
70 686 m 1,0,-1
 70 766 l 1,1,-1
 518 766 l 1,2,-1
 518 1200 l 1,3,-1
 608 1200 l 1,4,-1
 608 766 l 1,5,-1
 1054 766 l 1,6,-1
 1054 686 l 1,7,-1
 608 686 l 1,8,-1
 608 232 l 1,9,-1
 518 232 l 1,10,-1
 518 686 l 1,11,-1
 70 686 l 1,0,-1
EndSplineSet
Substitution2: "'sups' Superscript lookup 5 subtable" uni207A
Substitution2: "'aalt' Access All Alternates lookup 0 subtable" uni207A
EndChar

StartChar: comma
Encoding: 44 44 15
Width: 550
GlyphClass: 2
Flags: W
LayerCount: 2
Fore
SplineSet
54 -366 m 1,0,-1
 228 192 l 1,1,-1
 376 192 l 1,2,-1
 134 -366 l 1,3,-1
 54 -366 l 1,0,-1
EndSplineSet
EndChar

StartChar: hyphen
Encoding: 45 45 16
Width: 786
GlyphClass: 2
Flags: W
LayerCount: 2
Fore
SplineSet
76 686 m 1,0,-1
 76 766 l 1,1,-1
 712 766 l 1,2,-1
 712 686 l 1,3,-1
 76 686 l 1,0,-1
EndSplineSet
EndChar

StartChar: period
Encoding: 46 46 17
Width: 550
GlyphClass: 2
Flags: W
LayerCount: 2
Fore
SplineSet
176 0 m 1,0,-1
 176 192 l 1,1,-1
 374 192 l 1,2,-1
 374 0 l 1,3,-1
 176 0 l 1,0,-1
EndSplineSet
EndChar

StartChar: slash
Encoding: 47 47 18
Width: 644
GlyphClass: 2
Flags: W
LayerCount: 2
Fore
SplineSet
-18 -128 m 1,0,-1
 566 1580 l 1,1,-1
 662 1580 l 1,2,-1
 80 -128 l 1,3,-1
 -18 -128 l 1,0,-1
EndSplineSet
EndChar

StartChar: zero
Encoding: 48 48 19
Width: 1100
GlyphClass: 2
Flags: W
LayerCount: 2
Fore
SplineSet
206 736 m 0,0,1
 206 412 206 412 294 227 c 128,-1,2
 382 42 382 42 554 42 c 0,3,4
 680 42 680 42 759 143 c 128,-1,5
 838 244 838 244 869 392 c 128,-1,6
 900 540 900 540 900 736 c 0,7,8
 900 1062 900 1062 812 1246 c 128,-1,9
 724 1430 724 1430 552 1430 c 0,10,11
 386 1430 386 1430 296 1249 c 128,-1,12
 206 1068 206 1068 206 736 c 0,0,1
108 736 m 0,13,14
 108 1128 108 1128 231 1318 c 128,-1,15
 354 1508 354 1508 552 1508 c 0,16,17
 758 1508 758 1508 878 1313 c 128,-1,18
 998 1118 998 1118 998 736 c 0,19,20
 998 518 998 518 956 351 c 128,-1,21
 914 184 914 184 811 74 c 128,-1,22
 708 -36 708 -36 554 -36 c 0,23,24
 350 -36 350 -36 229 163 c 128,-1,25
 108 362 108 362 108 736 c 0,13,14
EndSplineSet
EndChar

StartChar: one
Encoding: 49 49 20
Width: 1100
GlyphClass: 2
Flags: W
LayerCount: 2
Fore
SplineSet
224 1190 m 1,0,-1
 224 1262 l 1,1,-1
 296 1262 l 2,2,3
 450 1262 450 1262 502 1300 c 128,-1,4
 554 1338 554 1338 554 1434 c 2,5,-1
 554 1470 l 1,6,-1
 636 1470 l 1,7,-1
 636 0 l 1,8,-1
 538 0 l 1,9,-1
 538 1190 l 1,10,-1
 224 1190 l 1,0,-1
EndSplineSet
Substitution2: "'subs' Subscript lookup 6 subtable" uni2081
Substitution2: "'sups' Superscript lookup 5 subtable" onesuperior
Substitution2: "'sinf' Scientific Inferiors lookup 4 subtable" uni2081
AlternateSubs2: "'aalt' Access All Alternates lookup 1 subtable" uni2081 onesuperior
EndChar

StartChar: two
Encoding: 50 50 21
Width: 1100
GlyphClass: 2
Flags: W
LayerCount: 2
Fore
SplineSet
108 1160 m 1,0,1
 154 1322 154 1322 264 1415 c 128,-1,2
 374 1508 374 1508 550 1508 c 0,3,4
 732 1508 732 1508 847 1403 c 128,-1,5
 962 1298 962 1298 962 1112 c 0,6,7
 962 886 962 886 734 672 c 0,8,9
 466 422 466 422 363 306 c 128,-1,10
 260 190 260 190 226 80 c 1,11,-1
 962 80 l 1,12,-1
 962 0 l 1,13,-1
 112 0 l 1,14,15
 112 54 112 54 128 108 c 128,-1,16
 144 162 144 162 190 227 c 128,-1,17
 236 292 236 292 270 337 c 128,-1,18
 304 382 304 382 386 463 c 128,-1,19
 468 544 468 544 508 583 c 128,-1,20
 548 622 548 622 652 718 c 0,21,22
 866 922 866 922 866 1112 c 0,23,24
 866 1264 866 1264 779 1347 c 128,-1,25
 692 1430 692 1430 544 1430 c 0,26,27
 408 1430 408 1430 318 1350 c 128,-1,28
 228 1270 228 1270 194 1138 c 1,29,-1
 108 1160 l 1,0,1
EndSplineSet
Substitution2: "'subs' Subscript lookup 6 subtable" uni2082
Substitution2: "'sups' Superscript lookup 5 subtable" twosuperior
Substitution2: "'sinf' Scientific Inferiors lookup 4 subtable" uni2082
AlternateSubs2: "'aalt' Access All Alternates lookup 1 subtable" uni2082 twosuperior
EndChar

StartChar: three
Encoding: 51 51 22
Width: 1100
GlyphClass: 2
Flags: W
LayerCount: 2
Fore
SplineSet
82 222 m 1,0,-1
 164 258 l 1,1,2
 288 42 288 42 522 42 c 0,3,4
 684 42 684 42 791 133 c 128,-1,5
 898 224 898 224 898 402 c 0,6,7
 898 568 898 568 782 654 c 128,-1,8
 666 740 666 740 504 740 c 0,9,10
 418 740 418 740 398 738 c 1,11,-1
 398 820 l 1,12,13
 416 818 416 818 496 818 c 0,14,15
 646 818 646 818 741 903 c 128,-1,16
 836 988 836 988 836 1134 c 0,17,18
 836 1264 836 1264 749 1347 c 128,-1,19
 662 1430 662 1430 522 1430 c 0,20,21
 312 1430 312 1430 204 1198 c 1,22,-1
 122 1228 l 1,23,24
 240 1508 240 1508 526 1508 c 0,25,26
 714 1508 714 1508 824 1402 c 128,-1,27
 934 1296 934 1296 934 1140 c 0,28,29
 934 1004 934 1004 858 911 c 128,-1,30
 782 818 782 818 676 784 c 1,31,32
 802 758 802 758 899 661 c 128,-1,33
 996 564 996 564 996 402 c 0,34,35
 996 190 996 190 864 77 c 128,-1,36
 732 -36 732 -36 522 -36 c 0,37,38
 224 -36 224 -36 82 222 c 1,0,-1
EndSplineSet
Substitution2: "'subs' Subscript lookup 6 subtable" uni2083
Substitution2: "'sups' Superscript lookup 5 subtable" threesuperior
Substitution2: "'sinf' Scientific Inferiors lookup 4 subtable" uni2083
AlternateSubs2: "'aalt' Access All Alternates lookup 1 subtable" uni2083 threesuperior
EndChar

StartChar: four
Encoding: 52 52 23
Width: 1100
GlyphClass: 2
Flags: W
LayerCount: 2
Fore
SplineSet
46 434 m 1,0,-1
 740 1470 l 1,1,-1
 836 1470 l 1,2,-1
 836 436 l 1,3,-1
 1072 436 l 1,4,-1
 1072 358 l 1,5,-1
 836 358 l 1,6,-1
 836 0 l 1,7,-1
 742 0 l 1,8,-1
 742 358 l 1,9,-1
 46 358 l 1,10,-1
 46 434 l 1,0,-1
140 436 m 1,11,-1
 742 436 l 1,12,-1
 742 1096 l 2,13,14
 742 1180 742 1180 746 1336 c 1,15,-1
 740 1336 l 1,16,-1
 614 1132 l 1,17,-1
 140 436 l 1,11,-1
EndSplineSet
Substitution2: "'subs' Subscript lookup 6 subtable" uni2084
Substitution2: "'sups' Superscript lookup 5 subtable" uni2074
Substitution2: "'sinf' Scientific Inferiors lookup 4 subtable" uni2084
AlternateSubs2: "'aalt' Access All Alternates lookup 1 subtable" uni2084 uni2074
EndChar

StartChar: five
Encoding: 53 53 24
Width: 1100
GlyphClass: 2
Flags: W
LayerCount: 2
Fore
SplineSet
100 212 m 1,0,-1
 180 244 l 1,1,2
 230 150 230 150 318 96 c 128,-1,3
 406 42 406 42 508 42 c 0,4,5
 678 42 678 42 774 153 c 128,-1,6
 870 264 870 264 870 428 c 0,7,8
 870 604 870 604 771 710 c 128,-1,9
 672 816 672 816 510 816 c 0,10,11
 430 816 430 816 344 782 c 128,-1,12
 258 748 258 748 196 688 c 1,13,-1
 140 708 l 1,14,-1
 216 1470 l 1,15,-1
 876 1470 l 1,16,-1
 876 1390 l 1,17,-1
 304 1390 l 1,18,-1
 240 806 l 1,19,20
 372 896 372 896 542 896 c 0,21,22
 730 896 730 896 849 769 c 128,-1,23
 968 642 968 642 968 430 c 0,24,25
 968 234 968 234 847 99 c 128,-1,26
 726 -36 726 -36 508 -36 c 0,27,28
 232 -36 232 -36 100 212 c 1,0,-1
EndSplineSet
EndChar

StartChar: six
Encoding: 54 54 25
Width: 1100
GlyphClass: 2
Flags: W
LayerCount: 2
Fore
SplineSet
218 450 m 0,0,1
 218 280 218 280 315 161 c 128,-1,2
 412 42 412 42 570 42 c 0,3,4
 722 42 722 42 820 159 c 128,-1,5
 918 276 918 276 918 450 c 0,6,7
 918 630 918 630 819 746 c 128,-1,8
 720 862 720 862 564 862 c 0,9,10
 416 862 416 862 317 743 c 128,-1,11
 218 624 218 624 218 450 c 0,0,1
108 646 m 0,12,13
 108 770 108 770 123 887 c 128,-1,14
 138 1004 138 1004 176 1119 c 128,-1,15
 214 1234 214 1234 271 1318 c 128,-1,16
 328 1402 328 1402 419 1455 c 128,-1,17
 510 1508 510 1508 624 1508 c 0,18,19
 864 1508 864 1508 992 1272 c 1,20,-1
 914 1240 l 1,21,22
 802 1430 802 1430 624 1430 c 0,23,24
 520 1430 520 1430 442 1374 c 128,-1,25
 364 1318 364 1318 319 1223 c 128,-1,26
 274 1128 274 1128 250 1037 c 128,-1,27
 226 946 226 946 216 842 c 0,28,29
 208 778 208 778 204 652 c 1,30,31
 240 780 240 780 339 860 c 128,-1,32
 438 940 438 940 580 940 c 0,33,34
 770 940 770 940 892 799 c 128,-1,35
 1014 658 1014 658 1014 450 c 0,36,37
 1014 244 1014 244 894 104 c 128,-1,38
 774 -36 774 -36 578 -36 c 0,39,40
 378 -36 378 -36 262 90 c 0,41,42
 108 248 108 248 108 646 c 0,12,13
EndSplineSet
EndChar

StartChar: seven
Encoding: 55 55 26
Width: 1100
GlyphClass: 2
Flags: W
LayerCount: 2
Fore
SplineSet
74 1388 m 1,0,-1
 74 1470 l 1,1,-1
 964 1470 l 1,2,-1
 964 1402 l 1,3,4
 742 1032 742 1032 609 719 c 128,-1,5
 476 406 476 406 386 0 c 1,6,-1
 288 0 l 1,7,8
 382 426 382 426 515 728 c 128,-1,9
 648 1030 648 1030 854 1388 c 1,10,-1
 74 1388 l 1,0,-1
EndSplineSet
EndChar

StartChar: eight
Encoding: 56 56 27
Width: 1100
GlyphClass: 2
Flags: W
LayerCount: 2
Fore
SplineSet
234 1130 m 0,0,1
 234 996 234 996 329 912 c 128,-1,2
 424 828 424 828 550 828 c 0,3,4
 682 828 682 828 775 915 c 128,-1,5
 868 1002 868 1002 868 1130 c 0,6,7
 868 1264 868 1264 777 1347 c 128,-1,8
 686 1430 686 1430 550 1430 c 0,9,10
 410 1430 410 1430 322 1343 c 128,-1,11
 234 1256 234 1256 234 1130 c 0,0,1
88 386 m 0,12,13
 88 548 88 548 177 651 c 128,-1,14
 266 754 266 754 398 792 c 1,15,16
 286 830 286 830 212 915 c 128,-1,17
 138 1000 138 1000 138 1136 c 0,18,19
 138 1288 138 1288 254 1398 c 128,-1,20
 370 1508 370 1508 550 1508 c 0,21,22
 728 1508 728 1508 847 1401 c 128,-1,23
 966 1294 966 1294 966 1136 c 0,24,25
 966 1002 966 1002 890 914 c 128,-1,26
 814 826 814 826 710 792 c 1,27,28
 842 754 842 754 931 650 c 128,-1,29
 1020 546 1020 546 1020 382 c 0,30,31
 1020 200 1020 200 886 82 c 128,-1,32
 752 -36 752 -36 550 -36 c 0,33,34
 354 -36 354 -36 221 81 c 128,-1,35
 88 198 88 198 88 386 c 0,12,13
186 390 m 0,36,37
 186 238 186 238 290 140 c 128,-1,38
 394 42 394 42 550 42 c 0,39,40
 710 42 710 42 816 141 c 128,-1,41
 922 240 922 240 922 390 c 0,42,43
 922 546 922 546 813 648 c 128,-1,44
 704 750 704 750 550 750 c 0,45,46
 402 750 402 750 294 648 c 128,-1,47
 186 546 186 546 186 390 c 0,36,37
EndSplineSet
EndChar

StartChar: nine
Encoding: 57 57 28
Width: 1100
GlyphClass: 2
Flags: W
LayerCount: 2
Fore
SplineSet
182 1022 m 0,0,1
 182 838 182 838 286 726 c 128,-1,2
 390 614 390 614 530 614 c 0,3,4
 672 614 672 614 775 731 c 128,-1,5
 878 848 878 848 878 1022 c 0,6,7
 878 1194 878 1194 780 1312 c 128,-1,8
 682 1430 682 1430 530 1430 c 0,9,10
 382 1430 382 1430 282 1314 c 128,-1,11
 182 1198 182 1198 182 1022 c 0,0,1
106 210 m 1,12,-1
 188 242 l 1,13,14
 232 152 232 152 313 97 c 128,-1,15
 394 42 394 42 494 42 c 0,16,17
 880 42 880 42 890 792 c 1,18,19
 852 690 852 690 754 612 c 128,-1,20
 656 534 656 534 520 534 c 0,21,22
 338 534 338 534 212 667 c 128,-1,23
 86 800 86 800 86 1022 c 0,24,25
 86 1234 86 1234 210 1371 c 128,-1,26
 334 1508 334 1508 530 1508 c 0,27,28
 700 1508 700 1508 810 1404 c 128,-1,29
 920 1300 920 1300 956 1142 c 0,30,31
 980 1034 980 1034 980 812 c 0,32,33
 980 -36 980 -36 492 -36 c 0,34,35
 354 -36 354 -36 256 36 c 128,-1,36
 158 108 158 108 106 210 c 1,12,-1
EndSplineSet
EndChar

StartChar: colon
Encoding: 58 58 29
Width: 550
GlyphClass: 2
Flags: W
LayerCount: 2
Fore
SplineSet
176 0 m 1,0,-1
 176 192 l 1,1,-1
 374 192 l 1,2,-1
 374 0 l 1,3,-1
 176 0 l 1,0,-1
176 774 m 1,4,-1
 176 966 l 1,5,-1
 374 966 l 1,6,-1
 374 774 l 1,7,-1
 176 774 l 1,4,-1
EndSplineSet
EndChar

StartChar: semicolon
Encoding: 59 59 30
Width: 550
GlyphClass: 2
Flags: W
LayerCount: 2
Fore
SplineSet
54 -366 m 1,0,-1
 228 194 l 1,1,-1
 376 194 l 1,2,-1
 134 -366 l 1,3,-1
 54 -366 l 1,0,-1
172 776 m 1,4,-1
 172 968 l 1,5,-1
 370 968 l 1,6,-1
 370 776 l 1,7,-1
 172 776 l 1,4,-1
EndSplineSet
EndChar

StartChar: less
Encoding: 60 60 31
Width: 1124
GlyphClass: 2
Flags: W
LayerCount: 2
Fore
SplineSet
140 666 m 1,0,-1
 140 752 l 1,1,-1
 960 1384 l 1,2,-1
 1012 1316 l 1,3,-1
 230 708 l 1,4,-1
 1012 102 l 1,5,-1
 960 32 l 1,6,-1
 140 666 l 1,0,-1
EndSplineSet
EndChar

StartChar: equal
Encoding: 61 61 32
Width: 1124
GlyphClass: 2
Flags: W
LayerCount: 2
Fore
SplineSet
108 498 m 1,0,-1
 108 580 l 1,1,-1
 1016 580 l 1,2,-1
 1016 498 l 1,3,-1
 108 498 l 1,0,-1
108 874 m 1,4,-1
 108 954 l 1,5,-1
 1016 954 l 1,6,-1
 1016 874 l 1,7,-1
 108 874 l 1,4,-1
EndSplineSet
Substitution2: "'sups' Superscript lookup 5 subtable" uni207C
Substitution2: "'aalt' Access All Alternates lookup 0 subtable" uni207C
EndChar

StartChar: greater
Encoding: 62 62 33
Width: 1124
GlyphClass: 2
Flags: W
LayerCount: 2
Fore
SplineSet
164 32 m 1,0,-1
 114 102 l 1,1,-1
 892 708 l 1,2,-1
 114 1316 l 1,3,-1
 164 1384 l 1,4,-1
 984 752 l 1,5,-1
 984 666 l 1,6,-1
 164 32 l 1,0,-1
EndSplineSet
EndChar

StartChar: question
Encoding: 63 63 34
Width: 1092
GlyphClass: 2
Flags: W
LayerCount: 2
Fore
SplineSet
140 1214 m 1,0,1
 198 1354 198 1354 305 1431 c 128,-1,2
 412 1508 412 1508 544 1508 c 0,3,4
 724 1508 724 1508 828 1402 c 128,-1,5
 932 1296 932 1296 932 1122 c 0,6,7
 932 1030 932 1030 894 957 c 128,-1,8
 856 884 856 884 803 832 c 128,-1,9
 750 780 750 780 696 729 c 128,-1,10
 642 678 642 678 604 605 c 128,-1,11
 566 532 566 532 566 440 c 2,12,-1
 566 400 l 1,13,-1
 470 400 l 1,14,-1
 470 444 l 2,15,16
 470 544 470 544 508 624 c 128,-1,17
 546 704 546 704 599 757 c 128,-1,18
 652 810 652 810 706 859 c 128,-1,19
 760 908 760 908 798 974 c 128,-1,20
 836 1040 836 1040 836 1122 c 0,21,22
 836 1258 836 1258 759 1343 c 128,-1,23
 682 1428 682 1428 546 1428 c 0,24,25
 334 1428 334 1428 222 1182 c 1,26,-1
 140 1214 l 1,0,1
420 -18 m 1,27,-1
 420 172 l 1,28,-1
 618 172 l 1,29,-1
 618 -18 l 1,30,-1
 420 -18 l 1,27,-1
EndSplineSet
EndChar

StartChar: at
Encoding: 64 64 35
Width: 1924
GlyphClass: 2
Flags: W
LayerCount: 2
Fore
SplineSet
134 688 m 0,0,1
 134 1054 134 1054 376 1285 c 128,-1,2
 618 1516 618 1516 1010 1516 c 0,3,4
 1362 1516 1362 1516 1578 1315 c 128,-1,5
 1794 1114 1794 1114 1794 792 c 0,6,7
 1794 514 1794 514 1689 378 c 128,-1,8
 1584 242 1584 242 1438 242 c 0,9,10
 1346 242 1346 242 1281 311 c 128,-1,11
 1216 380 1216 380 1214 486 c 1,12,-1
 1212 486 l 1,13,14
 1176 394 1176 394 1088 319 c 128,-1,15
 1000 244 1000 244 878 244 c 0,16,17
 742 244 742 244 651 347 c 128,-1,18
 560 450 560 450 560 622 c 0,19,20
 560 848 560 848 683 982 c 128,-1,21
 806 1116 806 1116 970 1116 c 0,22,23
 1042 1116 1042 1116 1100 1086 c 128,-1,24
 1158 1056 1158 1056 1181 1028 c 128,-1,25
 1204 1000 1204 1000 1222 968 c 1,26,-1
 1232 1096 l 1,27,-1
 1306 1096 l 1,28,-1
 1282 556 l 2,29,30
 1282 548 1282 548 1282 538 c 0,31,32
 1282 438 1282 438 1326 378 c 128,-1,33
 1370 318 1370 318 1446 318 c 0,34,35
 1566 318 1566 318 1637 441 c 128,-1,36
 1708 564 1708 564 1708 782 c 0,37,38
 1708 1074 1708 1074 1521 1259 c 128,-1,39
 1334 1444 1334 1444 1008 1444 c 0,40,41
 666 1444 666 1444 442 1235 c 128,-1,42
 218 1026 218 1026 218 688 c 0,43,44
 218 344 218 344 431 141 c 128,-1,45
 644 -62 644 -62 980 -62 c 0,46,47
 1218 -62 1218 -62 1426 0 c 1,48,-1
 1444 -68 l 1,49,50
 1228 -134 1228 -134 980 -134 c 0,51,52
 600 -134 600 -134 367 93 c 128,-1,53
 134 320 134 320 134 688 c 0,0,1
648 622 m 0,54,55
 648 490 648 490 715 406 c 128,-1,56
 782 322 782 322 884 322 c 0,57,58
 934 322 934 322 985 343 c 128,-1,59
 1036 364 1036 364 1088 413 c 128,-1,60
 1140 462 1140 462 1173 560 c 128,-1,61
 1206 658 1206 658 1206 792 c 0,62,63
 1206 888 1206 888 1148 965 c 128,-1,64
 1090 1042 1090 1042 970 1042 c 0,65,66
 848 1042 848 1042 748 930 c 128,-1,67
 648 818 648 818 648 622 c 0,54,55
EndSplineSet
EndChar

StartChar: A
Encoding: 65 65 36
Width: 1252
GlyphClass: 2
Flags: W
LayerCount: 2
Fore
SplineSet
310 542 m 1,0,-1
 944 542 l 1,1,-1
 718 1146 l 2,2,3
 652 1324 652 1324 632 1382 c 1,4,-1
 624 1382 l 1,5,6
 616 1360 616 1360 538 1146 c 2,7,-1
 310 542 l 1,0,-1
2 0 m 1,8,-1
 566 1470 l 1,9,-1
 688 1470 l 1,10,-1
 1254 0 l 1,11,-1
 1146 0 l 1,12,-1
 972 464 l 1,13,-1
 282 464 l 1,14,-1
 108 0 l 1,15,-1
 2 0 l 1,8,-1
EndSplineSet
Substitution2: "Single Substitution lookup 12 subtable" ordfeminine
EndChar

StartChar: B
Encoding: 66 66 37
Width: 1356
GlyphClass: 2
Flags: W
LayerCount: 2
Fore
SplineSet
238 0 m 1,0,-1
 238 1470 l 1,1,-1
 762 1470 l 2,2,3
 966 1470 966 1470 1075 1368 c 128,-1,4
 1184 1266 1184 1266 1184 1100 c 0,5,6
 1184 970 1184 970 1115 887 c 128,-1,7
 1046 804 1046 804 942 768 c 1,8,9
 1068 738 1068 738 1155 637 c 128,-1,10
 1242 536 1242 536 1242 400 c 0,11,12
 1242 226 1242 226 1128 113 c 128,-1,13
 1014 0 1014 0 826 0 c 2,14,-1
 238 0 l 1,0,-1
332 82 m 1,15,-1
 802 82 l 2,16,17
 952 82 952 82 1049 171 c 128,-1,18
 1146 260 1146 260 1146 398 c 0,19,20
 1146 534 1146 534 1046 627 c 128,-1,21
 946 720 946 720 792 720 c 2,22,-1
 332 720 l 1,23,-1
 332 82 l 1,15,-1
332 800 m 1,24,-1
 740 800 l 2,25,26
 888 800 888 800 988 875 c 128,-1,27
 1088 950 1088 950 1088 1096 c 0,28,29
 1088 1224 1088 1224 1005 1306 c 128,-1,30
 922 1388 922 1388 750 1388 c 2,31,-1
 332 1388 l 1,32,-1
 332 800 l 1,24,-1
EndSplineSet
EndChar

StartChar: C
Encoding: 67 67 38
Width: 1278
GlyphClass: 2
Flags: W
LayerCount: 2
Fore
SplineSet
120 736 m 0,0,1
 120 1098 120 1098 287 1303 c 128,-1,2
 454 1508 454 1508 726 1508 c 0,3,4
 892 1508 892 1508 1005 1418 c 128,-1,5
 1118 1328 1118 1328 1168 1210 c 1,6,-1
 1086 1176 l 1,7,8
 968 1426 968 1426 724 1426 c 0,9,10
 494 1426 494 1426 356 1238 c 128,-1,11
 218 1050 218 1050 218 736 c 0,12,13
 218 416 218 416 359 230 c 128,-1,14
 500 44 500 44 724 44 c 0,15,16
 866 44 866 44 968 120 c 128,-1,17
 1070 196 1070 196 1124 310 c 1,18,-1
 1210 282 l 1,19,20
 1056 -36 1056 -36 726 -36 c 0,21,22
 454 -36 454 -36 287 170 c 128,-1,23
 120 376 120 376 120 736 c 0,0,1
EndSplineSet
EndChar

StartChar: D
Encoding: 68 68 39
Width: 1378
GlyphClass: 2
Flags: W
LayerCount: 2
Fore
SplineSet
238 0 m 1,0,-1
 238 1470 l 1,1,-1
 612 1470 l 2,2,3
 922 1470 922 1470 1100 1286 c 128,-1,4
 1278 1102 1278 1102 1278 736 c 0,5,6
 1278 380 1278 380 1102 190 c 128,-1,7
 926 0 926 0 612 0 c 2,8,-1
 238 0 l 1,0,-1
332 82 m 1,9,-1
 586 82 l 2,10,11
 862 82 862 82 1021 238 c 128,-1,12
 1180 394 1180 394 1180 736 c 0,13,14
 1180 1388 1180 1388 590 1388 c 2,15,-1
 332 1388 l 1,16,-1
 332 82 l 1,9,-1
EndSplineSet
EndChar

StartChar: E
Encoding: 69 69 40
Width: 1234
GlyphClass: 2
Flags: W
LayerCount: 2
Fore
SplineSet
238 0 m 1,0,-1
 238 1470 l 1,1,-1
 1128 1470 l 1,2,-1
 1128 1388 l 1,3,-1
 332 1388 l 1,4,-1
 332 804 l 1,5,-1
 1052 804 l 1,6,-1
 1052 724 l 1,7,-1
 332 724 l 1,8,-1
 332 82 l 1,9,-1
 1152 82 l 1,10,-1
 1152 0 l 1,11,-1
 238 0 l 1,0,-1
EndSplineSet
EndChar

StartChar: F
Encoding: 70 70 41
Width: 1164
GlyphClass: 2
Flags: W
LayerCount: 2
Fore
SplineSet
238 0 m 1,0,-1
 238 1470 l 1,1,-1
 1094 1470 l 1,2,-1
 1094 1388 l 1,3,-1
 332 1388 l 1,4,-1
 332 782 l 1,5,-1
 1018 782 l 1,6,-1
 1018 704 l 1,7,-1
 332 704 l 1,8,-1
 332 0 l 1,9,-1
 238 0 l 1,0,-1
EndSplineSet
EndChar

StartChar: G
Encoding: 71 71 42
Width: 1432
GlyphClass: 2
Flags: W
LayerCount: 2
Fore
SplineSet
120 736 m 0,0,1
 120 1082 120 1082 284 1295 c 128,-1,2
 448 1508 448 1508 742 1508 c 0,3,4
 916 1508 916 1508 1032 1422 c 128,-1,5
 1148 1336 1148 1336 1202 1222 c 1,6,-1
 1124 1190 l 1,7,8
 992 1426 992 1426 742 1426 c 256,9,10
 492 1426 492 1426 355 1236 c 128,-1,11
 218 1046 218 1046 218 736 c 0,12,13
 218 418 218 418 358 231 c 128,-1,14
 498 44 498 44 738 44 c 0,15,16
 850 44 850 44 937 87 c 128,-1,17
 1024 130 1024 130 1074 203 c 128,-1,18
 1124 276 1124 276 1149 361 c 128,-1,19
 1174 446 1174 446 1174 540 c 2,20,-1
 1174 688 l 1,21,-1
 720 688 l 1,22,-1
 720 768 l 1,23,-1
 1268 768 l 1,24,-1
 1268 0 l 1,25,-1
 1192 0 l 1,26,-1
 1188 274 l 1,27,28
 1144 138 1144 138 1033 51 c 128,-1,29
 922 -36 922 -36 736 -36 c 0,30,31
 450 -36 450 -36 285 173 c 128,-1,32
 120 382 120 382 120 736 c 0,0,1
EndSplineSet
EndChar

StartChar: H
Encoding: 72 72 43
Width: 1484
GlyphClass: 2
Flags: W
LayerCount: 2
Fore
SplineSet
238 0 m 1,0,-1
 238 1470 l 1,1,-1
 332 1470 l 1,2,-1
 332 800 l 1,3,-1
 1152 800 l 1,4,-1
 1152 1470 l 1,5,-1
 1248 1470 l 1,6,-1
 1248 0 l 1,7,-1
 1152 0 l 1,8,-1
 1152 720 l 1,9,-1
 332 720 l 1,10,-1
 332 0 l 1,11,-1
 238 0 l 1,0,-1
EndSplineSet
EndChar

StartChar: I
Encoding: 73 73 44
Width: 568
GlyphClass: 2
Flags: W
LayerCount: 2
Fore
SplineSet
238 0 m 1,0,-1
 238 1470 l 1,1,-1
 332 1470 l 1,2,-1
 332 0 l 1,3,-1
 238 0 l 1,0,-1
EndSplineSet
EndChar

StartChar: J
Encoding: 74 74 45
Width: 982
GlyphClass: 2
Flags: W
LayerCount: 2
Fore
SplineSet
38 204 m 1,0,-1
 126 236 l 1,1,2
 164 144 164 144 230 94 c 128,-1,3
 296 44 296 44 376 44 c 0,4,5
 378 44 378 44 382 44 c 0,6,7
 652 50 652 50 652 418 c 2,8,-1
 652 1470 l 1,9,-1
 748 1470 l 1,10,-1
 748 396 l 2,11,12
 748 182 748 182 654 73 c 128,-1,13
 560 -36 560 -36 386 -36 c 0,14,15
 136 -36 136 -36 38 204 c 1,0,-1
EndSplineSet
EndChar

StartChar: K
Encoding: 75 75 46
Width: 1268
GlyphClass: 2
Flags: W
LayerCount: 2
Fore
SplineSet
238 0 m 1,0,-1
 238 1470 l 1,1,-1
 332 1470 l 1,2,-1
 332 606 l 1,3,-1
 334 606 l 1,4,-1
 1086 1470 l 1,5,-1
 1214 1470 l 1,6,-1
 660 840 l 1,7,-1
 1256 0 l 1,8,-1
 1134 0 l 1,9,-1
 598 768 l 1,10,-1
 332 466 l 1,11,-1
 332 0 l 1,12,-1
 238 0 l 1,0,-1
EndSplineSet
EndChar

StartChar: L
Encoding: 76 76 47
Width: 1076
GlyphClass: 2
Flags: W
LayerCount: 2
Fore
SplineSet
238 0 m 1,0,-1
 238 1470 l 1,1,-1
 332 1470 l 1,2,-1
 332 82 l 1,3,-1
 1056 82 l 1,4,-1
 1056 0 l 1,5,-1
 238 0 l 1,0,-1
EndSplineSet
EndChar

StartChar: M
Encoding: 77 77 48
Width: 1786
GlyphClass: 2
Flags: W
LayerCount: 2
Fore
SplineSet
238 0 m 1,0,-1
 238 1470 l 1,1,-1
 362 1470 l 1,2,-1
 752 582 l 2,3,4
 778 518 778 518 823 406 c 128,-1,5
 868 294 868 294 890 242 c 1,6,-1
 898 242 l 1,7,8
 916 288 916 288 963 402 c 128,-1,9
 1010 516 1010 516 1036 582 c 2,10,-1
 1424 1470 l 1,11,-1
 1552 1470 l 1,12,-1
 1552 0 l 1,13,-1
 1456 0 l 1,14,-1
 1456 956 l 2,15,16
 1456 1086 1456 1086 1468 1348 c 1,17,-1
 1462 1348 l 1,18,-1
 938 126 l 1,19,-1
 850 126 l 1,20,-1
 324 1350 l 1,21,-1
 320 1350 l 1,22,23
 332 1130 332 1130 332 956 c 2,24,-1
 332 0 l 1,25,-1
 238 0 l 1,0,-1
EndSplineSet
EndChar

StartChar: N
Encoding: 78 78 49
Width: 1498
GlyphClass: 2
Flags: W
LayerCount: 2
Fore
SplineSet
238 0 m 1,0,-1
 238 1470 l 1,1,-1
 350 1470 l 1,2,-1
 1000 418 l 1,3,-1
 1174 132 l 1,4,-1
 1182 132 l 1,5,6
 1168 300 1168 300 1168 506 c 2,7,-1
 1168 1470 l 1,8,-1
 1264 1470 l 1,9,-1
 1264 0 l 1,10,-1
 1150 0 l 1,11,-1
 326 1338 l 1,12,-1
 320 1338 l 1,13,14
 332 1148 332 1148 332 940 c 2,15,-1
 332 0 l 1,16,-1
 238 0 l 1,0,-1
EndSplineSet
EndChar

StartChar: O
Encoding: 79 79 50
Width: 1410
GlyphClass: 2
Flags: W
LayerCount: 2
Fore
SplineSet
120 736 m 256,0,1
 120 1084 120 1084 279 1296 c 128,-1,2
 438 1508 438 1508 708 1508 c 256,3,4
 978 1508 978 1508 1134 1296 c 128,-1,5
 1290 1084 1290 1084 1290 734 c 0,6,7
 1290 386 1290 386 1133 175 c 128,-1,8
 976 -36 976 -36 708 -36 c 0,9,10
 436 -36 436 -36 278 176 c 128,-1,11
 120 388 120 388 120 736 c 256,0,1
218 736 m 0,12,13
 218 426 218 426 348 235 c 128,-1,14
 478 44 478 44 708 44 c 0,15,16
 934 44 934 44 1064 232 c 128,-1,17
 1194 420 1194 420 1194 734 c 0,18,19
 1194 1050 1194 1050 1064 1238 c 128,-1,20
 934 1426 934 1426 708 1426 c 0,21,22
 484 1426 484 1426 351 1239 c 128,-1,23
 218 1052 218 1052 218 736 c 0,12,13
EndSplineSet
Substitution2: "Single Substitution lookup 12 subtable" ordmasculine
EndChar

StartChar: P
Encoding: 80 80 51
Width: 1322
GlyphClass: 2
Flags: W
LayerCount: 2
Fore
SplineSet
238 0 m 1,0,-1
 238 1470 l 1,1,-1
 782 1470 l 2,2,3
 984 1470 984 1470 1106 1357 c 128,-1,4
 1228 1244 1228 1244 1228 1054 c 0,5,6
 1228 860 1228 860 1102 748 c 128,-1,7
 976 636 976 636 780 636 c 2,8,-1
 332 636 l 1,9,-1
 332 0 l 1,10,-1
 238 0 l 1,0,-1
332 714 m 1,11,-1
 760 714 l 2,12,13
 932 714 932 714 1031 801 c 128,-1,14
 1130 888 1130 888 1130 1054 c 0,15,16
 1130 1216 1130 1216 1032 1302 c 128,-1,17
 934 1388 934 1388 756 1388 c 2,18,-1
 332 1388 l 1,19,-1
 332 714 l 1,11,-1
EndSplineSet
EndChar

StartChar: Q
Encoding: 81 81 52
Width: 1408
GlyphClass: 2
Flags: W
LayerCount: 2
Fore
SplineSet
120 734 m 0,0,1
 120 1084 120 1084 278 1296 c 128,-1,2
 436 1508 436 1508 708 1508 c 0,3,4
 976 1508 976 1508 1133 1295 c 128,-1,5
 1290 1082 1290 1082 1290 734 c 256,6,7
 1290 386 1290 386 1134 176 c 0,8,9
 1122 158 1122 158 1108 142 c 1,10,-1
 1288 -46 l 1,11,-1
 1224 -102 l 1,12,-1
 1048 82 l 1,13,14
 910 -36 910 -36 708 -36 c 0,15,16
 436 -36 436 -36 278 175 c 128,-1,17
 120 386 120 386 120 734 c 0,0,1
698 444 m 1,18,-1
 762 504 l 1,19,-1
 1046 208 l 1,20,21
 1054 220 1054 220 1064 232 c 0,22,23
 1194 420 1194 420 1194 734 c 0,24,25
 1194 1056 1194 1056 1062 1241 c 128,-1,26
 930 1426 930 1426 708 1426 c 0,27,28
 484 1426 484 1426 351 1239 c 128,-1,29
 218 1052 218 1052 218 734 c 0,30,31
 218 422 218 422 351 233 c 128,-1,32
 484 44 484 44 708 44 c 0,33,34
 872 44 872 44 986 144 c 1,35,-1
 698 444 l 1,18,-1
EndSplineSet
EndChar

StartChar: R
Encoding: 82 82 53
Width: 1336
GlyphClass: 2
Flags: W
LayerCount: 2
Fore
SplineSet
332 746 m 1,0,-1
 784 746 l 2,1,2
 950 746 950 746 1042 835 c 128,-1,3
 1134 924 1134 924 1134 1070 c 0,4,5
 1134 1210 1134 1210 1041 1299 c 128,-1,6
 948 1388 948 1388 766 1388 c 2,7,-1
 332 1388 l 1,8,-1
 332 746 l 1,0,-1
238 0 m 1,9,-1
 238 1470 l 1,10,-1
 794 1470 l 2,11,12
 1004 1470 1004 1470 1117 1357 c 128,-1,13
 1230 1244 1230 1244 1230 1074 c 0,14,15
 1230 908 1230 908 1141 814 c 128,-1,16
 1052 720 1052 720 948 698 c 1,17,18
 1036 658 1036 658 1084 587 c 128,-1,19
 1132 516 1132 516 1158 402 c 0,20,21
 1162 384 1162 384 1173 337 c 128,-1,22
 1184 290 1184 290 1188 277 c 128,-1,23
 1192 264 1192 264 1202 228 c 128,-1,24
 1212 192 1212 192 1217 179 c 128,-1,25
 1222 166 1222 166 1231 137 c 128,-1,26
 1240 108 1240 108 1248 91 c 128,-1,27
 1256 74 1256 74 1268 49 c 128,-1,28
 1280 24 1280 24 1294 0 c 1,29,-1
 1186 0 l 1,30,31
 1156 58 1156 58 1133 125 c 128,-1,32
 1110 192 1110 192 1098 235 c 128,-1,33
 1086 278 1086 278 1058 396 c 0,34,35
 1044 448 1044 448 1027 490 c 128,-1,36
 1010 532 1010 532 978 575 c 128,-1,37
 946 618 946 618 894 641 c 128,-1,38
 842 664 842 664 772 664 c 2,39,-1
 332 664 l 1,40,-1
 332 0 l 1,41,-1
 238 0 l 1,9,-1
EndSplineSet
EndChar

StartChar: S
Encoding: 83 83 54
Width: 1228
GlyphClass: 2
Flags: W
LayerCount: 2
Fore
SplineSet
106 244 m 1,0,-1
 196 280 l 1,1,2
 260 174 260 174 373 109 c 128,-1,3
 486 44 486 44 628 44 c 0,4,5
 804 44 804 44 915 131 c 128,-1,6
 1026 218 1026 218 1026 372 c 0,7,8
 1026 444 1026 444 995 500 c 128,-1,9
 964 556 964 556 896 598 c 128,-1,10
 828 640 828 640 774 661 c 128,-1,11
 720 682 720 682 620 718 c 0,12,13
 528 748 528 748 479 765 c 128,-1,14
 430 782 430 782 356 821 c 128,-1,15
 282 860 282 860 243 899 c 128,-1,16
 204 938 204 938 174 1000 c 128,-1,17
 144 1062 144 1062 144 1138 c 0,18,19
 144 1308 144 1308 272 1408 c 128,-1,20
 400 1508 400 1508 620 1508 c 0,21,22
 776 1508 776 1508 897 1436 c 128,-1,23
 1018 1364 1018 1364 1074 1260 c 1,24,-1
 992 1228 l 1,25,26
 864 1426 864 1426 614 1426 c 0,27,28
 438 1426 438 1426 339 1347 c 128,-1,29
 240 1268 240 1268 240 1138 c 0,30,31
 240 1078 240 1078 267 1028 c 128,-1,32
 294 978 294 978 328 946 c 128,-1,33
 362 914 362 914 429 882 c 128,-1,34
 496 850 496 850 542 833 c 128,-1,35
 588 816 588 816 670 790 c 0,36,37
 756 760 756 760 807 741 c 128,-1,38
 858 722 858 722 925 685 c 128,-1,39
 992 648 992 648 1030 608 c 128,-1,40
 1068 568 1068 568 1096 508 c 128,-1,41
 1124 448 1124 448 1124 376 c 0,42,43
 1124 182 1124 182 991 73 c 128,-1,44
 858 -36 858 -36 624 -36 c 0,45,46
 276 -36 276 -36 106 244 c 1,0,-1
EndSplineSet
EndChar

StartChar: T
Encoding: 84 84 55
Width: 1092
GlyphClass: 2
Flags: W
LayerCount: 2
Fore
SplineSet
36 1388 m 1,0,-1
 36 1470 l 1,1,-1
 1060 1470 l 1,2,-1
 1060 1388 l 1,3,-1
 598 1388 l 1,4,-1
 598 0 l 1,5,-1
 502 0 l 1,6,-1
 502 1388 l 1,7,-1
 36 1388 l 1,0,-1
EndSplineSet
EndChar

StartChar: U
Encoding: 85 85 56
Width: 1482
GlyphClass: 2
Flags: W
LayerCount: 2
Fore
SplineSet
236 512 m 2,0,-1
 236 1470 l 1,1,-1
 330 1470 l 1,2,-1
 330 520 l 2,3,4
 330 288 330 288 440 166 c 128,-1,5
 550 44 550 44 740 44 c 0,6,7
 934 44 934 44 1044 168 c 128,-1,8
 1154 292 1154 292 1154 520 c 2,9,-1
 1154 1470 l 1,10,-1
 1250 1470 l 1,11,-1
 1250 512 l 2,12,13
 1250 250 1250 250 1119 107 c 128,-1,14
 988 -36 988 -36 740 -36 c 0,15,16
 500 -36 500 -36 368 105 c 128,-1,17
 236 246 236 246 236 512 c 2,0,-1
EndSplineSet
EndChar

StartChar: V
Encoding: 86 86 57
Width: 1136
GlyphClass: 2
Flags: W
LayerCount: 2
Fore
SplineSet
-6 1470 m 1,0,-1
 102 1470 l 1,1,-1
 462 400 l 2,2,3
 478 354 478 354 511 254 c 128,-1,4
 544 154 544 154 560 100 c 1,5,-1
 566 100 l 1,6,7
 586 156 586 156 620 255 c 128,-1,8
 654 354 654 354 668 400 c 2,9,-1
 1038 1470 l 1,10,-1
 1144 1470 l 1,11,-1
 622 0 l 1,12,-1
 508 0 l 1,13,-1
 -6 1470 l 1,0,-1
EndSplineSet
EndChar

StartChar: W
Encoding: 87 87 58
Width: 1688
GlyphClass: 2
Flags: W
LayerCount: 2
Fore
SplineSet
22 1470 m 1,0,-1
 128 1470 l 1,1,-1
 378 402 l 2,2,3
 398 308 398 308 438 108 c 1,4,-1
 446 108 l 1,5,6
 458 160 458 160 481 257 c 128,-1,7
 504 354 504 354 516 402 c 2,8,-1
 790 1470 l 1,9,-1
 900 1470 l 1,10,-1
 1174 402 l 2,11,12
 1186 350 1186 350 1210 251 c 128,-1,13
 1234 152 1234 152 1244 108 c 1,14,-1
 1250 108 l 1,15,16
 1286 292 1286 292 1312 402 c 2,17,-1
 1562 1470 l 1,18,-1
 1668 1470 l 1,19,-1
 1306 0 l 1,20,-1
 1190 0 l 1,21,-1
 920 1050 l 2,22,23
 872 1234 872 1234 848 1356 c 1,24,-1
 842 1356 l 1,25,26
 820 1248 820 1248 768 1050 c 2,27,-1
 500 0 l 1,28,-1
 386 0 l 1,29,-1
 22 1470 l 1,0,-1
EndSplineSet
EndChar

StartChar: X
Encoding: 88 88 59
Width: 1080
GlyphClass: 2
Flags: W
LayerCount: 2
Fore
SplineSet
-8 0 m 1,0,-1
 478 756 l 1,1,-1
 18 1470 l 1,2,-1
 136 1470 l 1,3,-1
 404 1044 l 2,4,5
 414 1028 414 1028 536 828 c 1,6,-1
 544 828 l 1,7,8
 642 988 642 988 678 1044 c 2,9,-1
 946 1470 l 1,10,-1
 1066 1470 l 1,11,-1
 604 756 l 1,12,-1
 1090 0 l 1,13,-1
 974 0 l 1,14,-1
 686 454 l 2,15,16
 658 498 658 498 606 581 c 128,-1,17
 554 664 554 664 544 680 c 1,18,-1
 536 680 l 1,19,20
 508 634 508 634 398 454 c 2,21,-1
 110 0 l 1,22,-1
 -8 0 l 1,0,-1
EndSplineSet
EndChar

StartChar: Y
Encoding: 89 89 60
Width: 1136
GlyphClass: 2
Flags: W
LayerCount: 2
Fore
SplineSet
-6 1470 m 1,0,-1
 110 1470 l 1,1,-1
 432 928 l 2,2,3
 450 898 450 898 497 816 c 128,-1,4
 544 734 544 734 566 696 c 1,5,-1
 570 696 l 1,6,7
 624 784 624 784 708 928 c 2,8,-1
 1028 1470 l 1,9,-1
 1144 1470 l 1,10,-1
 618 606 l 1,11,-1
 618 0 l 1,12,-1
 524 0 l 1,13,-1
 524 606 l 1,14,-1
 -6 1470 l 1,0,-1
EndSplineSet
EndChar

StartChar: Z
Encoding: 90 90 61
Width: 1240
GlyphClass: 2
Flags: W
LayerCount: 2
Fore
SplineSet
116 74 m 1,0,-1
 990 1388 l 1,1,-1
 182 1388 l 1,2,-1
 182 1470 l 1,3,-1
 1108 1470 l 1,4,-1
 1108 1396 l 1,5,-1
 228 82 l 1,6,-1
 1128 82 l 1,7,-1
 1128 0 l 1,8,-1
 116 0 l 1,9,-1
 116 74 l 1,0,-1
EndSplineSet
EndChar

StartChar: bracketleft
Encoding: 91 91 62
Width: 928
GlyphClass: 2
Flags: W
LayerCount: 2
Fore
SplineSet
348 -268 m 1,0,-1
 348 1674 l 1,1,-1
 712 1674 l 1,2,-1
 712 1596 l 1,3,-1
 442 1596 l 1,4,-1
 442 -192 l 1,5,-1
 712 -192 l 1,6,-1
 712 -268 l 1,7,-1
 348 -268 l 1,0,-1
EndSplineSet
EndChar

StartChar: backslash
Encoding: 92 92 63
Width: 608
GlyphClass: 2
Flags: W
LayerCount: 2
Fore
SplineSet
-18 1580 m 1,0,-1
 76 1580 l 1,1,-1
 628 -128 l 1,2,-1
 534 -128 l 1,3,-1
 -18 1580 l 1,0,-1
EndSplineSet
EndChar

StartChar: bracketright
Encoding: 93 93 64
Width: 928
GlyphClass: 2
Flags: W
LayerCount: 2
Fore
SplineSet
216 -192 m 1,0,-1
 486 -192 l 1,1,-1
 486 1596 l 1,2,-1
 216 1596 l 1,3,-1
 216 1674 l 1,4,-1
 580 1674 l 1,5,-1
 580 -268 l 1,6,-1
 216 -268 l 1,7,-1
 216 -192 l 1,0,-1
EndSplineSet
EndChar

StartChar: asciicircum
Encoding: 94 94 65
Width: 982
GlyphClass: 2
Flags: W
LayerCount: 2
Fore
SplineSet
60 990 m 1,0,-1
 446 1632 l 1,1,-1
 538 1632 l 1,2,-1
 926 990 l 1,3,-1
 826 990 l 1,4,-1
 494 1552 l 1,5,-1
 492 1552 l 1,6,-1
 420 1436 l 1,7,-1
 160 990 l 1,8,-1
 60 990 l 1,0,-1
EndSplineSet
EndChar

StartChar: underscore
Encoding: 95 95 66
Width: 860
GlyphClass: 2
Flags: W
LayerCount: 2
Fore
SplineSet
16 -80 m 1,0,-1
 848 -80 l 1,1,-1
 848 -160 l 1,2,-1
 16 -160 l 1,3,-1
 16 -80 l 1,0,-1
EndSplineSet
EndChar

StartChar: grave
Encoding: 96 96 67
Width: 546
GlyphClass: 2
Flags: W
LayerCount: 2
Fore
SplineSet
320 1106 m 1,0,-1
 84 1664 l 1,1,-1
 232 1664 l 1,2,-1
 400 1106 l 1,3,-1
 320 1106 l 1,0,-1
EndSplineSet
EndChar

StartChar: a
Encoding: 97 97 68
Width: 1120
GlyphClass: 2
Flags: W
LayerCount: 2
Fore
SplineSet
192 248 m 0,0,1
 192 164 192 164 264 102 c 128,-1,2
 336 40 336 40 466 40 c 0,3,4
 626 40 626 40 742 143 c 128,-1,5
 858 246 858 246 858 408 c 2,6,-1
 858 596 l 1,7,8
 758 560 758 560 536 526 c 0,9,10
 192 470 192 470 192 248 c 0,0,1
98 244 m 0,11,12
 98 386 98 386 201 474 c 128,-1,13
 304 562 304 562 534 597 c 128,-1,14
 764 632 764 632 858 670 c 1,15,-1
 858 726 l 2,16,17
 858 848 858 848 776 927 c 128,-1,18
 694 1006 694 1006 544 1006 c 0,19,20
 446 1006 446 1006 357 960 c 128,-1,21
 268 914 268 914 206 834 c 1,22,-1
 142 880 l 1,23,24
 208 968 208 968 314 1024 c 128,-1,25
 420 1080 420 1080 542 1080 c 0,26,27
 750 1080 750 1080 850 976 c 128,-1,28
 950 872 950 872 950 702 c 2,29,-1
 950 0 l 1,30,-1
 860 0 l 1,31,-1
 860 208 l 1,32,33
 824 110 824 110 714 37 c 128,-1,34
 604 -36 604 -36 458 -36 c 0,35,36
 292 -36 292 -36 195 43 c 128,-1,37
 98 122 98 122 98 244 c 0,11,12
EndSplineSet
Substitution2: "Single Substitution lookup 12 subtable" ordfeminine
EndChar

StartChar: b
Encoding: 98 98 69
Width: 1174
GlyphClass: 2
Flags: W
LayerCount: 2
Fore
SplineSet
194 0 m 1,0,-1
 194 1532 l 1,1,-1
 288 1532 l 1,2,-1
 288 802 l 1,3,4
 314 906 314 906 408 993 c 128,-1,5
 502 1080 502 1080 636 1080 c 0,6,7
 830 1080 830 1080 949 930 c 128,-1,8
 1068 780 1068 780 1068 524 c 0,9,10
 1068 246 1068 246 939 105 c 128,-1,11
 810 -36 810 -36 634 -36 c 0,12,13
 510 -36 510 -36 419 40 c 128,-1,14
 328 116 328 116 288 228 c 1,15,-1
 288 0 l 1,16,-1
 194 0 l 1,0,-1
284 524 m 0,17,18
 284 300 284 300 384 170 c 128,-1,19
 484 40 484 40 626 40 c 0,20,21
 780 40 780 40 878 171 c 128,-1,22
 976 302 976 302 976 524 c 0,23,24
 976 744 976 744 879 874 c 128,-1,25
 782 1004 782 1004 628 1004 c 0,26,27
 488 1004 488 1004 386 875 c 128,-1,28
 284 746 284 746 284 524 c 0,17,18
EndSplineSet
EndChar

StartChar: c
Encoding: 99 99 70
Width: 1006
GlyphClass: 2
Flags: W
LayerCount: 2
Fore
SplineSet
106 524 m 0,0,1
 106 768 106 768 227 924 c 128,-1,2
 348 1080 348 1080 560 1080 c 0,3,4
 690 1080 690 1080 785 1010 c 128,-1,5
 880 940 880 940 918 836 c 1,6,-1
 836 812 l 1,7,8
 802 896 802 896 728 950 c 128,-1,9
 654 1004 654 1004 560 1004 c 0,10,11
 400 1004 400 1004 300 869 c 128,-1,12
 200 734 200 734 200 524 c 0,13,14
 200 308 200 308 302 174 c 128,-1,15
 404 40 404 40 560 40 c 0,16,17
 660 40 660 40 743 101 c 128,-1,18
 826 162 826 162 866 244 c 1,19,-1
 946 216 l 1,20,21
 900 110 900 110 797 37 c 128,-1,22
 694 -36 694 -36 560 -36 c 0,23,24
 358 -36 358 -36 232 117 c 128,-1,25
 106 270 106 270 106 524 c 0,0,1
EndSplineSet
EndChar

StartChar: d
Encoding: 100 100 71
Width: 1174
GlyphClass: 2
Flags: W
LayerCount: 2
Fore
SplineSet
106 524 m 0,0,1
 106 782 106 782 227 931 c 128,-1,2
 348 1080 348 1080 540 1080 c 0,3,4
 668 1080 668 1080 761 1000 c 128,-1,5
 854 920 854 920 888 806 c 1,6,-1
 888 1532 l 1,7,-1
 980 1532 l 1,8,-1
 980 0 l 1,9,-1
 890 0 l 1,10,-1
 890 230 l 1,11,12
 850 116 850 116 758 40 c 128,-1,13
 666 -36 666 -36 538 -36 c 0,14,15
 364 -36 364 -36 235 104 c 128,-1,16
 106 244 106 244 106 524 c 0,0,1
200 524 m 0,17,18
 200 306 200 306 295 173 c 128,-1,19
 390 40 390 40 548 40 c 0,20,21
 692 40 692 40 791 170 c 128,-1,22
 890 300 890 300 890 524 c 0,23,24
 890 746 890 746 789 875 c 128,-1,25
 688 1004 688 1004 546 1004 c 0,26,27
 392 1004 392 1004 296 874 c 128,-1,28
 200 744 200 744 200 524 c 0,17,18
EndSplineSet
EndChar

StartChar: e
Encoding: 101 101 72
Width: 1116
GlyphClass: 2
Flags: W
LayerCount: 2
Fore
SplineSet
106 530 m 0,0,1
 106 772 106 772 231 926 c 128,-1,2
 356 1080 356 1080 564 1080 c 0,3,4
 774 1080 774 1080 895 928 c 128,-1,5
 1016 776 1016 776 1016 556 c 0,6,7
 1016 544 1016 544 1015 526 c 128,-1,8
 1014 508 1014 508 1014 496 c 1,9,-1
 200 496 l 1,10,11
 200 310 200 310 299 175 c 128,-1,12
 398 40 398 40 570 40 c 0,13,14
 680 40 680 40 771 96 c 128,-1,15
 862 152 862 152 910 238 c 1,16,-1
 988 210 l 1,17,18
 934 100 934 100 828 32 c 128,-1,19
 722 -36 722 -36 570 -36 c 0,20,21
 356 -36 356 -36 231 122 c 128,-1,22
 106 280 106 280 106 530 c 0,0,1
202 566 m 1,23,-1
 922 566 l 1,24,25
 922 746 922 746 824 875 c 128,-1,26
 726 1004 726 1004 564 1004 c 0,27,28
 398 1004 398 1004 302 872 c 128,-1,29
 206 740 206 740 202 566 c 1,23,-1
EndSplineSet
EndChar

StartChar: f
Encoding: 102 102 73
Width: 658
GlyphClass: 2
Flags: W
LayerCount: 2
Fore
SplineSet
54 966 m 1,0,-1
 54 1046 l 1,1,-1
 248 1046 l 1,2,-1
 248 1240 l 2,3,4
 248 1390 248 1390 324 1461 c 128,-1,5
 400 1532 400 1532 528 1532 c 2,6,-1
 634 1532 l 1,7,-1
 634 1454 l 1,8,-1
 536 1454 l 2,9,10
 342 1454 342 1454 342 1226 c 2,11,-1
 342 1046 l 1,12,-1
 606 1046 l 1,13,-1
 606 966 l 1,14,-1
 342 966 l 1,15,-1
 342 0 l 1,16,-1
 248 0 l 1,17,-1
 248 966 l 1,18,-1
 54 966 l 1,0,-1
EndSplineSet
EndChar

StartChar: g
Encoding: 103 103 74
Width: 1154
GlyphClass: 2
Flags: W
LayerCount: 2
Fore
SplineSet
200 542 m 0,0,1
 200 336 200 336 294 207 c 128,-1,2
 388 78 388 78 536 78 c 0,3,4
 692 78 692 78 782 202 c 128,-1,5
 872 326 872 326 872 544 c 0,6,7
 872 750 872 750 779 877 c 128,-1,8
 686 1004 686 1004 540 1004 c 0,9,10
 382 1004 382 1004 291 874 c 128,-1,11
 200 744 200 744 200 542 c 0,0,1
106 542 m 0,12,13
 106 782 106 782 222 931 c 128,-1,14
 338 1080 338 1080 532 1080 c 0,15,16
 666 1080 666 1080 750 1003 c 128,-1,17
 834 926 834 926 872 824 c 1,18,-1
 872 1046 l 1,19,-1
 964 1046 l 1,20,-1
 964 94 l 2,21,22
 964 -202 964 -202 865 -345 c 128,-1,23
 766 -488 766 -488 542 -488 c 0,24,25
 314 -488 314 -488 178 -310 c 1,26,-1
 244 -268 l 1,27,28
 374 -412 374 -412 544 -412 c 0,29,30
 872 -412 872 -412 872 64 c 2,31,-1
 872 250 l 1,32,33
 776 0 776 0 534 0 c 0,34,35
 340 0 340 0 223 152 c 128,-1,36
 106 304 106 304 106 542 c 0,12,13
EndSplineSet
EndChar

StartChar: h
Encoding: 104 104 75
Width: 1158
GlyphClass: 2
Flags: W
LayerCount: 2
Fore
SplineSet
194 0 m 1,0,-1
 194 1532 l 1,1,-1
 288 1532 l 1,2,-1
 288 842 l 1,3,-1
 290 842 l 1,4,5
 326 936 326 936 424 1008 c 128,-1,6
 522 1080 522 1080 650 1080 c 0,7,8
 812 1080 812 1080 898 978 c 128,-1,9
 984 876 984 876 984 676 c 2,10,-1
 984 0 l 1,11,-1
 896 0 l 1,12,-1
 896 658 l 2,13,14
 896 1004 896 1004 634 1004 c 0,15,16
 500 1004 500 1004 394 894 c 128,-1,17
 288 784 288 784 288 636 c 2,18,-1
 288 0 l 1,19,-1
 194 0 l 1,0,-1
EndSplineSet
Substitution2: "'sups' Superscript lookup 5 subtable" uni02B0
Substitution2: "'aalt' Access All Alternates lookup 0 subtable" uni02B0
EndChar

StartChar: i
Encoding: 105 105 76
Width: 554
GlyphClass: 2
Flags: W
LayerCount: 2
Fore
SplineSet
198 1324 m 1,0,-1
 198 1492 l 1,1,-1
 354 1492 l 1,2,-1
 354 1324 l 1,3,-1
 198 1324 l 1,0,-1
234 0 m 1,4,-1
 234 1046 l 1,5,-1
 324 1046 l 1,6,-1
 324 0 l 1,7,-1
 234 0 l 1,4,-1
EndSplineSet
EndChar

StartChar: j
Encoding: 106 106 77
Width: 562
GlyphClass: 2
Flags: W
LayerCount: 2
Fore
SplineSet
204 1324 m 1,0,-1
 204 1492 l 1,1,-1
 362 1492 l 1,2,-1
 362 1324 l 1,3,-1
 204 1324 l 1,0,-1
-12 -388 m 1,4,-1
 40 -388 l 2,5,6
 240 -388 240 -388 240 -122 c 2,7,-1
 240 1046 l 1,8,-1
 330 1046 l 1,9,-1
 330 -130 l 2,10,11
 330 -296 330 -296 260 -381 c 128,-1,12
 190 -466 190 -466 58 -466 c 2,13,-1
 -12 -466 l 1,14,-1
 -12 -388 l 1,4,-1
EndSplineSet
Substitution2: "'sups' Superscript lookup 5 subtable" uni02B2
Substitution2: "'aalt' Access All Alternates lookup 0 subtable" uni02B2
EndChar

StartChar: k
Encoding: 107 107 78
Width: 996
GlyphClass: 2
Flags: W
LayerCount: 2
Fore
SplineSet
196 0 m 1,0,-1
 196 1532 l 1,1,-1
 292 1532 l 1,2,-1
 292 444 l 1,3,-1
 824 1046 l 1,4,-1
 946 1046 l 1,5,-1
 580 632 l 1,6,-1
 996 0 l 1,7,-1
 884 0 l 1,8,-1
 516 564 l 1,9,-1
 292 316 l 1,10,-1
 292 0 l 1,11,-1
 196 0 l 1,0,-1
EndSplineSet
EndChar

StartChar: l
Encoding: 108 108 79
Width: 498
GlyphClass: 2
Flags: W
LayerCount: 2
Fore
SplineSet
202 0 m 1,0,-1
 202 1532 l 1,1,-1
 296 1532 l 1,2,-1
 296 0 l 1,3,-1
 202 0 l 1,0,-1
EndSplineSet
Substitution2: "'sups' Superscript lookup 5 subtable" uni02E1
Substitution2: "'aalt' Access All Alternates lookup 0 subtable" uni02E1
EndChar

StartChar: m
Encoding: 109 109 80
Width: 1702
GlyphClass: 2
Flags: W
LayerCount: 2
Fore
SplineSet
186 0 m 1,0,-1
 186 1046 l 1,1,-1
 276 1046 l 1,2,-1
 276 858 l 1,3,-1
 278 858 l 1,4,5
 308 944 308 944 389 1012 c 128,-1,6
 470 1080 470 1080 600 1080 c 0,7,8
 826 1080 826 1080 878 816 c 1,9,10
 882 840 882 840 904 879 c 128,-1,11
 926 918 926 918 966 966 c 128,-1,12
 1006 1014 1006 1014 1078 1047 c 128,-1,13
 1150 1080 1150 1080 1238 1080 c 0,14,15
 1390 1080 1390 1080 1461 980 c 128,-1,16
 1532 880 1532 880 1532 678 c 2,17,-1
 1532 0 l 1,18,-1
 1438 0 l 1,19,-1
 1438 664 l 2,20,21
 1438 832 1438 832 1392 918 c 128,-1,22
 1346 1004 1346 1004 1216 1004 c 256,23,24
 1086 1004 1086 1004 996 899 c 128,-1,25
 906 794 906 794 906 626 c 2,26,-1
 906 0 l 1,27,-1
 812 0 l 1,28,-1
 812 664 l 2,29,30
 812 1004 812 1004 584 1004 c 0,31,32
 448 1004 448 1004 363 903 c 128,-1,33
 278 802 278 802 278 640 c 2,34,-1
 278 0 l 1,35,-1
 186 0 l 1,0,-1
EndSplineSet
EndChar

StartChar: n
Encoding: 110 110 81
Width: 1150
GlyphClass: 2
Flags: W
LayerCount: 2
Fore
SplineSet
186 0 m 1,0,-1
 186 1046 l 1,1,-1
 276 1046 l 1,2,-1
 276 830 l 1,3,-1
 278 830 l 1,4,5
 296 914 296 914 397 997 c 128,-1,6
 498 1080 498 1080 642 1080 c 0,7,8
 704 1080 704 1080 758 1063 c 128,-1,9
 812 1046 812 1046 864 1005 c 128,-1,10
 916 964 916 964 946 881 c 128,-1,11
 976 798 976 798 976 676 c 2,12,-1
 976 0 l 1,13,-1
 882 0 l 1,14,-1
 882 658 l 2,15,16
 882 1004 882 1004 624 1004 c 0,17,18
 490 1004 490 1004 384 894 c 128,-1,19
 278 784 278 784 278 636 c 2,20,-1
 278 0 l 1,21,-1
 186 0 l 1,0,-1
EndSplineSet
Substitution2: "'sups' Superscript lookup 5 subtable" uni207F
Substitution2: "'aalt' Access All Alternates lookup 0 subtable" uni207F
EndChar

StartChar: o
Encoding: 111 111 82
Width: 1128
GlyphClass: 2
Flags: W
LayerCount: 2
Fore
SplineSet
200 524 m 0,0,1
 200 310 200 310 301 175 c 128,-1,2
 402 40 402 40 564 40 c 256,3,4
 726 40 726 40 828 176 c 128,-1,5
 930 312 930 312 930 524 c 0,6,7
 930 740 930 740 826 872 c 128,-1,8
 722 1004 722 1004 564 1004 c 0,9,10
 408 1004 408 1004 304 873 c 128,-1,11
 200 742 200 742 200 524 c 0,0,1
106 524 m 0,12,13
 106 766 106 766 228 923 c 128,-1,14
 350 1080 350 1080 564 1080 c 0,15,16
 774 1080 774 1080 899 923 c 128,-1,17
 1024 766 1024 766 1024 524 c 0,18,19
 1024 416 1024 416 995 318 c 128,-1,20
 966 220 966 220 912 140 c 128,-1,21
 858 60 858 60 768 12 c 128,-1,22
 678 -36 678 -36 564 -36 c 0,23,24
 342 -36 342 -36 224 129 c 128,-1,25
 106 294 106 294 106 524 c 0,12,13
EndSplineSet
Substitution2: "Single Substitution lookup 12 subtable" ordmasculine
EndChar

StartChar: p
Encoding: 112 112 83
Width: 1174
GlyphClass: 2
Flags: W
LayerCount: 2
Fore
SplineSet
286 526 m 0,0,1
 286 310 286 310 381 175 c 128,-1,2
 476 40 476 40 628 40 c 0,3,4
 778 40 778 40 877 170 c 128,-1,5
 976 300 976 300 976 524 c 0,6,7
 976 734 976 734 885 869 c 128,-1,8
 794 1004 794 1004 628 1004 c 0,9,10
 482 1004 482 1004 384 868 c 128,-1,11
 286 732 286 732 286 526 c 0,0,1
194 -480 m 1,12,-1
 194 1046 l 1,13,-1
 286 1046 l 1,14,-1
 286 808 l 1,15,16
 328 932 328 932 421 1006 c 128,-1,17
 514 1080 514 1080 636 1080 c 0,18,19
 830 1080 830 1080 949 928 c 128,-1,20
 1068 776 1068 776 1068 524 c 0,21,22
 1068 254 1068 254 943 109 c 128,-1,23
 818 -36 818 -36 634 -36 c 0,24,25
 506 -36 506 -36 418 39 c 128,-1,26
 330 114 330 114 288 232 c 1,27,-1
 288 -480 l 1,28,-1
 194 -480 l 1,12,-1
EndSplineSet
EndChar

StartChar: q
Encoding: 113 113 84
Width: 1172
GlyphClass: 2
Flags: W
LayerCount: 2
Fore
SplineSet
200 524 m 0,0,1
 200 304 200 304 297 172 c 128,-1,2
 394 40 394 40 546 40 c 0,3,4
 700 40 700 40 794 176 c 128,-1,5
 888 312 888 312 888 526 c 0,6,7
 888 736 888 736 791 870 c 128,-1,8
 694 1004 694 1004 546 1004 c 0,9,10
 382 1004 382 1004 291 869 c 128,-1,11
 200 734 200 734 200 524 c 0,0,1
106 524 m 0,12,13
 106 776 106 776 225 928 c 128,-1,14
 344 1080 344 1080 538 1080 c 0,15,16
 656 1080 656 1080 751 1009 c 128,-1,17
 846 938 846 938 890 810 c 1,18,-1
 890 1046 l 1,19,-1
 980 1046 l 1,20,-1
 980 -480 l 1,21,-1
 888 -480 l 1,22,-1
 888 232 l 1,23,24
 846 114 846 114 756 39 c 128,-1,25
 666 -36 666 -36 540 -36 c 0,26,27
 354 -36 354 -36 230 110 c 128,-1,28
 106 256 106 256 106 524 c 0,12,13
EndSplineSet
EndChar

StartChar: r
Encoding: 114 114 85
Width: 740
GlyphClass: 2
Flags: W
LayerCount: 2
Fore
SplineSet
186 0 m 1,0,-1
 186 1046 l 1,1,-1
 274 1046 l 1,2,-1
 274 864 l 1,3,4
 302 944 302 944 379 1012 c 128,-1,5
 456 1080 456 1080 586 1080 c 0,6,7
 676 1080 676 1080 742 1050 c 1,8,-1
 742 966 l 1,9,10
 668 1000 668 1000 586 1000 c 0,11,12
 442 1000 442 1000 360 892 c 128,-1,13
 278 784 278 784 278 618 c 2,14,-1
 278 0 l 1,15,-1
 186 0 l 1,0,-1
EndSplineSet
Substitution2: "'sups' Superscript lookup 5 subtable" uni02B3
Substitution2: "'aalt' Access All Alternates lookup 0 subtable" uni02B3
EndChar

StartChar: s
Encoding: 115 115 86
Width: 976
GlyphClass: 2
Flags: W
LayerCount: 2
Fore
SplineSet
90 184 m 1,0,-1
 162 224 l 1,1,2
 278 40 278 40 494 40 c 0,3,4
 628 40 628 40 712 96 c 128,-1,5
 796 152 796 152 796 246 c 0,6,7
 796 284 796 284 785 312 c 128,-1,8
 774 340 774 340 744 365 c 128,-1,9
 714 390 714 390 693 404 c 128,-1,10
 672 418 672 418 618 438 c 128,-1,11
 564 458 564 458 541 467 c 128,-1,12
 518 476 518 476 448 496 c 0,13,14
 378 518 378 518 329 538 c 128,-1,15
 280 558 280 558 226 594 c 128,-1,16
 172 630 172 630 144 682 c 128,-1,17
 116 734 116 734 116 802 c 0,18,19
 116 930 116 930 221 1005 c 128,-1,20
 326 1080 326 1080 494 1080 c 0,21,22
 616 1080 616 1080 715 1019 c 128,-1,23
 814 958 814 958 860 870 c 1,24,-1
 796 830 l 1,25,26
 750 906 750 906 671 955 c 128,-1,27
 592 1004 592 1004 494 1004 c 0,28,29
 362 1004 362 1004 286 947 c 128,-1,30
 210 890 210 890 210 800 c 0,31,32
 210 702 210 702 288 647 c 128,-1,33
 366 592 366 592 504 554 c 0,34,35
 584 532 584 532 639 512 c 128,-1,36
 694 492 694 492 757 456 c 128,-1,37
 820 420 820 420 853 367 c 128,-1,38
 886 314 886 314 886 246 c 0,39,40
 886 126 886 126 783 45 c 128,-1,41
 680 -36 680 -36 494 -36 c 0,42,43
 220 -36 220 -36 90 184 c 1,0,-1
EndSplineSet
Substitution2: "'hist' Historical Forms lookup 11 subtable" longs
Substitution2: "'sups' Superscript lookup 5 subtable" uni02E2
AlternateSubs2: "'aalt' Access All Alternates lookup 1 subtable" uni02E2 longs
EndChar

StartChar: t
Encoding: 116 116 87
Width: 714
GlyphClass: 2
Flags: W
LayerCount: 2
Fore
SplineSet
54 966 m 1,0,-1
 54 1046 l 1,1,-1
 250 1046 l 1,2,-1
 250 1398 l 1,3,-1
 346 1398 l 1,4,-1
 346 1046 l 1,5,-1
 628 1046 l 1,6,-1
 628 966 l 1,7,-1
 346 966 l 1,8,-1
 346 288 l 2,9,10
 346 176 346 176 388 128 c 128,-1,11
 430 80 430 80 520 80 c 0,12,13
 524 80 524 80 528 80 c 2,14,-1
 628 80 l 1,15,-1
 628 0 l 1,16,-1
 518 0 l 2,17,18
 514 0 514 0 510 0 c 0,19,20
 388 0 388 0 319 66 c 128,-1,21
 250 132 250 132 250 274 c 2,22,-1
 250 966 l 1,23,-1
 54 966 l 1,0,-1
EndSplineSet
EndChar

StartChar: u
Encoding: 117 117 88
Width: 1142
GlyphClass: 2
Flags: W
LayerCount: 2
Fore
SplineSet
174 358 m 2,0,-1
 174 1046 l 1,1,-1
 266 1046 l 1,2,-1
 266 390 l 2,3,4
 266 40 266 40 532 40 c 0,5,6
 696 40 696 40 781 160 c 128,-1,7
 866 280 866 280 866 444 c 2,8,-1
 866 1046 l 1,9,-1
 956 1046 l 1,10,-1
 956 0 l 1,11,-1
 868 0 l 1,12,-1
 868 206 l 1,13,14
 850 120 850 120 760 42 c 128,-1,15
 670 -36 670 -36 512 -36 c 0,16,17
 352 -36 352 -36 263 71 c 128,-1,18
 174 178 174 178 174 358 c 2,0,-1
EndSplineSet
EndChar

StartChar: v
Encoding: 118 118 89
Width: 966
GlyphClass: 2
Flags: W
LayerCount: 2
Fore
SplineSet
26 1046 m 1,0,-1
 128 1046 l 1,1,-1
 400 320 l 2,2,3
 414 284 414 284 441 201 c 128,-1,4
 468 118 468 118 484 80 c 1,5,-1
 488 80 l 1,6,7
 534 208 534 208 572 320 c 2,8,-1
 838 1046 l 1,9,-1
 942 1046 l 1,10,-1
 542 0 l 1,11,-1
 426 0 l 1,12,-1
 26 1046 l 1,0,-1
EndSplineSet
EndChar

StartChar: w
Encoding: 119 119 90
Width: 1400
GlyphClass: 2
Flags: W
LayerCount: 2
Fore
SplineSet
22 1046 m 1,0,-1
 126 1046 l 1,1,-1
 326 310 l 2,2,3
 332 282 332 282 351 204 c 128,-1,4
 370 126 370 126 380 84 c 1,5,-1
 386 84 l 1,6,7
 396 120 396 120 416 197 c 128,-1,8
 436 274 436 274 444 310 c 2,9,-1
 644 1046 l 1,10,-1
 760 1046 l 1,11,-1
 962 306 l 2,12,13
 968 282 968 282 990 206 c 128,-1,14
 1012 130 1012 130 1022 86 c 1,15,-1
 1026 86 l 1,16,17
 1036 132 1036 132 1056 212 c 128,-1,18
 1076 292 1076 292 1080 310 c 2,19,-1
 1278 1046 l 1,20,-1
 1382 1046 l 1,21,-1
 1082 0 l 1,22,-1
 962 0 l 1,23,-1
 764 714 l 2,24,25
 726 850 726 850 704 948 c 1,26,-1
 698 948 l 1,27,28
 692 920 692 920 680 872 c 128,-1,29
 668 824 668 824 659 785 c 128,-1,30
 650 746 650 746 640 714 c 2,31,-1
 442 0 l 1,32,-1
 322 0 l 1,33,-1
 22 1046 l 1,0,-1
EndSplineSet
Substitution2: "'sups' Superscript lookup 5 subtable" uni02B7
Substitution2: "'aalt' Access All Alternates lookup 0 subtable" uni02B7
EndChar

StartChar: x
Encoding: 120 120 91
Width: 892
GlyphClass: 2
Flags: W
LayerCount: 2
Fore
SplineSet
10 0 m 1,0,-1
 390 544 l 1,1,-1
 32 1046 l 1,2,-1
 142 1046 l 1,3,-1
 354 742 l 2,4,5
 376 714 376 714 405 670 c 128,-1,6
 434 626 434 626 444 612 c 1,7,-1
 448 612 l 1,8,9
 460 634 460 634 492 678 c 128,-1,10
 524 722 524 722 536 742 c 2,11,-1
 744 1046 l 1,12,-1
 856 1046 l 1,13,-1
 504 544 l 1,14,-1
 880 0 l 1,15,-1
 768 0 l 1,16,-1
 534 346 l 2,17,18
 510 380 510 380 448 476 c 1,19,-1
 444 476 l 1,20,21
 430 452 430 452 401 411 c 128,-1,22
 372 370 372 370 356 346 c 2,23,-1
 122 0 l 1,24,-1
 10 0 l 1,0,-1
EndSplineSet
Substitution2: "'sups' Superscript lookup 5 subtable" uni02E3
Substitution2: "'aalt' Access All Alternates lookup 0 subtable" uni02E3
EndChar

StartChar: y
Encoding: 121 121 92
Width: 950
GlyphClass: 2
Flags: W
LayerCount: 2
Fore
SplineSet
22 1046 m 1,0,-1
 130 1046 l 1,1,-1
 388 334 l 2,2,3
 404 286 404 286 434 198 c 128,-1,4
 464 110 464 110 478 74 c 1,5,-1
 484 74 l 1,6,7
 564 308 564 308 574 338 c 2,8,-1
 822 1046 l 1,9,-1
 928 1046 l 1,10,-1
 468 -202 l 2,11,12
 414 -352 414 -352 346 -416 c 128,-1,13
 278 -480 278 -480 184 -480 c 2,14,-1
 132 -480 l 1,15,-1
 132 -402 l 1,16,-1
 170 -402 l 2,17,18
 312 -402 312 -402 390 -178 c 2,19,-1
 434 -40 l 1,20,-1
 22 1046 l 1,0,-1
EndSplineSet
Substitution2: "'sups' Superscript lookup 5 subtable" uni02B8
Substitution2: "'aalt' Access All Alternates lookup 0 subtable" uni02B8
EndChar

StartChar: z
Encoding: 122 122 93
Width: 950
GlyphClass: 2
Flags: W
LayerCount: 2
Fore
SplineSet
80 0 m 1,0,-1
 80 66 l 1,1,-1
 736 966 l 1,2,-1
 132 966 l 1,3,-1
 132 1046 l 1,4,-1
 852 1046 l 1,5,-1
 852 982 l 1,6,-1
 196 78 l 1,7,-1
 872 78 l 1,8,-1
 872 0 l 1,9,-1
 80 0 l 1,0,-1
EndSplineSet
EndChar

StartChar: braceleft
Encoding: 123 123 94
Width: 928
GlyphClass: 2
Flags: W
LayerCount: 2
Fore
SplineSet
166 654 m 1,0,-1
 166 728 l 1,1,-1
 216 728 l 2,2,3
 390 728 390 728 390 1036 c 2,4,-1
 390 1436 l 2,5,6
 390 1550 390 1550 450 1612 c 128,-1,7
 510 1674 510 1674 596 1674 c 2,8,-1
 742 1674 l 1,9,-1
 742 1596 l 1,10,-1
 614 1596 l 2,11,12
 558 1596 558 1596 521 1549 c 128,-1,13
 484 1502 484 1502 484 1416 c 2,14,-1
 484 1018 l 2,15,16
 484 776 484 776 332 690 c 1,17,18
 398 660 398 660 441 583 c 128,-1,19
 484 506 484 506 484 384 c 2,20,-1
 484 4 l 2,21,22
 484 -94 484 -94 520 -143 c 128,-1,23
 556 -192 556 -192 618 -192 c 2,24,-1
 742 -192 l 1,25,-1
 742 -268 l 1,26,-1
 598 -268 l 2,27,28
 514 -268 514 -268 452 -207 c 128,-1,29
 390 -146 390 -146 390 -28 c 2,30,-1
 390 358 l 2,31,32
 390 504 390 504 344 579 c 128,-1,33
 298 654 298 654 216 654 c 2,34,-1
 166 654 l 1,0,-1
EndSplineSet
EndChar

StartChar: bar
Encoding: 124 124 95
Width: 494
GlyphClass: 2
Flags: W
LayerCount: 2
Fore
SplineSet
202 -336 m 1,0,-1
 202 1732 l 1,1,-1
 294 1732 l 1,2,-1
 294 -336 l 1,3,-1
 202 -336 l 1,0,-1
EndSplineSet
EndChar

StartChar: braceright
Encoding: 125 125 96
Width: 928
GlyphClass: 2
Flags: W
LayerCount: 2
Fore
SplineSet
186 -192 m 1,0,-1
 308 -192 l 2,1,2
 370 -192 370 -192 408 -143 c 128,-1,3
 446 -94 446 -94 446 4 c 2,4,-1
 446 392 l 2,5,6
 446 510 446 510 488 585 c 128,-1,7
 530 660 530 660 596 690 c 1,8,9
 446 774 446 774 446 1014 c 2,10,-1
 446 1416 l 2,11,12
 446 1502 446 1502 408 1549 c 128,-1,13
 370 1596 370 1596 312 1596 c 2,14,-1
 186 1596 l 1,15,-1
 186 1674 l 1,16,-1
 330 1674 l 2,17,18
 418 1674 418 1674 478 1612 c 128,-1,19
 538 1550 538 1550 538 1436 c 2,20,-1
 538 1036 l 2,21,22
 538 728 538 728 712 728 c 2,23,-1
 762 728 l 1,24,-1
 762 654 l 1,25,-1
 712 654 l 2,26,27
 628 654 628 654 583 577 c 128,-1,28
 538 500 538 500 538 366 c 2,29,-1
 538 -28 l 2,30,31
 538 -148 538 -148 476 -208 c 128,-1,32
 414 -268 414 -268 328 -268 c 2,33,-1
 186 -268 l 1,34,-1
 186 -192 l 1,0,-1
EndSplineSet
EndChar

StartChar: asciitilde
Encoding: 126 126 97
Width: 1488
GlyphClass: 2
Flags: W
LayerCount: 2
Fore
SplineSet
152 628 m 1,0,1
 282 874 282 874 500 874 c 0,2,3
 582 874 582 874 652 833 c 128,-1,4
 722 792 722 792 764 743 c 128,-1,5
 806 694 806 694 867 652 c 128,-1,6
 928 610 928 610 992 610 c 0,7,8
 1046 610 1046 610 1090 629 c 128,-1,9
 1134 648 1134 648 1169 690 c 128,-1,10
 1204 732 1204 732 1220 754 c 128,-1,11
 1236 776 1236 776 1264 828 c 1,12,-1
 1338 790 l 1,13,14
 1196 532 1196 532 994 532 c 0,15,16
 926 532 926 532 869 560 c 128,-1,17
 812 588 812 588 771 627 c 128,-1,18
 730 666 730 666 692 705 c 128,-1,19
 654 744 654 744 605 772 c 128,-1,20
 556 800 556 800 500 800 c 0,21,22
 342 800 342 800 228 588 c 1,23,-1
 152 628 l 1,0,1
EndSplineSet
EndChar

StartChar: exclamdown
Encoding: 161 161 99
Width: 630
GlyphClass: 2
Flags: W
LayerCount: 2
Fore
SplineSet
258 -432 m 1,0,-1
 274 620 l 1,1,-1
 358 620 l 1,2,-1
 372 -432 l 1,3,-1
 258 -432 l 1,0,-1
216 866 m 1,4,-1
 216 1054 l 1,5,-1
 414 1054 l 1,6,-1
 414 866 l 1,7,-1
 216 866 l 1,4,-1
EndSplineSet
EndChar

StartChar: cent
Encoding: 162 162 100
Width: 1006
GlyphClass: 2
Flags: W
LayerCount: 2
Fore
SplineSet
106 524 m 0,0,1
 106 754 106 754 217 912 c 128,-1,2
 328 1070 328 1070 526 1078 c 1,3,-1
 526 1238 l 1,4,-1
 614 1238 l 1,5,-1
 614 1076 l 1,6,7
 724 1060 724 1060 803 994 c 128,-1,8
 882 928 882 928 918 838 c 1,9,-1
 838 812 l 1,10,11
 804 892 804 892 729 948 c 128,-1,12
 654 1004 654 1004 562 1004 c 0,13,14
 398 1004 398 1004 299 869 c 128,-1,15
 200 734 200 734 200 524 c 0,16,17
 200 308 200 308 300 174 c 128,-1,18
 400 40 400 40 560 40 c 0,19,20
 658 40 658 40 743 101 c 128,-1,21
 828 162 828 162 866 244 c 1,22,-1
 944 216 l 1,23,24
 902 122 902 122 816 54 c 128,-1,25
 730 -14 730 -14 614 -32 c 1,26,-1
 614 -198 l 1,27,-1
 526 -198 l 1,28,-1
 526 -34 l 1,29,30
 340 -24 340 -24 223 128 c 128,-1,31
 106 280 106 280 106 524 c 0,0,1
EndSplineSet
EndChar

StartChar: sterling
Encoding: 163 163 101
Width: 1130
GlyphClass: 2
Flags: W
LayerCount: 2
Fore
SplineSet
78 690 m 1,0,-1
 78 770 l 1,1,-1
 306 770 l 1,2,-1
 306 1140 l 2,3,4
 306 1320 306 1320 408 1414 c 128,-1,5
 510 1508 510 1508 682 1508 c 0,6,7
 802 1508 802 1508 890 1450 c 128,-1,8
 978 1392 978 1392 1020 1310 c 1,9,-1
 956 1270 l 1,10,11
 860 1428 860 1428 686 1428 c 0,12,13
 554 1428 554 1428 477 1352 c 128,-1,14
 400 1276 400 1276 400 1132 c 2,15,-1
 400 770 l 1,16,-1
 874 770 l 1,17,-1
 874 690 l 1,18,-1
 400 690 l 1,19,-1
 400 408 l 2,20,21
 400 180 400 180 268 76 c 1,22,23
 408 108 408 108 496 108 c 0,24,25
 560 108 560 108 657 76 c 128,-1,26
 754 44 754 44 818 44 c 0,27,28
 966 44 966 44 1076 106 c 1,29,-1
 1108 28 l 1,30,31
 984 -36 984 -36 816 -36 c 0,32,33
 756 -36 756 -36 646 -5 c 128,-1,34
 536 26 536 26 474 26 c 0,35,36
 408 26 408 26 318 12 c 128,-1,37
 228 -2 228 -2 172 -14 c 2,38,-1
 114 -28 l 1,39,-1
 86 44 l 1,40,41
 196 82 196 82 251 184 c 128,-1,42
 306 286 306 286 306 406 c 2,43,-1
 306 690 l 1,44,-1
 78 690 l 1,0,-1
EndSplineSet
EndChar

StartChar: currency
Encoding: 164 164 102
Width: 1256
GlyphClass: 2
Flags: W
LayerCount: 2
Fore
SplineSet
72 276 m 1,0,-1
 292 480 l 1,1,2
 200 582 200 582 200 736 c 0,3,4
 200 886 200 886 290 990 c 1,5,-1
 72 1192 l 1,6,-1
 134 1254 l 1,7,-1
 350 1052 l 1,8,9
 476 1150 476 1150 630 1150 c 0,10,11
 792 1150 792 1150 912 1050 c 1,12,-1
 1124 1252 l 1,13,-1
 1186 1190 l 1,14,-1
 970 990 l 1,15,16
 1064 884 1064 884 1064 736 c 0,17,18
 1064 592 1064 592 968 480 c 1,19,-1
 1186 276 l 1,20,-1
 1126 216 l 1,21,-1
 910 416 l 1,22,23
 800 320 800 320 630 320 c 0,24,25
 464 320 464 320 348 416 c 1,26,-1
 134 218 l 1,27,-1
 72 276 l 1,0,-1
288 736 m 0,28,29
 288 598 288 598 385 500 c 128,-1,30
 482 402 482 402 630 402 c 256,31,32
 778 402 778 402 876 501 c 128,-1,33
 974 600 974 600 974 736 c 0,34,35
 974 874 974 874 875 971 c 128,-1,36
 776 1068 776 1068 630 1068 c 256,37,38
 484 1068 484 1068 386 972 c 128,-1,39
 288 876 288 876 288 736 c 0,28,29
EndSplineSet
EndChar

StartChar: yen
Encoding: 165 165 103
Width: 1134
GlyphClass: 2
Flags: W
LayerCount: 2
Fore
SplineSet
-6 1470 m 1,0,-1
 110 1470 l 1,1,-1
 426 976 l 2,2,3
 540 798 540 798 566 752 c 1,4,-1
 570 752 l 1,5,6
 590 782 590 782 638 857 c 128,-1,7
 686 932 686 932 710 972 c 2,8,-1
 1028 1470 l 1,9,-1
 1144 1470 l 1,10,-1
 670 742 l 1,11,-1
 1016 742 l 1,12,-1
 1016 670 l 1,13,-1
 618 670 l 1,14,-1
 618 450 l 1,15,-1
 1016 450 l 1,16,-1
 1016 380 l 1,17,-1
 618 380 l 1,18,-1
 618 0 l 1,19,-1
 522 0 l 1,20,-1
 522 380 l 1,21,-1
 118 380 l 1,22,-1
 118 450 l 1,23,-1
 522 450 l 1,24,-1
 522 670 l 1,25,-1
 118 670 l 1,26,-1
 118 742 l 1,27,-1
 468 742 l 1,28,-1
 -6 1470 l 1,0,-1
EndSplineSet
EndChar

StartChar: brokenbar
Encoding: 166 166 104
Width: 494
GlyphClass: 2
Flags: W
LayerCount: 2
Fore
SplineSet
202 936 m 1,0,-1
 202 1732 l 1,1,-1
 294 1732 l 1,2,-1
 294 936 l 1,3,-1
 202 936 l 1,0,-1
202 -334 m 1,4,-1
 202 458 l 1,5,-1
 294 458 l 1,6,-1
 294 -334 l 1,7,-1
 202 -334 l 1,4,-1
EndSplineSet
EndChar

StartChar: section
Encoding: 167 167 105
Width: 1142
GlyphClass: 2
Flags: W
LayerCount: 2
Fore
SplineSet
148 74 m 1,0,-1
 216 122 l 1,1,2
 260 48 260 48 344 7 c 128,-1,3
 428 -34 428 -34 532 -34 c 0,4,5
 666 -34 666 -34 738 15 c 128,-1,6
 810 64 810 64 810 146 c 0,7,8
 810 216 810 216 768 257 c 128,-1,9
 726 298 726 298 624 342 c 2,10,-1
 408 438 l 2,11,12
 288 492 288 492 229 555 c 128,-1,13
 170 618 170 618 170 712 c 0,14,15
 170 784 170 784 207 848 c 128,-1,16
 244 912 244 912 282 942 c 128,-1,17
 320 972 320 972 386 1016 c 1,18,19
 234 1126 234 1126 234 1244 c 0,20,21
 234 1366 234 1366 329 1437 c 128,-1,22
 424 1508 424 1508 608 1508 c 0,23,24
 730 1508 730 1508 832 1455 c 128,-1,25
 934 1402 934 1402 988 1312 c 1,26,-1
 924 1270 l 1,27,28
 804 1428 804 1428 606 1428 c 0,29,30
 460 1428 460 1428 394 1377 c 128,-1,31
 328 1326 328 1326 328 1246 c 0,32,33
 328 1198 328 1198 353 1158 c 128,-1,34
 378 1118 378 1118 430 1082 c 128,-1,35
 482 1046 482 1046 526 1021 c 128,-1,36
 570 996 570 996 644 962 c 0,37,38
 672 948 672 948 688 942 c 0,39,40
 848 862 848 862 918 799 c 128,-1,41
 988 736 988 736 988 636 c 0,42,43
 988 478 988 478 814 332 c 1,44,45
 906 258 906 258 906 146 c 0,46,47
 906 32 906 32 814 -41 c 128,-1,48
 722 -114 722 -114 534 -114 c 0,49,50
 402 -114 402 -114 303 -61 c 128,-1,51
 204 -8 204 -8 148 74 c 1,0,-1
266 720 m 0,52,53
 266 638 266 638 310 595 c 128,-1,54
 354 552 354 552 482 496 c 2,55,-1
 736 380 l 1,56,57
 892 502 892 502 892 636 c 0,58,59
 892 708 892 708 839 754 c 128,-1,60
 786 800 786 800 650 868 c 2,61,-1
 456 970 l 1,62,63
 408 936 408 936 383 917 c 128,-1,64
 358 898 358 898 326 865 c 128,-1,65
 294 832 294 832 280 797 c 128,-1,66
 266 762 266 762 266 720 c 0,52,53
EndSplineSet
EndChar

StartChar: dieresis
Encoding: 168 168 106
Width: 912
GlyphClass: 2
Flags: W
LayerCount: 2
Fore
SplineSet
210 1310 m 1,0,-1
 210 1470 l 1,1,-1
 370 1470 l 1,2,-1
 370 1310 l 1,3,-1
 210 1310 l 1,0,-1
544 1310 m 1,4,-1
 544 1470 l 1,5,-1
 704 1470 l 1,6,-1
 704 1310 l 1,7,-1
 544 1310 l 1,4,-1
EndSplineSet
EndChar

StartChar: copyright
Encoding: 169 169 107
Width: 1792
GlyphClass: 2
Flags: W
LayerCount: 2
Fore
SplineSet
190 748 m 0,0,1
 190 450 190 450 387 243 c 128,-1,2
 584 36 584 36 898 36 c 0,3,4
 1210 36 1210 36 1408 242 c 128,-1,5
 1606 448 1606 448 1606 748 c 256,6,7
 1606 1048 1606 1048 1406 1255 c 128,-1,8
 1206 1462 1206 1462 898 1462 c 0,9,10
 592 1462 592 1462 391 1258 c 128,-1,11
 190 1054 190 1054 190 748 c 0,0,1
116 748 m 256,12,13
 116 1084 116 1084 338 1307 c 128,-1,14
 560 1530 560 1530 898 1530 c 0,15,16
 1234 1530 1234 1530 1457 1308 c 128,-1,17
 1680 1086 1680 1086 1680 748 c 0,18,19
 1680 418 1680 418 1458 194 c 128,-1,20
 1236 -30 1236 -30 898 -30 c 256,21,22
 560 -30 560 -30 338 191 c 128,-1,23
 116 412 116 412 116 748 c 256,12,13
538 744 m 0,24,25
 538 954 538 954 642 1089 c 128,-1,26
 746 1224 746 1224 928 1224 c 0,27,28
 1024 1224 1024 1224 1104 1171 c 128,-1,29
 1184 1118 1184 1118 1234 1014 c 1,30,-1
 1154 984 l 1,31,32
 1076 1146 1076 1146 926 1146 c 0,33,34
 790 1146 790 1146 709 1035 c 128,-1,35
 628 924 628 924 628 744 c 0,36,37
 628 560 628 560 710 451 c 128,-1,38
 792 342 792 342 926 342 c 0,39,40
 1012 342 1012 342 1077 392 c 128,-1,41
 1142 442 1142 442 1176 516 c 1,42,-1
 1258 486 l 1,43,44
 1216 394 1216 394 1129 330 c 128,-1,45
 1042 266 1042 266 926 266 c 0,46,47
 754 266 754 266 646 395 c 128,-1,48
 538 524 538 524 538 744 c 0,24,25
EndSplineSet
EndChar

StartChar: ordfeminine
Encoding: 170 170 108
Width: 776
GlyphClass: 2
Flags: W
LayerCount: 2
Fore
SplineSet
76 682 m 1,0,-1
 76 752 l 1,1,-1
 704 752 l 1,2,-1
 704 682 l 1,3,-1
 76 682 l 1,0,-1
146 1096 m 0,4,5
 146 1042 146 1042 194 1002 c 128,-1,6
 242 962 242 962 328 962 c 0,7,8
 432 962 432 962 510 1030 c 128,-1,9
 588 1098 588 1098 588 1204 c 2,10,-1
 588 1324 l 1,11,12
 542 1306 542 1306 451 1291 c 128,-1,13
 360 1276 360 1276 301 1263 c 128,-1,14
 242 1250 242 1250 194 1208 c 128,-1,15
 146 1166 146 1166 146 1096 c 0,4,5
70 1092 m 0,16,17
 70 1168 70 1168 106 1219 c 128,-1,18
 142 1270 142 1270 206 1295 c 128,-1,19
 270 1320 270 1320 333 1333 c 128,-1,20
 396 1346 396 1346 471 1359 c 128,-1,21
 546 1372 546 1372 588 1388 c 1,22,-1
 588 1424 l 2,23,24
 588 1502 588 1502 533 1553 c 128,-1,25
 478 1604 478 1604 380 1604 c 0,26,27
 298 1604 298 1604 236 1563 c 128,-1,28
 174 1522 174 1522 150 1486 c 1,29,-1
 96 1526 l 1,30,31
 134 1582 134 1582 212 1626 c 128,-1,32
 290 1670 290 1670 380 1670 c 0,33,34
 524 1670 524 1670 593 1598 c 128,-1,35
 662 1526 662 1526 662 1404 c 2,36,-1
 662 920 l 1,37,-1
 590 920 l 1,38,-1
 590 1038 l 1,39,40
 554 976 554 976 483 936 c 128,-1,41
 412 896 412 896 322 896 c 0,42,43
 206 896 206 896 138 952 c 128,-1,44
 70 1008 70 1008 70 1092 c 0,16,17
EndSplineSet
EndChar

StartChar: guillemotleft
Encoding: 171 171 109
Width: 858
GlyphClass: 2
Flags: W
LayerCount: 2
Fore
SplineSet
74 502 m 1,0,-1
 390 944 l 1,1,-1
 458 900 l 1,2,-1
 176 502 l 1,3,-1
 456 104 l 1,4,-1
 388 58 l 1,5,-1
 74 502 l 1,0,-1
400 502 m 1,6,-1
 718 938 l 1,7,-1
 782 888 l 1,8,-1
 502 502 l 1,9,-1
 780 110 l 1,10,-1
 716 64 l 1,11,-1
 400 502 l 1,6,-1
EndSplineSet
EndChar

StartChar: logicalnot
Encoding: 172 172 110
Width: 1086
GlyphClass: 2
Flags: W
LayerCount: 2
Fore
SplineSet
104 662 m 1,0,-1
 104 742 l 1,1,-1
 986 742 l 1,2,-1
 986 254 l 1,3,-1
 896 254 l 1,4,-1
 896 662 l 1,5,-1
 104 662 l 1,0,-1
EndSplineSet
EndChar

StartChar: uni00AD
Encoding: 173 173 111
Width: 1124
GlyphClass: 2
Flags: W
LayerCount: 2
Fore
SplineSet
128 686 m 1,0,-1
 128 766 l 1,1,-1
 994 766 l 1,2,-1
 994 686 l 1,3,-1
 128 686 l 1,0,-1
EndSplineSet
EndChar

StartChar: registered
Encoding: 174 174 112
Width: 1792
GlyphClass: 2
Flags: W
LayerCount: 2
Fore
SplineSet
640 294 m 1,0,-1
 640 1194 l 1,1,-1
 966 1194 l 2,2,3
 1090 1194 1090 1194 1162 1123 c 128,-1,4
 1234 1052 1234 1052 1234 948 c 0,5,6
 1234 782 1234 782 1080 724 c 1,7,8
 1152 678 1152 678 1182 556 c 0,9,10
 1232 362 1232 362 1270 294 c 1,11,-1
 1170 294 l 1,12,13
 1140 350 1140 350 1094 538 c 0,14,15
 1076 614 1076 614 1046 654 c 128,-1,16
 1016 694 1016 694 950 694 c 2,17,-1
 728 694 l 1,18,-1
 728 294 l 1,19,-1
 640 294 l 1,0,-1
728 766 m 1,20,-1
 954 766 l 2,21,22
 1042 766 1042 766 1093 814 c 128,-1,23
 1144 862 1144 862 1144 942 c 0,24,25
 1144 1018 1144 1018 1097 1068 c 128,-1,26
 1050 1118 1050 1118 954 1118 c 2,27,-1
 728 1118 l 1,28,-1
 728 766 l 1,20,-1
116 748 m 256,29,30
 116 1084 116 1084 338 1307 c 128,-1,31
 560 1530 560 1530 898 1530 c 256,32,33
 1236 1530 1236 1530 1458 1309 c 128,-1,34
 1680 1088 1680 1088 1680 748 c 0,35,36
 1680 418 1680 418 1460 194 c 128,-1,37
 1240 -30 1240 -30 898 -30 c 0,38,39
 560 -30 560 -30 338 191 c 128,-1,40
 116 412 116 412 116 748 c 256,29,30
190 748 m 0,41,42
 190 450 190 450 387 243 c 128,-1,43
 584 36 584 36 898 36 c 0,44,45
 1210 36 1210 36 1408 244 c 128,-1,46
 1606 452 1606 452 1606 748 c 0,47,48
 1606 1048 1606 1048 1406 1255 c 128,-1,49
 1206 1462 1206 1462 898 1462 c 0,50,51
 592 1462 592 1462 391 1258 c 128,-1,52
 190 1054 190 1054 190 748 c 0,41,42
EndSplineSet
EndChar

StartChar: macron
Encoding: 175 175 113
Width: 1038
GlyphClass: 2
Flags: W
LayerCount: 2
Fore
SplineSet
0 1556 m 1,0,-1
 0 1638 l 1,1,-1
 1040 1638 l 1,2,-1
 1040 1556 l 1,3,-1
 0 1556 l 1,0,-1
EndSplineSet
EndChar

StartChar: degree
Encoding: 176 176 114
Width: 832
GlyphClass: 2
Flags: W
LayerCount: 2
Fore
SplineSet
178 1256 m 0,0,1
 178 1348 178 1348 246 1417 c 128,-1,2
 314 1486 314 1486 418 1486 c 0,3,4
 518 1486 518 1486 587 1421 c 128,-1,5
 656 1356 656 1356 656 1256 c 256,6,7
 656 1156 656 1156 587 1091 c 128,-1,8
 518 1026 518 1026 418 1026 c 0,9,10
 316 1026 316 1026 247 1092 c 128,-1,11
 178 1158 178 1158 178 1256 c 0,0,1
244 1256 m 0,12,13
 244 1180 244 1180 294 1133 c 128,-1,14
 344 1086 344 1086 418 1086 c 0,15,16
 488 1086 488 1086 538 1134 c 128,-1,17
 588 1182 588 1182 588 1256 c 0,18,19
 588 1326 588 1326 541 1375 c 128,-1,20
 494 1424 494 1424 418 1424 c 0,21,22
 338 1424 338 1424 291 1374 c 128,-1,23
 244 1324 244 1324 244 1256 c 0,12,13
EndSplineSet
EndChar

StartChar: plusminus
Encoding: 177 177 115
Width: 1124
GlyphClass: 2
Flags: W
LayerCount: 2
Fore
SplineSet
92 818 m 1,0,-1
 92 900 l 1,1,-1
 518 900 l 1,2,-1
 518 1290 l 1,3,-1
 608 1290 l 1,4,-1
 608 900 l 1,5,-1
 1032 900 l 1,6,-1
 1032 818 l 1,7,-1
 608 818 l 1,8,-1
 608 428 l 1,9,-1
 518 428 l 1,10,-1
 518 818 l 1,11,-1
 92 818 l 1,0,-1
98 180 m 1,12,-1
 98 258 l 1,13,-1
 1030 258 l 1,14,-1
 1030 180 l 1,15,-1
 98 180 l 1,12,-1
EndSplineSet
EndChar

StartChar: twosuperior
Encoding: 178 178 116
Width: 632
GlyphClass: 2
Flags: W
LayerCount: 2
Fore
SplineSet
66 1460 m 1,0,1
 118 1668 118 1668 318 1668 c 0,2,3
 422 1668 422 1668 487 1608 c 128,-1,4
 552 1548 552 1548 552 1442 c 0,5,6
 552 1316 552 1316 416 1186 c 0,7,8
 236 1016 236 1016 198 962 c 0,9,10
 172 924 172 924 156 888 c 1,11,-1
 552 888 l 1,12,-1
 552 826 l 1,13,-1
 70 826 l 1,14,15
 70 882 70 882 111 952 c 128,-1,16
 152 1022 152 1022 192 1064 c 128,-1,17
 232 1106 232 1106 342 1212 c 0,18,19
 358 1230 358 1230 370 1238 c 0,20,21
 480 1346 480 1346 480 1442 c 0,22,23
 480 1518 480 1518 436 1560 c 128,-1,24
 392 1602 392 1602 316 1602 c 0,25,26
 182 1602 182 1602 130 1444 c 1,27,-1
 66 1460 l 1,0,1
EndSplineSet
EndChar

StartChar: threesuperior
Encoding: 179 179 117
Width: 632
GlyphClass: 2
Flags: W
LayerCount: 2
Fore
SplineSet
48 962 m 1,0,-1
 110 992 l 1,1,2
 180 870 180 870 302 870 c 0,3,4
 386 870 386 870 441 917 c 128,-1,5
 496 964 496 964 496 1056 c 0,6,7
 496 1132 496 1132 444 1181 c 128,-1,8
 392 1230 392 1230 282 1230 c 0,9,10
 242 1230 242 1230 224 1228 c 1,11,-1
 224 1294 l 1,12,13
 244 1292 244 1292 278 1292 c 0,14,15
 376 1292 376 1292 420 1339 c 128,-1,16
 464 1386 464 1386 464 1454 c 0,17,18
 464 1518 464 1518 420 1561 c 128,-1,19
 376 1604 376 1604 302 1604 c 0,20,21
 196 1604 196 1604 134 1476 c 1,22,-1
 74 1498 l 1,23,24
 140 1668 140 1668 304 1668 c 0,25,26
 410 1668 410 1668 473 1608 c 128,-1,27
 536 1548 536 1548 536 1458 c 0,28,29
 536 1324 536 1324 418 1266 c 1,30,31
 570 1214 570 1214 570 1056 c 0,32,33
 570 938 570 938 495 872 c 128,-1,34
 420 806 420 806 302 806 c 0,35,36
 126 806 126 806 48 962 c 1,0,-1
EndSplineSet
EndChar

StartChar: acute
Encoding: 180 180 118
Width: 658
GlyphClass: 2
Flags: W
LayerCount: 2
Fore
SplineSet
168 1318 m 1,0,-1
 396 1664 l 1,1,-1
 536 1664 l 1,2,-1
 256 1318 l 1,3,-1
 168 1318 l 1,0,-1
EndSplineSet
EndChar

StartChar: uni00B5
Encoding: 181 181 119
Width: 1174
GlyphClass: 2
Flags: W
LayerCount: 2
Fore
SplineSet
194 -480 m 1,0,-1
 194 1046 l 1,1,-1
 288 1046 l 1,2,-1
 288 382 l 2,3,4
 288 232 288 232 353 136 c 128,-1,5
 418 40 418 40 556 40 c 0,6,7
 720 40 720 40 810 161 c 128,-1,8
 900 282 900 282 900 444 c 2,9,-1
 900 1046 l 1,10,-1
 990 1046 l 1,11,-1
 990 0 l 1,12,-1
 904 0 l 1,13,-1
 904 206 l 1,14,-1
 900 206 l 1,15,16
 872 110 872 110 779 37 c 128,-1,17
 686 -36 686 -36 540 -36 c 0,18,19
 362 -36 362 -36 288 112 c 1,20,-1
 288 -480 l 1,21,-1
 194 -480 l 1,0,-1
EndSplineSet
EndChar

StartChar: paragraph
Encoding: 182 182 120
Width: 1278
GlyphClass: 2
Flags: W
LayerCount: 2
Fore
SplineSet
138 1098 m 0,0,1
 138 1302 138 1302 241 1425 c 128,-1,2
 344 1548 344 1548 536 1548 c 2,3,-1
 1080 1548 l 1,4,-1
 1080 -140 l 1,5,-1
 1002 -140 l 1,6,-1
 1002 1460 l 1,7,-1
 750 1460 l 1,8,-1
 750 -140 l 1,9,-1
 668 -140 l 1,10,-1
 668 674 l 1,11,12
 590 648 590 648 512 648 c 0,13,14
 352 648 352 648 245 767 c 128,-1,15
 138 886 138 886 138 1098 c 0,0,1
EndSplineSet
EndChar

StartChar: periodcentered
Encoding: 183 183 121
Width: 682
GlyphClass: 2
Flags: W
LayerCount: 2
Fore
SplineSet
244 608 m 1,0,-1
 244 800 l 1,1,-1
 442 800 l 1,2,-1
 442 608 l 1,3,-1
 244 608 l 1,0,-1
EndSplineSet
EndChar

StartChar: cedilla
Encoding: 184 184 122
Width: 584
GlyphClass: 2
Flags: W
LayerCount: 2
Fore
SplineSet
96 -374 m 1,0,1
 184 -394 184 -394 226 -394 c 0,2,3
 386 -394 386 -394 386 -290 c 0,4,5
 386 -194 386 -194 184 -172 c 1,6,-1
 266 -10 l 1,7,-1
 348 -10 l 1,8,-1
 294 -122 l 1,9,10
 474 -156 474 -156 474 -290 c 0,11,12
 474 -372 474 -372 412 -418 c 128,-1,13
 350 -464 350 -464 230 -464 c 0,14,15
 170 -464 170 -464 96 -442 c 1,16,-1
 96 -374 l 1,0,1
EndSplineSet
EndChar

StartChar: onesuperior
Encoding: 185 185 123
Width: 632
GlyphClass: 2
Flags: W
LayerCount: 2
Fore
SplineSet
124 1478 m 1,0,-1
 124 1538 l 1,1,-1
 176 1538 l 2,2,3
 252 1538 252 1538 280 1555 c 128,-1,4
 308 1572 308 1572 308 1614 c 2,5,-1
 308 1664 l 1,6,-1
 374 1664 l 1,7,-1
 374 818 l 1,8,-1
 298 818 l 1,9,-1
 298 1478 l 1,10,-1
 124 1478 l 1,0,-1
EndSplineSet
EndChar

StartChar: ordmasculine
Encoding: 186 186 124
Width: 776
GlyphClass: 2
Flags: W
LayerCount: 2
Fore
SplineSet
146 1282 m 0,0,1
 146 1140 146 1140 214 1051 c 128,-1,2
 282 962 282 962 388 962 c 256,3,4
 494 962 494 962 562 1052 c 128,-1,5
 630 1142 630 1142 630 1282 c 0,6,7
 630 1428 630 1428 561 1515 c 128,-1,8
 492 1602 492 1602 388 1602 c 256,9,10
 284 1602 284 1602 215 1515 c 128,-1,11
 146 1428 146 1428 146 1282 c 0,0,1
72 1282 m 0,12,13
 72 1450 72 1450 155 1560 c 128,-1,14
 238 1670 238 1670 388 1670 c 0,15,16
 532 1670 532 1670 620 1560 c 128,-1,17
 708 1450 708 1450 708 1282 c 0,18,19
 708 1124 708 1124 625 1010 c 128,-1,20
 542 896 542 896 388 896 c 0,21,22
 232 896 232 896 152 1010 c 128,-1,23
 72 1124 72 1124 72 1282 c 0,12,13
76 682 m 1,24,-1
 76 752 l 1,25,-1
 704 752 l 1,26,-1
 704 682 l 1,27,-1
 76 682 l 1,24,-1
EndSplineSet
EndChar

StartChar: guillemotright
Encoding: 187 187 125
Width: 856
GlyphClass: 2
Flags: W
LayerCount: 2
Fore
SplineSet
76 888 m 1,0,-1
 142 938 l 1,1,-1
 458 502 l 1,2,-1
 144 64 l 1,3,-1
 78 110 l 1,4,-1
 356 502 l 1,5,-1
 76 888 l 1,0,-1
402 104 m 1,6,-1
 682 502 l 1,7,-1
 400 900 l 1,8,-1
 468 944 l 1,9,-1
 784 502 l 1,10,-1
 474 58 l 1,11,-1
 402 104 l 1,6,-1
EndSplineSet
EndChar

StartChar: onequarter
Encoding: 188 188 126
Width: 1930
GlyphClass: 3
Flags: W
LayerCount: 2
Fore
SplineSet
1176 234 m 1,0,-1
 1522 234 l 1,1,-1
 1522 766 l 1,2,-1
 1462 668 l 1,3,-1
 1176 234 l 1,0,-1
182 1380 m 1,4,-1
 182 1454 l 1,5,-1
 238 1454 l 2,6,7
 332 1454 332 1454 362 1471 c 128,-1,8
 392 1488 392 1488 392 1542 c 2,9,-1
 392 1598 l 1,10,-1
 466 1598 l 1,11,-1
 466 610 l 1,12,-1
 382 610 l 1,13,-1
 382 1380 l 1,14,-1
 182 1380 l 1,4,-1
322 -102 m 1,15,-1
 1302 1570 l 1,16,-1
 1396 1570 l 1,17,-1
 418 -102 l 1,18,-1
 322 -102 l 1,15,-1
1080 224 m 1,19,-1
 1528 908 l 1,20,-1
 1608 908 l 1,21,-1
 1608 234 l 1,22,-1
 1758 234 l 1,23,-1
 1758 160 l 1,24,-1
 1608 160 l 1,25,-1
 1608 -84 l 1,26,-1
 1522 -84 l 1,27,-1
 1522 160 l 1,28,-1
 1080 160 l 1,29,-1
 1080 224 l 1,19,-1
EndSplineSet
Ligature2: "'frac' Diagonal Fractions lookup 7 subtable" one fraction four
Ligature2: "'frac' Diagonal Fractions lookup 7 subtable" one slash four
EndChar

StartChar: onehalf
Encoding: 189 189 127
Width: 1930
GlyphClass: 3
Flags: W
LayerCount: 2
Fore
SplineSet
1142 666 m 1,0,1
 1214 910 1214 910 1438 910 c 0,2,3
 1558 910 1558 910 1635 839 c 128,-1,4
 1712 768 1712 768 1712 644 c 0,5,6
 1712 502 1712 502 1562 356 c 0,7,8
 1402 208 1402 208 1337 136 c 128,-1,9
 1272 64 1272 64 1250 0 c 1,10,-1
 1712 0 l 1,11,-1
 1712 -76 l 1,12,-1
 1148 -76 l 1,13,14
 1148 22 1148 22 1219 116 c 128,-1,15
 1290 210 1290 210 1494 402 c 0,16,17
 1624 524 1624 524 1624 644 c 0,18,19
 1624 736 1624 736 1572 784 c 128,-1,20
 1520 832 1520 832 1434 832 c 256,21,22
 1348 832 1348 832 1295 778 c 128,-1,23
 1242 724 1242 724 1222 644 c 1,24,-1
 1142 666 l 1,0,1
182 1380 m 1,25,-1
 182 1454 l 1,26,-1
 238 1454 l 2,27,28
 332 1454 332 1454 362 1471 c 128,-1,29
 392 1488 392 1488 392 1542 c 2,30,-1
 392 1598 l 1,31,-1
 466 1598 l 1,32,-1
 466 610 l 1,33,-1
 382 610 l 1,34,-1
 382 1380 l 1,35,-1
 182 1380 l 1,25,-1
290 -102 m 1,36,-1
 1292 1568 l 1,37,-1
 1386 1568 l 1,38,-1
 386 -102 l 1,39,-1
 290 -102 l 1,36,-1
EndSplineSet
Ligature2: "'frac' Diagonal Fractions lookup 7 subtable" one fraction two
Ligature2: "'frac' Diagonal Fractions lookup 7 subtable" one slash two
EndChar

StartChar: threequarters
Encoding: 190 190 128
Width: 1930
GlyphClass: 3
Flags: W
LayerCount: 2
Fore
SplineSet
1196 234 m 1,0,-1
 1544 234 l 1,1,-1
 1544 766 l 1,2,-1
 1484 668 l 1,3,-1
 1196 234 l 1,0,-1
452 -102 m 1,4,-1
 1454 1568 l 1,5,-1
 1548 1568 l 1,6,-1
 548 -102 l 1,7,-1
 452 -102 l 1,4,-1
1100 224 m 1,8,-1
 1548 908 l 1,9,-1
 1630 908 l 1,10,-1
 1630 234 l 1,11,-1
 1778 234 l 1,12,-1
 1778 160 l 1,13,-1
 1630 160 l 1,14,-1
 1630 -84 l 1,15,-1
 1544 -84 l 1,16,-1
 1544 160 l 1,17,-1
 1100 160 l 1,18,-1
 1100 224 l 1,8,-1
130 794 m 1,19,-1
 204 826 l 1,20,21
 286 686 286 686 428 686 c 0,22,23
 524 686 524 686 589 740 c 128,-1,24
 654 794 654 794 654 900 c 0,25,26
 654 1000 654 1000 585 1051 c 128,-1,27
 516 1102 516 1102 416 1102 c 0,28,29
 378 1102 378 1102 336 1098 c 1,30,-1
 336 1180 l 1,31,32
 370 1176 370 1176 410 1176 c 0,33,34
 500 1176 500 1176 558 1227 c 128,-1,35
 616 1278 616 1278 616 1364 c 0,36,37
 616 1442 616 1442 564 1491 c 128,-1,38
 512 1540 512 1540 428 1540 c 0,39,40
 304 1540 304 1540 232 1390 c 1,41,-1
 156 1416 l 1,42,43
 240 1616 240 1616 430 1616 c 0,44,45
 556 1616 556 1616 629 1545 c 128,-1,46
 702 1474 702 1474 702 1368 c 0,47,48
 702 1214 702 1214 562 1146 c 1,49,50
 638 1120 638 1120 689 1058 c 128,-1,51
 740 996 740 996 740 900 c 0,52,53
 740 760 740 760 653 684 c 128,-1,54
 566 608 566 608 428 608 c 0,55,56
 328 608 328 608 250 659 c 128,-1,57
 172 710 172 710 130 794 c 1,19,-1
EndSplineSet
Ligature2: "'frac' Diagonal Fractions lookup 7 subtable" three fraction four
Ligature2: "'frac' Diagonal Fractions lookup 7 subtable" three slash four
EndChar

StartChar: questiondown
Encoding: 191 191 129
Width: 1086
GlyphClass: 2
Flags: W
LayerCount: 2
Fore
SplineSet
154 -82 m 0,0,1
 154 10 154 10 192 83 c 128,-1,2
 230 156 230 156 284 207 c 128,-1,3
 338 258 338 258 391 309 c 128,-1,4
 444 360 444 360 482 435 c 128,-1,5
 520 510 520 510 520 602 c 2,6,-1
 520 638 l 1,7,-1
 614 638 l 1,8,-1
 614 598 l 2,9,10
 614 496 614 496 576 416 c 128,-1,11
 538 336 538 336 485 284 c 128,-1,12
 432 232 432 232 379 183 c 128,-1,13
 326 134 326 134 288 67 c 128,-1,14
 250 0 250 0 250 -82 c 0,15,16
 250 -220 250 -220 327 -304 c 128,-1,17
 404 -388 404 -388 540 -388 c 0,18,19
 752 -388 752 -388 864 -142 c 1,20,-1
 946 -174 l 1,21,22
 888 -314 888 -314 781 -391 c 128,-1,23
 674 -468 674 -468 542 -468 c 0,24,25
 362 -468 362 -468 258 -362 c 128,-1,26
 154 -256 154 -256 154 -82 c 0,0,1
466 868 m 1,27,-1
 466 1054 l 1,28,-1
 664 1054 l 1,29,-1
 664 868 l 1,30,-1
 466 868 l 1,27,-1
EndSplineSet
EndChar

StartChar: AE
Encoding: 198 198 136
Width: 1846
GlyphClass: 2
Flags: W
LayerCount: 2
Fore
SplineSet
440 542 m 1,0,-1
 974 542 l 1,1,-1
 974 1384 l 1,2,-1
 956 1384 l 1,3,-1
 440 542 l 1,0,-1
2 0 m 1,4,-1
 908 1470 l 1,5,-1
 1752 1470 l 1,6,-1
 1752 1388 l 1,7,-1
 1068 1388 l 1,8,-1
 1068 804 l 1,9,-1
 1678 804 l 1,10,-1
 1678 724 l 1,11,-1
 1064 724 l 1,12,-1
 1064 82 l 1,13,-1
 1762 82 l 1,14,-1
 1762 0 l 1,15,-1
 974 0 l 1,16,-1
 974 464 l 1,17,-1
 394 464 l 1,18,-1
 108 0 l 1,19,-1
 2 0 l 1,4,-1
EndSplineSet
EndChar

StartChar: multiply
Encoding: 215 215 153
Width: 1124
GlyphClass: 2
Flags: W
LayerCount: 2
Fore
SplineSet
98 348 m 1,0,-1
 506 722 l 1,1,-1
 104 1094 l 1,2,-1
 164 1156 l 1,3,-1
 562 774 l 1,4,-1
 962 1156 l 1,5,-1
 1022 1096 l 1,6,-1
 622 722 l 1,7,-1
 1028 346 l 1,8,-1
 968 290 l 1,9,-1
 562 666 l 1,10,-1
 156 290 l 1,11,-1
 98 348 l 1,0,-1
EndSplineSet
EndChar

StartChar: Oslash
Encoding: 216 216 154
Width: 1410
GlyphClass: 2
Flags: W
LayerCount: 2
Fore
SplineSet
972 1338 m 1,0,1
 860 1426 860 1426 708 1426 c 0,2,3
 482 1426 482 1426 350 1239 c 128,-1,4
 218 1052 218 1052 218 734 c 0,5,6
 218 334 218 334 418 156 c 1,7,-1
 972 1338 l 1,0,1
1032 1274 m 1,8,-1
 484 106 l 1,9,10
 584 44 584 44 708 44 c 0,11,12
 936 44 936 44 1065 233 c 128,-1,13
 1194 422 1194 422 1194 734 c 0,14,15
 1194 1092 1194 1092 1032 1274 c 1,8,-1
120 734 m 0,16,17
 120 1082 120 1082 278 1295 c 128,-1,18
 436 1508 436 1508 708 1508 c 0,19,20
 880 1508 880 1508 1012 1416 c 1,21,-1
 1098 1594 l 1,22,-1
 1190 1594 l 1,23,-1
 1074 1364 l 1,24,25
 1292 1152 1292 1152 1292 734 c 0,26,27
 1292 388 1292 388 1135 176 c 128,-1,28
 978 -36 978 -36 708 -36 c 0,29,30
 558 -36 558 -36 442 28 c 1,31,-1
 350 -154 l 1,32,-1
 260 -154 l 1,33,-1
 378 76 l 1,34,35
 120 276 120 276 120 734 c 0,16,17
EndSplineSet
EndChar

StartChar: Thorn
Encoding: 222 222 160
Width: 1236
GlyphClass: 2
Flags: W
LayerCount: 2
Fore
SplineSet
238 0 m 1,0,-1
 238 1472 l 1,1,-1
 332 1472 l 1,2,-1
 332 1206 l 1,3,-1
 636 1206 l 2,4,5
 888 1206 888 1206 1013 1087 c 128,-1,6
 1138 968 1138 968 1138 758 c 0,7,8
 1138 526 1138 526 993 415 c 128,-1,9
 848 304 848 304 602 304 c 2,10,-1
 332 304 l 1,11,-1
 332 0 l 1,12,-1
 238 0 l 1,0,-1
332 384 m 1,13,-1
 592 384 l 2,14,15
 1042 384 1042 384 1042 756 c 0,16,17
 1042 1126 1042 1126 624 1126 c 2,18,-1
 332 1126 l 1,19,-1
 332 384 l 1,13,-1
EndSplineSet
EndChar

StartChar: germandbls
Encoding: 223 223 161
Width: 1334
GlyphClass: 2
Flags: W
LayerCount: 2
Fore
SplineSet
238 0 m 1,0,-1
 238 1132 l 2,1,2
 238 1310 238 1310 359 1409 c 128,-1,3
 480 1508 480 1508 664 1508 c 0,4,5
 850 1508 850 1508 970 1401 c 128,-1,6
 1090 1294 1090 1294 1090 1120 c 0,7,8
 1090 986 1090 986 1036 899 c 128,-1,9
 982 812 982 812 908 770 c 1,10,-1
 908 766 l 1,11,12
 960 754 960 754 1010 727 c 128,-1,13
 1060 700 1060 700 1110 654 c 128,-1,14
 1160 608 1160 608 1191 531 c 128,-1,15
 1222 454 1222 454 1222 360 c 0,16,17
 1222 192 1222 192 1111 78 c 128,-1,18
 1000 -36 1000 -36 808 -36 c 0,19,20
 648 -36 648 -36 506 8 c 1,21,-1
 520 92 l 1,22,23
 650 44 650 44 806 44 c 0,24,25
 938 44 938 44 1031 132 c 128,-1,26
 1124 220 1124 220 1124 360 c 0,27,28
 1124 536 1124 536 1016 626 c 128,-1,29
 908 716 908 716 756 716 c 2,30,-1
 634 716 l 1,31,-1
 634 796 l 1,32,-1
 744 796 l 2,33,34
 854 796 854 796 923 886 c 128,-1,35
 992 976 992 976 992 1112 c 256,36,37
 992 1248 992 1248 904 1337 c 128,-1,38
 816 1426 816 1426 664 1426 c 0,39,40
 514 1426 514 1426 423 1345 c 128,-1,41
 332 1264 332 1264 332 1124 c 2,42,-1
 332 0 l 1,43,-1
 238 0 l 1,0,-1
EndSplineSet
EndChar

StartChar: ae
Encoding: 230 230 168
Width: 1858
GlyphClass: 2
Flags: W
LayerCount: 2
Fore
SplineSet
98 244 m 0,0,1
 98 384 98 384 200 473 c 128,-1,2
 302 562 302 562 534 598 c 0,3,4
 776 634 776 634 858 670 c 1,5,6
 858 680 858 680 857 700 c 128,-1,7
 856 720 856 720 856 726 c 0,8,9
 856 846 856 846 776 926 c 128,-1,10
 696 1006 696 1006 548 1006 c 0,11,12
 338 1006 338 1006 204 834 c 1,13,-1
 140 880 l 1,14,15
 206 968 206 968 313 1024 c 128,-1,16
 420 1080 420 1080 548 1080 c 0,17,18
 712 1080 712 1080 806 1005 c 128,-1,19
 900 930 900 930 924 810 c 1,20,21
 974 934 974 934 1076 1007 c 128,-1,22
 1178 1080 1178 1080 1312 1080 c 0,23,24
 1512 1080 1512 1080 1635 926 c 128,-1,25
 1758 772 1758 772 1758 556 c 2,26,-1
 1758 494 l 1,27,-1
 950 494 l 1,28,-1
 950 444 l 1,29,30
 964 276 964 276 1060 158 c 128,-1,31
 1156 40 1156 40 1318 40 c 0,32,33
 1434 40 1434 40 1518 96 c 128,-1,34
 1602 152 1602 152 1650 236 c 1,35,-1
 1728 208 l 1,36,37
 1600 -36 1600 -36 1316 -36 c 0,38,39
 1164 -36 1164 -36 1059 48 c 128,-1,40
 954 132 954 132 906 276 c 1,41,42
 862 140 862 140 743 52 c 128,-1,43
 624 -36 624 -36 458 -36 c 0,44,45
 294 -36 294 -36 196 41 c 128,-1,46
 98 118 98 118 98 244 c 0,0,1
192 250 m 0,47,48
 192 166 192 166 263 103 c 128,-1,49
 334 40 334 40 464 40 c 0,50,51
 624 40 624 40 740 143 c 128,-1,52
 856 246 856 246 856 408 c 2,53,-1
 856 596 l 1,54,55
 752 556 752 556 538 526 c 0,56,57
 358 500 358 500 275 431 c 128,-1,58
 192 362 192 362 192 250 c 0,47,48
950 566 m 1,59,-1
 1666 566 l 1,60,61
 1666 746 1666 746 1567 875 c 128,-1,62
 1468 1004 1468 1004 1312 1004 c 0,63,64
 1160 1004 1160 1004 1064 886 c 128,-1,65
 968 768 968 768 952 606 c 2,66,-1
 950 566 l 1,59,-1
EndSplineSet
EndChar

StartChar: eth
Encoding: 240 240 178
Width: 1130
GlyphClass: 2
Flags: W
LayerCount: 2
Fore
SplineSet
106 482 m 0,0,1
 106 720 106 720 232 857 c 128,-1,2
 358 994 358 994 564 994 c 0,3,4
 698 994 698 994 786 932 c 128,-1,5
 874 870 874 870 914 776 c 1,6,7
 862 1128 862 1128 674 1302 c 1,8,-1
 392 1096 l 1,9,-1
 336 1156 l 1,10,-1
 608 1354 l 1,11,12
 490 1432 490 1432 332 1456 c 1,13,-1
 360 1530 l 1,14,15
 546 1500 546 1500 682 1406 c 1,16,-1
 886 1556 l 1,17,-1
 938 1494 l 1,18,-1
 746 1354 l 1,19,20
 806 1300 806 1300 854 1232 c 0,21,22
 1020 986 1020 986 1020 510 c 0,23,24
 1020 272 1020 272 902 118 c 128,-1,25
 784 -36 784 -36 564 -36 c 0,26,27
 346 -36 346 -36 226 112 c 128,-1,28
 106 260 106 260 106 482 c 0,0,1
200 486 m 0,29,30
 200 290 200 290 298 165 c 128,-1,31
 396 40 396 40 566 40 c 0,32,33
 730 40 730 40 826 162 c 128,-1,34
 922 284 922 284 922 490 c 0,35,36
 922 682 922 682 825 800 c 128,-1,37
 728 918 728 918 568 918 c 256,38,39
 408 918 408 918 304 806 c 128,-1,40
 200 694 200 694 200 486 c 0,29,30
EndSplineSet
EndChar

StartChar: divide
Encoding: 247 247 185
Width: 1124
GlyphClass: 2
Flags: W
LayerCount: 2
Fore
SplineSet
474 1006 m 1,0,-1
 474 1176 l 1,1,-1
 652 1176 l 1,2,-1
 652 1006 l 1,3,-1
 474 1006 l 1,0,-1
66 686 m 1,4,-1
 66 766 l 1,5,-1
 1058 766 l 1,6,-1
 1058 686 l 1,7,-1
 66 686 l 1,4,-1
474 278 m 1,8,-1
 474 448 l 1,9,-1
 652 448 l 1,10,-1
 652 278 l 1,11,-1
 474 278 l 1,8,-1
EndSplineSet
EndChar

StartChar: oslash
Encoding: 248 248 186
Width: 1128
GlyphClass: 2
Flags: W
LayerCount: 2
Fore
SplineSet
106 522 m 0,0,1
 106 764 106 764 228 922 c 128,-1,2
 350 1080 350 1080 564 1080 c 0,3,4
 698 1080 698 1080 794 1020 c 1,5,-1
 866 1164 l 1,6,-1
 946 1164 l 1,7,-1
 850 972 l 1,8,9
 1024 816 1024 816 1024 522 c 0,10,11
 1024 376 1024 376 976 252 c 128,-1,12
 928 128 928 128 821 46 c 128,-1,13
 714 -36 714 -36 564 -36 c 0,14,15
 448 -36 448 -36 358 12 c 1,16,-1
 290 -128 l 1,17,-1
 208 -128 l 1,18,-1
 298 54 l 1,19,20
 204 126 204 126 155 252 c 128,-1,21
 106 378 106 378 106 522 c 0,0,1
808 890 m 1,22,-1
 398 86 l 1,23,24
 468 40 468 40 564 40 c 0,25,26
 726 40 726 40 828 175 c 128,-1,27
 930 310 930 310 930 522 c 0,28,29
 930 756 930 756 808 890 c 1,22,-1
754 942 m 1,30,31
 670 1004 670 1004 564 1004 c 0,32,33
 408 1004 408 1004 304 872 c 128,-1,34
 200 740 200 740 200 522 c 0,35,36
 200 272 200 272 340 134 c 1,37,-1
 754 942 l 1,30,31
EndSplineSet
EndChar

StartChar: thorn
Encoding: 254 254 192
Width: 1176
GlyphClass: 2
Flags: W
LayerCount: 2
Fore
SplineSet
288 526 m 0,0,1
 290 308 290 308 386 174 c 128,-1,2
 482 40 482 40 626 40 c 0,3,4
 782 40 782 40 880 170 c 128,-1,5
 978 300 978 300 978 524 c 0,6,7
 978 738 978 738 886 871 c 128,-1,8
 794 1004 794 1004 628 1004 c 0,9,10
 488 1004 488 1004 388 871 c 128,-1,11
 288 738 288 738 288 534 c 0,12,13
 288 530 288 530 288 526 c 0,0,1
198 -480 m 1,14,-1
 198 1532 l 1,15,-1
 290 1532 l 1,16,-1
 290 804 l 1,17,18
 326 926 326 926 425 1003 c 128,-1,19
 524 1080 524 1080 636 1080 c 0,20,21
 836 1080 836 1080 953 930 c 128,-1,22
 1070 780 1070 780 1070 524 c 0,23,24
 1070 252 1070 252 945 108 c 128,-1,25
 820 -36 820 -36 634 -36 c 0,26,27
 510 -36 510 -36 420 42 c 128,-1,28
 330 120 330 120 290 234 c 1,29,-1
 290 -480 l 1,30,-1
 198 -480 l 1,14,-1
EndSplineSet
EndChar

StartChar: dcroat
Encoding: 273 273 211
Width: 1174
GlyphClass: 2
Flags: W
LayerCount: 2
Fore
SplineSet
106 524 m 0,0,1
 106 786 106 786 227 933 c 128,-1,2
 348 1080 348 1080 540 1080 c 0,3,4
 668 1080 668 1080 761 1000 c 128,-1,5
 854 920 854 920 888 806 c 1,6,-1
 888 1272 l 1,7,-1
 432 1272 l 1,8,-1
 432 1344 l 1,9,-1
 888 1344 l 1,10,-1
 888 1532 l 1,11,-1
 980 1532 l 1,12,-1
 980 1344 l 1,13,-1
 1136 1344 l 1,14,-1
 1136 1272 l 1,15,-1
 980 1272 l 1,16,-1
 980 0 l 1,17,-1
 890 0 l 1,18,-1
 890 230 l 1,19,20
 848 112 848 112 757 38 c 128,-1,21
 666 -36 666 -36 538 -36 c 0,22,23
 362 -36 362 -36 234 104 c 128,-1,24
 106 244 106 244 106 524 c 0,0,1
200 524 m 256,25,26
 200 306 200 306 296 173 c 128,-1,27
 392 40 392 40 550 40 c 0,28,29
 694 40 694 40 791 170 c 128,-1,30
 888 300 888 300 890 524 c 0,31,32
 890 528 890 528 890 532 c 0,33,34
 890 744 890 744 790 874 c 128,-1,35
 690 1004 690 1004 546 1004 c 0,36,37
 394 1004 394 1004 297 873 c 128,-1,38
 200 742 200 742 200 524 c 256,25,26
EndSplineSet
EndChar

StartChar: uni0123
Encoding: 291 291 229
Width: 1154
GlyphClass: 2
Flags: W
LayerCount: 2
Fore
SplineSet
476 1264 m 1,0,-1
 634 1610 l 1,1,-1
 704 1610 l 1,2,-1
 596 1264 l 1,3,-1
 476 1264 l 1,0,-1
200 542 m 0,4,5
 200 334 200 334 295 206 c 128,-1,6
 390 78 390 78 536 78 c 0,7,8
 694 78 694 78 783 201 c 128,-1,9
 872 324 872 324 872 544 c 0,10,11
 872 752 872 752 780 878 c 128,-1,12
 688 1004 688 1004 538 1004 c 0,13,14
 382 1004 382 1004 291 875 c 128,-1,15
 200 746 200 746 200 542 c 0,4,5
106 542 m 0,16,17
 106 782 106 782 222 931 c 128,-1,18
 338 1080 338 1080 530 1080 c 0,19,20
 666 1080 666 1080 750 1004 c 128,-1,21
 834 928 834 928 872 824 c 1,22,-1
 872 1046 l 1,23,-1
 964 1046 l 1,24,-1
 964 92 l 2,25,26
 964 -204 964 -204 865 -346 c 128,-1,27
 766 -488 766 -488 540 -488 c 0,28,29
 432 -488 432 -488 333 -441 c 128,-1,30
 234 -394 234 -394 176 -312 c 1,31,-1
 242 -268 l 1,32,33
 364 -410 364 -410 542 -410 c 0,34,35
 718 -410 718 -410 794 -290 c 128,-1,36
 870 -170 870 -170 872 60 c 2,37,-1
 872 250 l 1,38,39
 832 140 832 140 747 70 c 128,-1,40
 662 0 662 0 532 0 c 0,41,42
 340 0 340 0 223 152 c 128,-1,43
 106 304 106 304 106 542 c 0,16,17
EndSplineSet
EndChar

StartChar: Hbar
Encoding: 294 294 232
Width: 1484
GlyphClass: 2
Flags: W
LayerCount: 2
Fore
SplineSet
54 1158 m 1,0,-1
 54 1236 l 1,1,-1
 238 1236 l 1,2,-1
 238 1470 l 1,3,-1
 332 1470 l 1,4,-1
 332 1236 l 1,5,-1
 1152 1236 l 1,6,-1
 1152 1470 l 1,7,-1
 1248 1470 l 1,8,-1
 1248 1236 l 1,9,-1
 1432 1236 l 1,10,-1
 1432 1158 l 1,11,-1
 1248 1158 l 1,12,-1
 1248 0 l 1,13,-1
 1152 0 l 1,14,-1
 1152 720 l 1,15,-1
 332 720 l 1,16,-1
 332 0 l 1,17,-1
 238 0 l 1,18,-1
 238 1158 l 1,19,-1
 54 1158 l 1,0,-1
1152 1158 m 1,20,-1
 332 1158 l 1,21,-1
 332 800 l 1,22,-1
 1152 800 l 1,23,-1
 1152 1158 l 1,20,-1
EndSplineSet
EndChar

StartChar: hbar
Encoding: 295 295 233
Width: 1158
GlyphClass: 2
Flags: W
LayerCount: 2
Fore
SplineSet
40 1286 m 1,0,-1
 40 1360 l 1,1,-1
 194 1360 l 1,2,-1
 194 1532 l 1,3,-1
 288 1532 l 1,4,-1
 288 1360 l 1,5,-1
 724 1360 l 1,6,-1
 724 1286 l 1,7,-1
 288 1286 l 1,8,-1
 288 832 l 1,9,10
 322 922 322 922 421 995 c 128,-1,11
 520 1068 520 1068 650 1068 c 0,12,13
 708 1068 708 1068 760 1052 c 128,-1,14
 812 1036 812 1036 866 996 c 128,-1,15
 920 956 920 956 952 871 c 128,-1,16
 984 786 984 786 984 664 c 2,17,-1
 984 0 l 1,18,-1
 892 0 l 1,19,-1
 892 646 l 2,20,21
 892 990 892 990 632 990 c 0,22,23
 498 990 498 990 393 878 c 128,-1,24
 288 766 288 766 288 622 c 2,25,-1
 288 0 l 1,26,-1
 194 0 l 1,27,-1
 194 1286 l 1,28,-1
 40 1286 l 1,0,-1
EndSplineSet
EndChar

StartChar: dotlessi
Encoding: 305 305 243
Width: 478
GlyphClass: 2
Flags: W
LayerCount: 2
Fore
SplineSet
192 0 m 1,0,-1
 192 1046 l 1,1,-1
 286 1046 l 1,2,-1
 286 0 l 1,3,-1
 192 0 l 1,0,-1
EndSplineSet
EndChar

StartChar: kgreenlandic
Encoding: 312 312 250
Width: 994
GlyphClass: 2
Flags: W
LayerCount: 2
Fore
SplineSet
194 0 m 1,0,-1
 194 1046 l 1,1,-1
 288 1046 l 1,2,-1
 288 534 l 1,3,-1
 292 534 l 1,4,-1
 848 1046 l 1,5,-1
 970 1046 l 1,6,-1
 420 536 l 1,7,-1
 996 0 l 1,8,-1
 878 0 l 1,9,-1
 358 474 l 1,10,-1
 288 406 l 1,11,-1
 288 0 l 1,12,-1
 194 0 l 1,0,-1
EndSplineSet
EndChar

StartChar: Lslash
Encoding: 321 321 259
Width: 1076
GlyphClass: 2
Flags: W
LayerCount: 2
Fore
SplineSet
332 708 m 1,0,-1
 332 82 l 1,1,-1
 1056 82 l 1,2,-1
 1056 0 l 1,3,-1
 238 0 l 1,4,-1
 238 644 l 1,5,-1
 10 488 l 1,6,-1
 -36 556 l 1,7,-1
 238 744 l 1,8,-1
 238 1470 l 1,9,-1
 332 1470 l 1,10,-1
 332 806 l 1,11,-1
 546 952 l 1,12,-1
 592 886 l 1,13,-1
 332 708 l 1,0,-1
EndSplineSet
EndChar

StartChar: lslash
Encoding: 322 322 260
Width: 498
GlyphClass: 2
Flags: W
LayerCount: 2
Fore
SplineSet
296 740 m 1,0,-1
 296 0 l 1,1,-1
 202 0 l 1,2,-1
 202 678 l 1,3,-1
 -14 530 l 1,4,-1
 -60 598 l 1,5,-1
 202 778 l 1,6,-1
 202 1532 l 1,7,-1
 296 1532 l 1,8,-1
 296 840 l 1,9,-1
 512 984 l 1,10,-1
 556 918 l 1,11,-1
 296 740 l 1,0,-1
EndSplineSet
EndChar

StartChar: Eng
Encoding: 330 330 268
Width: 1500
GlyphClass: 2
Flags: W
LayerCount: 2
Fore
SplineSet
238 0 m 1,0,-1
 238 1470 l 1,1,-1
 350 1470 l 1,2,-1
 1172 142 l 1,3,-1
 1182 142 l 1,4,5
 1168 306 1168 306 1168 500 c 2,6,-1
 1168 1470 l 1,7,-1
 1264 1470 l 1,8,-1
 1264 0 l 2,9,10
 1264 -236 1264 -236 1178 -362 c 128,-1,11
 1092 -488 1092 -488 888 -488 c 0,12,13
 786 -488 786 -488 690 -476 c 1,14,-1
 690 -394 l 1,15,16
 778 -406 778 -406 874 -406 c 0,17,18
 1028 -406 1028 -406 1092 -312 c 128,-1,19
 1156 -218 1156 -218 1158 0 c 1,20,-1
 456 1126 l 1,21,-1
 328 1338 l 1,22,-1
 320 1338 l 1,23,24
 332 1152 332 1152 332 966 c 2,25,-1
 332 0 l 1,26,-1
 238 0 l 1,0,-1
EndSplineSet
EndChar

StartChar: eng
Encoding: 331 331 269
Width: 1148
GlyphClass: 2
Flags: W
LayerCount: 2
Fore
SplineSet
186 0 m 1,0,-1
 186 1046 l 1,1,-1
 274 1046 l 1,2,-1
 274 830 l 1,3,-1
 278 830 l 1,4,5
 296 914 296 914 397 997 c 128,-1,6
 498 1080 498 1080 642 1080 c 0,7,8
 706 1080 706 1080 759 1064 c 128,-1,9
 812 1048 812 1048 864 1006 c 128,-1,10
 916 964 916 964 945 881 c 128,-1,11
 974 798 974 798 974 676 c 2,12,-1
 974 0 l 2,13,14
 974 -258 974 -258 889 -373 c 128,-1,15
 804 -488 804 -488 634 -488 c 0,16,17
 594 -488 594 -488 446 -468 c 1,18,-1
 446 -392 l 1,19,20
 566 -408 566 -408 622 -408 c 0,21,22
 762 -408 762 -408 822 -311 c 128,-1,23
 882 -214 882 -214 882 -8 c 2,24,-1
 882 658 l 2,25,26
 882 1004 882 1004 624 1004 c 0,27,28
 490 1004 490 1004 383 893 c 128,-1,29
 276 782 276 782 276 636 c 2,30,-1
 276 0 l 1,31,-1
 186 0 l 1,0,-1
EndSplineSet
EndChar

StartChar: OE
Encoding: 338 338 276
Width: 1862
GlyphClass: 2
Flags: W
LayerCount: 2
Fore
SplineSet
120 736 m 256,0,1
 120 1092 120 1092 292 1300 c 128,-1,2
 464 1508 464 1508 740 1508 c 0,3,4
 852 1508 852 1508 950 1470 c 1,5,-1
 1768 1470 l 1,6,-1
 1768 1388 l 1,7,-1
 1040 1388 l 1,8,-1
 1040 804 l 1,9,-1
 1692 804 l 1,10,-1
 1692 724 l 1,11,-1
 1040 724 l 1,12,-1
 1040 82 l 1,13,-1
 1778 82 l 1,14,-1
 1778 0 l 1,15,-1
 956 0 l 1,16,17
 864 -36 864 -36 740 -36 c 0,18,19
 464 -36 464 -36 292 172 c 128,-1,20
 120 380 120 380 120 736 c 256,0,1
218 736 m 0,21,22
 218 418 218 418 365 231 c 128,-1,23
 512 44 512 44 740 44 c 0,24,25
 858 44 858 44 944 90 c 1,26,-1
 944 1376 l 1,27,28
 860 1426 860 1426 740 1426 c 0,29,30
 504 1426 504 1426 361 1237 c 128,-1,31
 218 1048 218 1048 218 736 c 0,21,22
EndSplineSet
EndChar

StartChar: uni0163
Encoding: 355 355 293
Width: 698
GlyphClass: 2
Flags: W
LayerCount: 2
Fore
SplineSet
54 966 m 1,0,-1
 54 1046 l 1,1,-1
 250 1046 l 1,2,-1
 250 1398 l 1,3,-1
 344 1398 l 1,4,-1
 344 1046 l 1,5,-1
 610 1046 l 1,6,-1
 610 966 l 1,7,-1
 344 966 l 1,8,-1
 344 288 l 2,9,10
 344 178 344 178 387 129 c 128,-1,11
 430 80 430 80 528 80 c 2,12,-1
 612 80 l 1,13,-1
 612 0 l 1,14,-1
 518 0 l 2,15,16
 502 0 502 0 488 0 c 1,17,-1
 464 -96 l 1,18,19
 558 -106 558 -106 610 -154 c 128,-1,20
 662 -202 662 -202 662 -272 c 0,21,22
 662 -344 662 -344 605 -393 c 128,-1,23
 548 -442 548 -442 436 -442 c 0,24,25
 352 -442 352 -442 272 -420 c 1,26,-1
 272 -354 l 1,27,28
 356 -378 356 -378 438 -378 c 0,29,30
 504 -378 504 -378 544 -348 c 128,-1,31
 584 -318 584 -318 584 -268 c 0,32,33
 584 -154 584 -154 366 -140 c 1,34,-1
 406 16 l 1,35,36
 250 66 250 66 250 274 c 2,37,-1
 250 966 l 1,38,-1
 54 966 l 1,0,-1
EndSplineSet
Substitution2: "'locl' Localized Forms in Latin lookup 3 subtable" uni021B
Substitution2: "'locl' Localized Forms in Latin lookup 2 subtable" uni021B
Substitution2: "'aalt' Access All Alternates lookup 0 subtable" uni021B
EndChar

StartChar: tbar
Encoding: 359 359 297
Width: 714
GlyphClass: 2
Flags: W
LayerCount: 2
Fore
SplineSet
54 966 m 1,0,-1
 54 1046 l 1,1,-1
 250 1046 l 1,2,-1
 250 1398 l 1,3,-1
 344 1398 l 1,4,-1
 344 1046 l 1,5,-1
 626 1046 l 1,6,-1
 626 966 l 1,7,-1
 344 966 l 1,8,-1
 344 692 l 1,9,-1
 636 692 l 1,10,-1
 636 616 l 1,11,-1
 344 616 l 1,12,-1
 344 288 l 2,13,14
 344 178 344 178 387 129 c 128,-1,15
 430 80 430 80 528 80 c 2,16,-1
 628 80 l 1,17,-1
 628 0 l 1,18,-1
 518 0 l 2,19,20
 250 0 250 0 250 274 c 2,21,-1
 250 616 l 1,22,-1
 36 616 l 1,23,-1
 36 692 l 1,24,-1
 250 692 l 1,25,-1
 250 966 l 1,26,-1
 54 966 l 1,0,-1
EndSplineSet
EndChar

StartChar: longs
Encoding: 383 383 321
Width: 604
GlyphClass: 2
Flags: W
LayerCount: 2
Fore
SplineSet
198 0 m 1,0,-1
 198 1202 l 2,1,2
 198 1354 198 1354 273 1425 c 128,-1,3
 348 1496 348 1496 478 1496 c 2,4,-1
 574 1496 l 1,5,-1
 574 1420 l 1,6,-1
 488 1420 l 2,7,8
 292 1420 292 1420 292 1188 c 2,9,-1
 292 0 l 1,10,-1
 198 0 l 1,0,-1
EndSplineSet
EndChar

StartChar: uni0180
Encoding: 384 384 322
Width: 1174
GlyphClass: 2
Flags: W
LayerCount: 2
Fore
SplineSet
284 524 m 0,0,1
 284 300 284 300 384 170 c 128,-1,2
 484 40 484 40 626 40 c 0,3,4
 782 40 782 40 879 171 c 128,-1,5
 976 302 976 302 976 524 c 0,6,7
 976 744 976 744 880 874 c 128,-1,8
 784 1004 784 1004 628 1004 c 0,9,10
 488 1004 488 1004 386 875 c 128,-1,11
 284 746 284 746 284 524 c 0,0,1
48 1288 m 1,12,-1
 48 1360 l 1,13,-1
 194 1360 l 1,14,-1
 194 1532 l 1,15,-1
 288 1532 l 1,16,-1
 288 1360 l 1,17,-1
 724 1360 l 1,18,-1
 724 1288 l 1,19,-1
 288 1288 l 1,20,-1
 288 802 l 1,21,22
 312 906 312 906 407 993 c 128,-1,23
 502 1080 502 1080 638 1080 c 0,24,25
 834 1080 834 1080 951 930 c 128,-1,26
 1068 780 1068 780 1068 524 c 0,27,28
 1068 244 1068 244 940 104 c 128,-1,29
 812 -36 812 -36 636 -36 c 0,30,31
 510 -36 510 -36 419 40 c 128,-1,32
 328 116 328 116 288 228 c 1,33,-1
 288 0 l 1,34,-1
 194 0 l 1,35,-1
 194 1288 l 1,36,-1
 48 1288 l 1,12,-1
EndSplineSet
EndChar

StartChar: uni0182
Encoding: 386 386 324
Width: 1330
GlyphClass: 2
Flags: W
LayerCount: 2
Fore
SplineSet
332 82 m 1,0,-1
 772 82 l 2,1,2
 934 82 934 82 1029 163 c 128,-1,3
 1124 244 1124 244 1124 400 c 0,4,5
 1124 550 1124 550 1026 639 c 128,-1,6
 928 728 928 728 756 728 c 2,7,-1
 332 728 l 1,8,-1
 332 82 l 1,0,-1
238 0 m 1,9,-1
 238 1470 l 1,10,-1
 1054 1470 l 1,11,-1
 1054 1388 l 1,12,-1
 332 1388 l 1,13,-1
 332 810 l 1,14,-1
 772 810 l 2,15,16
 980 810 980 810 1101 698 c 128,-1,17
 1222 586 1222 586 1222 400 c 0,18,19
 1222 220 1222 220 1107 110 c 128,-1,20
 992 0 992 0 794 0 c 2,21,-1
 238 0 l 1,9,-1
EndSplineSet
EndChar

StartChar: uni0183
Encoding: 387 387 325
Width: 1174
GlyphClass: 2
Flags: W
LayerCount: 2
Fore
SplineSet
284 524 m 0,0,1
 284 300 284 300 384 170 c 128,-1,2
 484 40 484 40 626 40 c 0,3,4
 782 40 782 40 879 171 c 128,-1,5
 976 302 976 302 976 524 c 0,6,7
 976 744 976 744 879 874 c 128,-1,8
 782 1004 782 1004 628 1004 c 0,9,10
 488 1004 488 1004 386 875 c 128,-1,11
 284 746 284 746 284 524 c 0,0,1
194 0 m 1,12,-1
 194 1532 l 1,13,-1
 866 1532 l 1,14,-1
 866 1454 l 1,15,-1
 288 1454 l 1,16,-1
 288 802 l 1,17,18
 312 902 312 902 407 991 c 128,-1,19
 502 1080 502 1080 638 1080 c 0,20,21
 832 1080 832 1080 950 930 c 128,-1,22
 1068 780 1068 780 1068 524 c 0,23,24
 1068 244 1068 244 940 104 c 128,-1,25
 812 -36 812 -36 636 -36 c 0,26,27
 510 -36 510 -36 418 41 c 128,-1,28
 326 118 326 118 288 228 c 1,29,-1
 288 0 l 1,30,-1
 194 0 l 1,12,-1
EndSplineSet
EndChar

StartChar: uni0184
Encoding: 388 388 326
Width: 1338
GlyphClass: 2
Flags: W
LayerCount: 2
Fore
SplineSet
94 1368 m 1,0,-1
 266 1470 l 1,1,-1
 332 1470 l 1,2,-1
 332 800 l 1,3,-1
 778 800 l 2,4,5
 982 800 982 800 1106 684 c 128,-1,6
 1230 568 1230 568 1230 400 c 0,7,8
 1230 236 1230 236 1118 118 c 128,-1,9
 1006 0 1006 0 806 0 c 2,10,-1
 238 0 l 1,11,-1
 238 1258 l 1,12,-1
 94 1368 l 1,0,-1
332 82 m 1,13,-1
 780 82 l 2,14,15
 934 82 934 82 1033 166 c 128,-1,16
 1132 250 1132 250 1132 398 c 0,17,18
 1132 534 1132 534 1033 627 c 128,-1,19
 934 720 934 720 774 720 c 2,20,-1
 332 720 l 1,21,-1
 332 82 l 1,13,-1
EndSplineSet
EndChar

StartChar: uni0185
Encoding: 389 389 327
Width: 1174
GlyphClass: 2
Flags: W
LayerCount: 2
Fore
SplineSet
56 1420 m 1,0,-1
 234 1532 l 1,1,-1
 288 1532 l 1,2,-1
 288 802 l 1,3,4
 324 926 324 926 426 1003 c 128,-1,5
 528 1080 528 1080 638 1080 c 0,6,7
 832 1080 832 1080 950 930 c 128,-1,8
 1068 780 1068 780 1068 524 c 0,9,10
 1068 246 1068 246 940 105 c 128,-1,11
 812 -36 812 -36 636 -36 c 0,12,13
 508 -36 508 -36 419 40 c 128,-1,14
 330 116 330 116 288 230 c 1,15,-1
 288 0 l 1,16,-1
 194 0 l 1,17,-1
 194 1310 l 1,18,-1
 56 1420 l 1,0,-1
284 524 m 256,19,20
 284 302 284 302 383 171 c 128,-1,21
 482 40 482 40 626 40 c 0,22,23
 782 40 782 40 879 172 c 128,-1,24
 976 304 976 304 976 524 c 0,25,26
 976 742 976 742 879 873 c 128,-1,27
 782 1004 782 1004 628 1004 c 0,28,29
 488 1004 488 1004 386 875 c 128,-1,30
 284 746 284 746 284 524 c 256,19,20
EndSplineSet
EndChar

StartChar: uni0186
Encoding: 390 390 328
Width: 1278
GlyphClass: 2
Flags: W
LayerCount: 2
Fore
SplineSet
68 282 m 1,0,-1
 154 310 l 1,1,2
 208 196 208 196 311 120 c 128,-1,3
 414 44 414 44 554 44 c 0,4,5
 778 44 778 44 920 230 c 128,-1,6
 1062 416 1062 416 1062 736 c 0,7,8
 1062 1050 1062 1050 923 1238 c 128,-1,9
 784 1426 784 1426 554 1426 c 0,10,11
 420 1426 420 1426 329 1353 c 128,-1,12
 238 1280 238 1280 190 1176 c 1,13,-1
 108 1210 l 1,14,15
 160 1328 160 1328 272 1418 c 128,-1,16
 384 1508 384 1508 552 1508 c 0,17,18
 824 1508 824 1508 991 1303 c 128,-1,19
 1158 1098 1158 1098 1158 736 c 0,20,21
 1158 376 1158 376 991 170 c 128,-1,22
 824 -36 824 -36 552 -36 c 0,23,24
 220 -36 220 -36 68 282 c 1,0,-1
EndSplineSet
EndChar

StartChar: uni018B
Encoding: 395 395 333
Width: 1330
GlyphClass: 2
Flags: W
LayerCount: 2
Fore
SplineSet
206 400 m 0,0,1
 206 246 206 246 303 164 c 128,-1,2
 400 82 400 82 562 82 c 2,3,-1
 996 82 l 1,4,-1
 996 728 l 1,5,-1
 584 728 l 2,6,7
 412 728 412 728 309 639 c 128,-1,8
 206 550 206 550 206 400 c 0,0,1
108 400 m 0,9,10
 108 584 108 584 232 697 c 128,-1,11
 356 810 356 810 566 810 c 2,12,-1
 996 810 l 1,13,-1
 996 1388 l 1,14,-1
 278 1388 l 1,15,-1
 278 1470 l 1,16,-1
 1092 1470 l 1,17,-1
 1092 0 l 1,18,-1
 542 0 l 2,19,20
 344 0 344 0 226 110 c 128,-1,21
 108 220 108 220 108 400 c 0,9,10
EndSplineSet
EndChar

StartChar: uni018C
Encoding: 396 396 334
Width: 1174
GlyphClass: 2
Flags: W
LayerCount: 2
Fore
SplineSet
200 524 m 256,0,1
 200 304 200 304 295 172 c 128,-1,2
 390 40 390 40 548 40 c 0,3,4
 692 40 692 40 791 170 c 128,-1,5
 890 300 890 300 890 524 c 0,6,7
 890 746 890 746 789 875 c 128,-1,8
 688 1004 688 1004 546 1004 c 0,9,10
 392 1004 392 1004 296 874 c 128,-1,11
 200 744 200 744 200 524 c 256,0,1
106 524 m 0,12,13
 106 782 106 782 227 931 c 128,-1,14
 348 1080 348 1080 540 1080 c 0,15,16
 672 1080 672 1080 765 996 c 128,-1,17
 858 912 858 912 888 806 c 1,18,-1
 888 1454 l 1,19,-1
 302 1454 l 1,20,-1
 302 1532 l 1,21,-1
 980 1532 l 1,22,-1
 980 0 l 1,23,-1
 890 0 l 1,24,-1
 890 230 l 1,25,26
 852 118 852 118 759 41 c 128,-1,27
 666 -36 666 -36 536 -36 c 0,28,29
 360 -36 360 -36 233 104 c 128,-1,30
 106 244 106 244 106 524 c 0,12,13
EndSplineSet
EndChar

StartChar: uni018D
Encoding: 397 397 335
Width: 1240
GlyphClass: 2
Flags: W
LayerCount: 2
Fore
SplineSet
200 634 m 0,0,1
 200 360 200 360 626 170 c 1,2,3
 806 246 806 246 922 374 c 128,-1,4
 1038 502 1038 502 1038 636 c 0,5,6
 1038 786 1038 786 932 895 c 128,-1,7
 826 1004 826 1004 628 1004 c 0,8,9
 442 1004 442 1004 321 904 c 128,-1,10
 200 804 200 804 200 634 c 0,0,1
106 628 m 0,11,12
 106 838 106 838 250 959 c 128,-1,13
 394 1080 394 1080 630 1080 c 0,14,15
 862 1080 862 1080 998 956 c 128,-1,16
 1134 832 1134 832 1134 640 c 0,17,18
 1134 498 1134 498 1019 355 c 128,-1,19
 904 212 904 212 708 124 c 1,20,21
 984 -26 984 -26 984 -186 c 0,22,23
 984 -312 984 -312 882 -395 c 128,-1,24
 780 -478 780 -478 604 -478 c 0,25,26
 330 -478 330 -478 186 -264 c 1,27,-1
 256 -218 l 1,28,29
 384 -400 384 -400 604 -400 c 0,30,31
 724 -400 724 -400 808 -342 c 128,-1,32
 892 -284 892 -284 892 -188 c 0,33,34
 892 -128 892 -128 834 -68 c 128,-1,35
 776 -8 776 -8 708 32 c 128,-1,36
 640 72 640 72 522 128 c 0,37,38
 106 328 106 328 106 628 c 0,11,12
EndSplineSet
EndChar

StartChar: uni018E
Encoding: 398 398 336
Width: 1236
GlyphClass: 2
Flags: W
LayerCount: 2
Fore
SplineSet
84 0 m 1,0,-1
 84 82 l 1,1,-1
 904 82 l 1,2,-1
 904 722 l 1,3,-1
 184 722 l 1,4,-1
 184 804 l 1,5,-1
 904 804 l 1,6,-1
 904 1388 l 1,7,-1
 110 1388 l 1,8,-1
 110 1470 l 1,9,-1
 1000 1470 l 1,10,-1
 1000 0 l 1,11,-1
 84 0 l 1,0,-1
EndSplineSet
EndChar

StartChar: uni018F
Encoding: 399 399 337
Width: 1386
GlyphClass: 2
Flags: W
LayerCount: 2
Fore
SplineSet
214 686 m 1,0,1
 214 674 214 674 215 656 c 128,-1,2
 216 638 216 638 216 630 c 0,3,4
 218 524 218 524 239 430 c 128,-1,5
 260 336 260 336 308 244 c 128,-1,6
 356 152 356 152 451 98 c 128,-1,7
 546 44 546 44 676 44 c 0,8,9
 760 44 760 44 842 77 c 128,-1,10
 924 110 924 110 1000 180 c 128,-1,11
 1076 250 1076 250 1124 381 c 128,-1,12
 1172 512 1172 512 1172 686 c 1,13,-1
 214 686 l 1,0,1
116 656 m 2,14,-1
 116 766 l 1,15,-1
 1170 766 l 1,16,17
 1166 910 1166 910 1137 1027 c 128,-1,18
 1108 1144 1108 1144 1048 1235 c 128,-1,19
 988 1326 988 1326 891 1376 c 128,-1,20
 794 1426 794 1426 664 1426 c 0,21,22
 392 1426 392 1426 246 1178 c 1,23,-1
 164 1214 l 1,24,25
 230 1348 230 1348 362 1428 c 128,-1,26
 494 1508 494 1508 666 1508 c 0,27,28
 872 1508 872 1508 1011 1404 c 128,-1,29
 1150 1300 1150 1300 1210 1130 c 128,-1,30
 1270 960 1270 960 1270 732 c 0,31,32
 1270 356 1270 356 1103 160 c 128,-1,33
 936 -36 936 -36 674 -36 c 0,34,35
 524 -36 524 -36 412 25 c 128,-1,36
 300 86 300 86 238 189 c 128,-1,37
 176 292 176 292 146 409 c 128,-1,38
 116 526 116 526 116 656 c 2,14,-1
EndSplineSet
EndChar

StartChar: uni0190
Encoding: 400 400 338
Width: 1202
GlyphClass: 2
Flags: W
LayerCount: 2
Fore
SplineSet
118 400 m 0,0,1
 118 560 118 560 222 658 c 128,-1,2
 326 756 326 756 456 784 c 1,3,4
 346 820 346 820 262 913 c 128,-1,5
 178 1006 178 1006 178 1144 c 0,6,7
 178 1298 178 1298 298 1403 c 128,-1,8
 418 1508 418 1508 626 1508 c 0,9,10
 932 1508 932 1508 1074 1230 c 1,11,-1
 990 1198 l 1,12,13
 866 1428 866 1428 630 1428 c 0,14,15
 478 1428 478 1428 377 1346 c 128,-1,16
 276 1264 276 1264 276 1136 c 0,17,18
 276 988 276 988 389 903 c 128,-1,19
 502 818 502 818 658 818 c 0,20,21
 746 818 746 818 764 820 c 1,22,-1
 764 738 l 1,23,24
 744 740 744 740 650 740 c 0,25,26
 542 740 542 740 447 707 c 128,-1,27
 352 674 352 674 284 595 c 128,-1,28
 216 516 216 516 216 402 c 0,29,30
 216 226 216 226 341 134 c 128,-1,31
 466 42 466 42 638 42 c 0,32,33
 754 42 754 42 865 103 c 128,-1,34
 976 164 976 164 1038 254 c 1,35,-1
 1116 218 l 1,36,37
 1050 104 1050 104 920 34 c 128,-1,38
 790 -36 790 -36 636 -36 c 0,39,40
 418 -36 418 -36 268 78 c 128,-1,41
 118 192 118 192 118 400 c 0,0,1
EndSplineSet
EndChar

StartChar: uni0191
Encoding: 401 401 339
Width: 1164
GlyphClass: 2
Flags: W
LayerCount: 2
Fore
SplineSet
-56 -400 m 1,0,1
 18 -406 18 -406 40 -406 c 0,2,3
 148 -406 148 -406 193 -333 c 128,-1,4
 238 -260 238 -260 238 -114 c 2,5,-1
 238 1470 l 1,6,-1
 1094 1470 l 1,7,-1
 1094 1388 l 1,8,-1
 332 1388 l 1,9,-1
 332 782 l 1,10,-1
 1018 782 l 1,11,-1
 1018 704 l 1,12,-1
 332 704 l 1,13,-1
 332 -114 l 2,14,15
 332 -488 332 -488 54 -488 c 0,16,17
 6 -488 6 -488 -56 -480 c 1,18,-1
 -56 -400 l 1,0,1
EndSplineSet
EndChar

StartChar: florin
Encoding: 402 402 340
Width: 658
GlyphClass: 2
Flags: W
LayerCount: 2
Fore
SplineSet
-60 -400 m 1,0,1
 6 -408 6 -408 36 -408 c 0,2,3
 248 -408 248 -408 248 -96 c 2,4,-1
 248 966 l 1,5,-1
 54 966 l 1,6,-1
 54 1046 l 1,7,-1
 248 1046 l 1,8,-1
 248 1240 l 2,9,10
 248 1390 248 1390 323 1461 c 128,-1,11
 398 1532 398 1532 526 1532 c 2,12,-1
 634 1532 l 1,13,-1
 634 1454 l 1,14,-1
 536 1454 l 2,15,16
 340 1454 340 1454 340 1226 c 2,17,-1
 340 1046 l 1,18,-1
 606 1046 l 1,19,-1
 606 966 l 1,20,-1
 340 966 l 1,21,-1
 340 -100 l 2,22,23
 340 -488 340 -488 50 -488 c 0,24,25
 24 -488 24 -488 -17 -484 c 128,-1,26
 -58 -480 -58 -480 -60 -480 c 1,27,-1
 -60 -400 l 1,0,1
EndSplineSet
EndChar

StartChar: uni0194
Encoding: 404 404 342
Width: 1178
GlyphClass: 2
Flags: W
LayerCount: 2
Fore
SplineSet
-6 1470 m 1,0,-1
 102 1470 l 1,1,-1
 570 306 l 1,2,-1
 594 240 l 1,3,-1
 596 240 l 1,4,-1
 616 306 l 1,5,-1
 1078 1470 l 1,6,-1
 1186 1470 l 1,7,-1
 668 188 l 1,8,9
 764 64 764 64 809 -23 c 128,-1,10
 854 -110 854 -110 854 -210 c 0,11,12
 854 -324 854 -324 782 -406 c 128,-1,13
 710 -488 710 -488 596 -488 c 256,14,15
 482 -488 482 -488 409 -412 c 128,-1,16
 336 -336 336 -336 336 -210 c 0,17,18
 336 -116 336 -116 384 -22 c 128,-1,19
 432 72 432 72 518 188 c 1,20,-1
 -6 1470 l 1,0,-1
432 -208 m 0,21,22
 432 -294 432 -294 477 -351 c 128,-1,23
 522 -408 522 -408 596 -408 c 0,24,25
 668 -408 668 -408 714 -348 c 128,-1,26
 760 -288 760 -288 760 -208 c 0,27,28
 760 -72 760 -72 594 130 c 1,29,30
 432 -66 432 -66 432 -208 c 0,21,22
EndSplineSet
EndChar

StartChar: uni0195
Encoding: 405 405 343
Width: 1828
GlyphClass: 2
Flags: W
LayerCount: 2
Fore
SplineSet
194 0 m 1,0,-1
 194 1532 l 1,1,-1
 288 1532 l 1,2,-1
 288 846 l 1,3,-1
 290 844 l 1,4,5
 332 942 332 942 429 1011 c 128,-1,6
 526 1080 526 1080 650 1080 c 0,7,8
 712 1080 712 1080 765 1064 c 128,-1,9
 818 1048 818 1048 871 1008 c 128,-1,10
 924 968 924 968 954 884 c 128,-1,11
 984 800 984 800 984 676 c 2,12,-1
 984 322 l 2,13,14
 984 192 984 192 1055 116 c 128,-1,15
 1126 40 1126 40 1266 40 c 0,16,17
 1564 40 1564 40 1564 334 c 2,18,-1
 1564 1046 l 1,19,-1
 1656 1046 l 1,20,-1
 1656 328 l 2,21,22
 1656 150 1656 150 1558 57 c 128,-1,23
 1460 -36 1460 -36 1266 -36 c 0,24,25
 1108 -36 1108 -36 1002 44 c 128,-1,26
 896 124 896 124 896 306 c 2,27,-1
 896 658 l 2,28,29
 896 1004 896 1004 634 1004 c 0,30,31
 500 1004 500 1004 394 892 c 128,-1,32
 288 780 288 780 288 638 c 0,33,34
 288 634 288 634 288 632 c 2,35,-1
 288 0 l 1,36,-1
 194 0 l 1,0,-1
EndSplineSet
EndChar

StartChar: uni0196
Encoding: 406 406 344
Width: 672
GlyphClass: 2
Flags: W
LayerCount: 2
Fore
SplineSet
226 312 m 2,0,-1
 226 1470 l 1,1,-1
 322 1470 l 1,2,-1
 322 316 l 2,3,4
 322 176 322 176 366 110 c 128,-1,5
 410 44 410 44 506 44 c 0,6,7
 576 44 576 44 642 54 c 1,8,-1
 642 -26 l 1,9,10
 546 -36 546 -36 494 -36 c 0,11,12
 226 -36 226 -36 226 312 c 2,0,-1
EndSplineSet
EndChar

StartChar: uni0197
Encoding: 407 407 345
Width: 568
GlyphClass: 2
Flags: W
LayerCount: 2
Fore
SplineSet
76 716 m 1,0,-1
 76 792 l 1,1,-1
 238 792 l 1,2,-1
 238 1470 l 1,3,-1
 332 1470 l 1,4,-1
 332 792 l 1,5,-1
 498 792 l 1,6,-1
 498 716 l 1,7,-1
 332 716 l 1,8,-1
 332 0 l 1,9,-1
 238 0 l 1,10,-1
 238 716 l 1,11,-1
 76 716 l 1,0,-1
EndSplineSet
EndChar

StartChar: uni0198
Encoding: 408 408 346
Width: 1268
GlyphClass: 2
Flags: W
LayerCount: 2
Fore
SplineSet
238 0 m 1,0,-1
 238 1470 l 1,1,-1
 332 1470 l 1,2,-1
 332 606 l 1,3,-1
 336 606 l 1,4,-1
 1032 1410 l 2,5,6
 1118 1508 1118 1508 1250 1508 c 0,7,8
 1298 1508 1298 1508 1364 1496 c 1,9,-1
 1364 1412 l 1,10,11
 1288 1428 1288 1428 1254 1428 c 0,12,13
 1176 1428 1176 1428 1120 1364 c 2,14,-1
 662 840 l 1,15,-1
 1258 0 l 1,16,-1
 1134 0 l 1,17,-1
 598 768 l 1,18,-1
 332 466 l 1,19,-1
 332 0 l 1,20,-1
 238 0 l 1,0,-1
EndSplineSet
EndChar

StartChar: uni0199
Encoding: 409 409 347
Width: 996
GlyphClass: 2
Flags: W
LayerCount: 2
Fore
SplineSet
196 0 m 1,0,-1
 196 1240 l 2,1,2
 196 1382 196 1382 278 1462 c 128,-1,3
 360 1542 360 1542 508 1542 c 0,4,5
 536 1542 536 1542 576 1538 c 128,-1,6
 616 1534 616 1534 624 1534 c 1,7,-1
 624 1454 l 1,8,9
 554 1462 554 1462 522 1462 c 0,10,11
 418 1462 418 1462 354 1403 c 128,-1,12
 290 1344 290 1344 290 1228 c 2,13,-1
 290 442 l 1,14,-1
 824 1046 l 1,15,-1
 946 1046 l 1,16,-1
 576 632 l 1,17,-1
 996 0 l 1,18,-1
 884 0 l 1,19,-1
 516 564 l 1,20,-1
 290 316 l 1,21,-1
 290 0 l 1,22,-1
 196 0 l 1,0,-1
EndSplineSet
EndChar

StartChar: uni019A
Encoding: 410 410 348
Width: 498
GlyphClass: 2
Flags: W
LayerCount: 2
Fore
SplineSet
32 742 m 1,0,-1
 32 818 l 1,1,-1
 202 818 l 1,2,-1
 202 1532 l 1,3,-1
 296 1532 l 1,4,-1
 296 818 l 1,5,-1
 464 818 l 1,6,-1
 464 742 l 1,7,-1
 296 742 l 1,8,-1
 296 0 l 1,9,-1
 202 0 l 1,10,-1
 202 742 l 1,11,-1
 32 742 l 1,0,-1
EndSplineSet
EndChar

StartChar: uni019B
Encoding: 411 411 349
Width: 950
GlyphClass: 2
Flags: W
LayerCount: 2
Fore
SplineSet
22 0 m 1,0,-1
 432 1086 l 1,1,-1
 392 1212 l 1,2,-1
 132 1028 l 1,3,-1
 88 1088 l 1,4,-1
 362 1278 l 1,5,6
 284 1450 284 1450 164 1450 c 2,7,-1
 126 1450 l 1,8,-1
 126 1528 l 1,9,-1
 180 1528 l 2,10,11
 326 1528 326 1528 432 1328 c 1,12,-1
 632 1472 l 1,13,-1
 680 1412 l 1,14,-1
 462 1260 l 1,15,-1
 926 0 l 1,16,-1
 820 0 l 1,17,-1
 572 704 l 2,18,19
 522 846 522 846 482 970 c 1,20,-1
 476 970 l 1,21,22
 440 854 440 854 386 708 c 2,23,-1
 130 0 l 1,24,-1
 22 0 l 1,0,-1
EndSplineSet
EndChar

StartChar: uni019C
Encoding: 412 412 350
Width: 1922
GlyphClass: 2
Flags: W
LayerCount: 2
Fore
SplineSet
238 394 m 2,0,-1
 238 1470 l 1,1,-1
 330 1470 l 1,2,-1
 330 400 l 2,3,4
 330 42 330 42 580 42 c 0,5,6
 712 42 712 42 813 156 c 128,-1,7
 914 270 914 270 914 442 c 2,8,-1
 914 1470 l 1,9,-1
 1010 1470 l 1,10,-1
 1010 400 l 2,11,12
 1010 238 1010 238 1072 140 c 128,-1,13
 1134 42 1134 42 1264 42 c 0,14,15
 1404 42 1404 42 1498 153 c 128,-1,16
 1592 264 1592 264 1592 430 c 2,17,-1
 1592 1470 l 1,18,-1
 1686 1470 l 1,19,-1
 1686 0 l 1,20,-1
 1594 0 l 1,21,-1
 1594 188 l 1,22,-1
 1592 188 l 1,23,24
 1554 88 1554 88 1458 26 c 128,-1,25
 1362 -36 1362 -36 1244 -36 c 0,26,27
 1108 -36 1108 -36 1034 42 c 128,-1,28
 960 120 960 120 940 232 c 1,29,30
 924 150 924 150 822 57 c 128,-1,31
 720 -36 720 -36 556 -36 c 0,32,33
 238 -36 238 -36 238 394 c 2,0,-1
EndSplineSet
EndChar

StartChar: uni019D
Encoding: 413 413 351
Width: 1498
GlyphClass: 2
Flags: W
LayerCount: 2
Fore
SplineSet
238 1470 m 1,0,-1
 350 1470 l 1,1,-1
 1172 132 l 1,2,-1
 1182 132 l 1,3,4
 1168 294 1168 294 1168 506 c 2,5,-1
 1168 1470 l 1,6,-1
 1264 1470 l 1,7,-1
 1264 0 l 1,8,-1
 1150 0 l 1,9,-1
 456 1126 l 1,10,-1
 328 1338 l 1,11,-1
 320 1338 l 1,12,13
 332 1152 332 1152 332 940 c 2,14,-1
 332 -58 l 2,15,16
 332 -272 332 -272 264 -380 c 128,-1,17
 196 -488 196 -488 36 -488 c 0,18,19
 30 -488 30 -488 -34 -480 c 1,20,-1
 -34 -402 l 1,21,22
 -2 -406 -2 -406 24 -406 c 0,23,24
 154 -406 154 -406 196 -318 c 128,-1,25
 238 -230 238 -230 238 -54 c 2,26,-1
 238 1470 l 1,0,-1
EndSplineSet
EndChar

StartChar: uni019E
Encoding: 414 414 352
Width: 1168
GlyphClass: 2
Flags: W
LayerCount: 2
Fore
SplineSet
186 0 m 1,0,-1
 186 1046 l 1,1,-1
 274 1046 l 1,2,-1
 274 838 l 1,3,-1
 278 838 l 1,4,5
 314 934 314 934 412 1007 c 128,-1,6
 510 1080 510 1080 642 1080 c 0,7,8
 692 1080 692 1080 734 1071 c 128,-1,9
 776 1062 776 1062 822 1035 c 128,-1,10
 868 1008 868 1008 900 965 c 128,-1,11
 932 922 932 922 953 848 c 128,-1,12
 974 774 974 774 974 676 c 2,13,-1
 974 -480 l 1,14,-1
 882 -480 l 1,15,-1
 882 658 l 2,16,17
 882 1004 882 1004 624 1004 c 0,18,19
 490 1004 490 1004 383 894 c 128,-1,20
 276 784 276 784 276 642 c 0,21,22
 276 638 276 638 276 636 c 2,23,-1
 276 0 l 1,24,-1
 186 0 l 1,0,-1
EndSplineSet
EndChar

StartChar: uni019F
Encoding: 415 415 353
Width: 1410
GlyphClass: 2
Flags: W
LayerCount: 2
Fore
SplineSet
120 736 m 256,0,1
 120 1084 120 1084 279 1296 c 128,-1,2
 438 1508 438 1508 708 1508 c 256,3,4
 978 1508 978 1508 1135 1295 c 128,-1,5
 1292 1082 1292 1082 1292 734 c 256,6,7
 1292 386 1292 386 1134 175 c 128,-1,8
 976 -36 976 -36 708 -36 c 0,9,10
 436 -36 436 -36 278 176 c 128,-1,11
 120 388 120 388 120 736 c 256,0,1
1194 696 m 1,12,-1
 218 696 l 1,13,14
 228 400 228 400 357 222 c 128,-1,15
 486 44 486 44 708 44 c 0,16,17
 926 44 926 44 1056 221 c 128,-1,18
 1186 398 1186 398 1194 696 c 1,12,-1
218 772 m 1,19,-1
 1194 772 l 1,20,21
 1186 1072 1186 1072 1056 1249 c 128,-1,22
 926 1426 926 1426 708 1426 c 256,23,24
 490 1426 490 1426 358 1249 c 128,-1,25
 226 1072 226 1072 218 772 c 1,19,-1
EndSplineSet
EndChar

StartChar: uni01A2
Encoding: 418 418 356
Width: 1994
GlyphClass: 2
Flags: W
LayerCount: 2
Fore
SplineSet
120 722 m 0,0,1
 120 1090 120 1090 289 1299 c 128,-1,2
 458 1508 458 1508 708 1508 c 0,3,4
 824 1508 824 1508 1005 1468 c 128,-1,5
 1186 1428 1186 1428 1360 1428 c 0,6,7
 1474 1428 1474 1428 1758 1470 c 1,8,-1
 1758 0 l 1,9,-1
 1664 0 l 1,10,-1
 1664 1378 l 1,11,12
 1492 1350 1492 1350 1358 1350 c 0,13,14
 1194 1350 1194 1350 1070 1372 c 1,15,-1
 1070 98 l 1,16,17
 922 -36 922 -36 708 -36 c 0,18,19
 458 -36 458 -36 289 173 c 128,-1,20
 120 382 120 382 120 722 c 0,0,1
218 722 m 0,21,22
 218 408 218 408 364 226 c 128,-1,23
 510 44 510 44 708 44 c 0,24,25
 776 44 776 44 836 62 c 128,-1,26
 896 80 896 80 915 92 c 128,-1,27
 934 104 934 104 976 132 c 1,28,-1
 976 1386 l 1,29,30
 960 1390 960 1390 924 1399 c 128,-1,31
 888 1408 888 1408 868 1414 c 128,-1,32
 848 1420 848 1420 805 1424 c 128,-1,33
 762 1428 762 1428 708 1428 c 0,34,35
 620 1428 620 1428 535 1386 c 128,-1,36
 450 1344 450 1344 378 1262 c 128,-1,37
 306 1180 306 1180 262 1040 c 128,-1,38
 218 900 218 900 218 722 c 0,21,22
EndSplineSet
EndChar

StartChar: uni01A3
Encoding: 419 419 357
Width: 1662
GlyphClass: 2
Flags: W
LayerCount: 2
Fore
SplineSet
106 522 m 0,0,1
 106 792 106 792 236 936 c 128,-1,2
 366 1080 366 1080 576 1080 c 0,3,4
 674 1080 674 1080 841 1052 c 128,-1,5
 1008 1024 1008 1024 1162 1024 c 0,6,7
 1318 1024 1318 1024 1480 1052 c 1,8,-1
 1480 0 l 1,9,-1
 1388 0 l 1,10,-1
 1388 964 l 1,11,12
 1238 946 1238 946 1160 946 c 0,13,14
 1022 946 1022 946 944 956 c 1,15,-1
 944 162 l 1,16,17
 818 -36 818 -36 576 -36 c 0,18,19
 376 -36 376 -36 241 107 c 128,-1,20
 106 250 106 250 106 522 c 0,0,1
200 522 m 0,21,22
 200 306 200 306 303 173 c 128,-1,23
 406 40 406 40 576 40 c 0,24,25
 752 40 752 40 852 200 c 1,26,-1
 852 968 l 1,27,28
 698 1004 698 1004 576 1004 c 0,29,30
 390 1004 390 1004 295 867 c 128,-1,31
 200 730 200 730 200 522 c 0,21,22
EndSplineSet
EndChar

StartChar: uni01A5
Encoding: 421 421 359
Width: 1174
GlyphClass: 2
Flags: W
LayerCount: 2
Fore
SplineSet
286 526 m 0,0,1
 286 306 286 306 383 173 c 128,-1,2
 480 40 480 40 628 40 c 0,3,4
 780 40 780 40 878 171 c 128,-1,5
 976 302 976 302 976 524 c 0,6,7
 976 736 976 736 883 870 c 128,-1,8
 790 1004 790 1004 628 1004 c 0,9,10
 486 1004 486 1004 386 871 c 128,-1,11
 286 738 286 738 286 526 c 0,0,1
194 -480 m 1,12,-1
 194 1236 l 2,13,14
 194 1394 194 1394 284 1466 c 128,-1,15
 374 1538 374 1538 496 1538 c 0,16,17
 532 1538 532 1538 575 1534 c 128,-1,18
 618 1530 618 1530 624 1530 c 1,19,-1
 624 1452 l 1,20,21
 588 1456 588 1456 508 1456 c 0,22,23
 394 1456 394 1456 340 1387 c 128,-1,24
 286 1318 286 1318 286 1224 c 2,25,-1
 286 806 l 1,26,27
 320 920 320 920 415 1000 c 128,-1,28
 510 1080 510 1080 638 1080 c 0,29,30
 830 1080 830 1080 949 929 c 128,-1,31
 1068 778 1068 778 1068 524 c 0,32,33
 1068 250 1068 250 942 107 c 128,-1,34
 816 -36 816 -36 634 -36 c 0,35,36
 504 -36 504 -36 416 40 c 128,-1,37
 328 116 328 116 288 232 c 1,38,-1
 288 -480 l 1,39,-1
 194 -480 l 1,12,-1
EndSplineSet
EndChar

StartChar: uni01A6
Encoding: 422 422 360
Width: 1210
GlyphClass: 2
Flags: W
LayerCount: 2
Fore
SplineSet
294 564 m 1,0,-1
 624 564 l 2,1,2
 770 564 770 564 871 633 c 128,-1,3
 972 702 972 702 972 864 c 0,4,5
 972 992 972 992 891 1069 c 128,-1,6
 810 1146 810 1146 632 1146 c 2,7,-1
 294 1146 l 1,8,-1
 294 564 l 1,0,-1
198 0 m 1,9,-1
 198 1470 l 1,10,-1
 294 1470 l 1,11,-1
 294 1226 l 1,12,-1
 660 1226 l 2,13,14
 866 1226 866 1226 966 1125 c 128,-1,15
 1066 1024 1066 1024 1066 868 c 0,16,17
 1066 568 1066 568 732 510 c 1,18,19
 812 478 812 478 855 416 c 128,-1,20
 898 354 898 354 934 248 c 0,21,22
 1036 -36 1036 -36 1102 -156 c 1,23,-1
 996 -156 l 1,24,25
 958 -82 958 -82 903 65 c 128,-1,26
 848 212 848 212 826 268 c 0,27,28
 782 374 782 374 717 429 c 128,-1,29
 652 484 652 484 542 484 c 2,30,-1
 294 484 l 1,31,-1
 294 0 l 1,32,-1
 198 0 l 1,9,-1
EndSplineSet
EndChar

StartChar: uni01A7
Encoding: 423 423 361
Width: 1222
GlyphClass: 2
Flags: W
LayerCount: 2
Fore
SplineSet
106 376 m 0,0,1
 106 448 106 448 134 508 c 128,-1,2
 162 568 162 568 198 607 c 128,-1,3
 234 646 234 646 304 683 c 128,-1,4
 374 720 374 720 424 739 c 128,-1,5
 474 758 474 758 559 787 c 128,-1,6
 644 816 644 816 688 832 c 128,-1,7
 732 848 732 848 799 881 c 128,-1,8
 866 914 866 914 900 945 c 128,-1,9
 934 976 934 976 960 1027 c 128,-1,10
 986 1078 986 1078 986 1138 c 0,11,12
 986 1270 986 1270 888 1348 c 128,-1,13
 790 1426 790 1426 614 1426 c 0,14,15
 370 1426 370 1426 232 1230 c 1,16,-1
 148 1260 l 1,17,18
 210 1364 210 1364 331 1436 c 128,-1,19
 452 1508 452 1508 608 1508 c 0,20,21
 828 1508 828 1508 956 1407 c 128,-1,22
 1084 1306 1084 1306 1084 1138 c 0,23,24
 1084 1074 1084 1074 1067 1021 c 128,-1,25
 1050 968 1050 968 1010 927 c 128,-1,26
 970 886 970 886 934 858 c 128,-1,27
 898 830 898 830 831 801 c 128,-1,28
 764 772 764 772 725 757 c 128,-1,29
 686 742 686 742 608 718 c 0,30,31
 508 682 508 682 454 661 c 128,-1,32
 400 640 400 640 332 598 c 128,-1,33
 264 556 264 556 233 500 c 128,-1,34
 202 444 202 444 202 372 c 0,35,36
 202 218 202 218 314 131 c 128,-1,37
 426 44 426 44 602 44 c 0,38,39
 734 44 734 44 850 111 c 128,-1,40
 966 178 966 178 1032 278 c 1,41,-1
 1118 240 l 1,42,43
 1040 116 1040 116 908 40 c 128,-1,44
 776 -36 776 -36 606 -36 c 0,45,46
 372 -36 372 -36 239 73 c 128,-1,47
 106 182 106 182 106 376 c 0,0,1
EndSplineSet
EndChar

StartChar: uni01A8
Encoding: 424 424 362
Width: 976
GlyphClass: 2
Flags: W
LayerCount: 2
Fore
SplineSet
90 246 m 0,0,1
 90 300 90 300 114 346 c 128,-1,2
 138 392 138 392 173 421 c 128,-1,3
 208 450 208 450 265 478 c 128,-1,4
 322 506 322 506 365 521 c 128,-1,5
 408 536 408 536 474 554 c 0,6,7
 610 594 610 594 689 647 c 128,-1,8
 768 700 768 700 768 800 c 0,9,10
 768 890 768 890 691 947 c 128,-1,11
 614 1004 614 1004 484 1004 c 0,12,13
 384 1004 384 1004 306 955 c 128,-1,14
 228 906 228 906 184 830 c 1,15,-1
 116 870 l 1,16,17
 166 960 166 960 263 1020 c 128,-1,18
 360 1080 360 1080 484 1080 c 0,19,20
 646 1080 646 1080 753 1007 c 128,-1,21
 860 934 860 934 860 800 c 0,22,23
 860 732 860 732 833 680 c 128,-1,24
 806 628 806 628 751 592 c 128,-1,25
 696 556 696 556 649 537 c 128,-1,26
 602 518 602 518 528 496 c 0,27,28
 338 436 338 436 288 406 c 0,29,30
 182 344 182 344 182 246 c 0,31,32
 182 152 182 152 264 96 c 128,-1,33
 346 40 346 40 484 40 c 0,34,35
 588 40 588 40 675 89 c 128,-1,36
 762 138 762 138 816 224 c 1,37,-1
 886 184 l 1,38,39
 758 -36 758 -36 484 -36 c 0,40,41
 294 -36 294 -36 192 46 c 128,-1,42
 90 128 90 128 90 246 c 0,0,1
EndSplineSet
EndChar

StartChar: uni01A9
Encoding: 425 425 363
Width: 1230
GlyphClass: 2
Flags: W
LayerCount: 2
Fore
SplineSet
190 0 m 1,0,-1
 190 70 l 1,1,-1
 754 736 l 1,2,-1
 190 1400 l 1,3,-1
 190 1470 l 1,4,-1
 1060 1470 l 1,5,-1
 1060 1388 l 1,6,-1
 316 1388 l 1,7,-1
 864 736 l 1,8,-1
 316 82 l 1,9,-1
 1072 82 l 1,10,-1
 1072 0 l 1,11,-1
 190 0 l 1,0,-1
EndSplineSet
EndChar

StartChar: uni01AA
Encoding: 426 426 364
Width: 860
GlyphClass: 2
Flags: W
LayerCount: 2
Fore
SplineSet
16 1242 m 0,0,1
 16 1158 16 1158 75 1108 c 128,-1,2
 134 1058 134 1058 220 1058 c 0,3,4
 362 1058 362 1058 454 1140 c 1,5,6
 454 1188 454 1188 445 1233 c 128,-1,7
 436 1278 436 1278 413 1325 c 128,-1,8
 390 1372 390 1372 342 1401 c 128,-1,9
 294 1430 294 1430 224 1430 c 0,10,11
 136 1430 136 1430 76 1379 c 128,-1,12
 16 1328 16 1328 16 1242 c 0,0,1
-76 1238 m 0,13,14
 -76 1364 -76 1364 10 1436 c 128,-1,15
 96 1508 96 1508 222 1508 c 0,16,17
 384 1508 384 1508 465 1404 c 128,-1,18
 546 1300 546 1300 546 1130 c 2,19,-1
 546 -182 l 2,20,21
 546 -294 546 -294 590 -350 c 128,-1,22
 634 -406 634 -406 740 -406 c 0,23,24
 750 -406 750 -406 830 -400 c 1,25,-1
 830 -480 l 1,26,-1
 792 -484 l 2,27,28
 754 -488 754 -488 726 -488 c 0,29,30
 452 -488 452 -488 452 -184 c 2,31,-1
 452 1052 l 1,32,33
 364 980 364 980 210 980 c 0,34,35
 90 980 90 980 7 1052 c 128,-1,36
 -76 1124 -76 1124 -76 1238 c 0,13,14
EndSplineSet
EndChar

StartChar: uni01AB
Encoding: 427 427 365
Width: 748
GlyphClass: 2
Flags: W
LayerCount: 2
Fore
SplineSet
54 966 m 1,0,-1
 54 1046 l 1,1,-1
 250 1046 l 1,2,-1
 250 1398 l 1,3,-1
 344 1398 l 1,4,-1
 344 1046 l 1,5,-1
 610 1046 l 1,6,-1
 610 966 l 1,7,-1
 344 966 l 1,8,-1
 344 288 l 2,9,10
 344 178 344 178 387 129 c 128,-1,11
 430 80 430 80 528 80 c 0,12,13
 646 80 646 80 688 88 c 1,14,-1
 688 -94 l 2,15,16
 688 -298 688 -298 617 -393 c 128,-1,17
 546 -488 546 -488 398 -488 c 0,18,19
 356 -488 356 -488 312 -480 c 1,20,-1
 312 -400 l 1,21,22
 380 -406 380 -406 392 -406 c 0,23,24
 502 -406 502 -406 550 -340 c 128,-1,25
 598 -274 598 -274 598 -102 c 2,26,-1
 598 0 l 1,27,28
 582 0 582 0 564 0 c 0,29,30
 528 0 528 0 484 2 c 0,31,32
 364 10 364 10 307 75 c 128,-1,33
 250 140 250 140 250 274 c 2,34,-1
 250 966 l 1,35,-1
 54 966 l 1,0,-1
EndSplineSet
EndChar

StartChar: uni01AC
Encoding: 428 428 366
Width: 1126
GlyphClass: 2
Flags: W
LayerCount: 2
Fore
SplineSet
-22 1240 m 0,0,1
 -22 1470 -22 1470 316 1470 c 2,2,-1
 1090 1470 l 1,3,-1
 1090 1388 l 1,4,-1
 628 1388 l 1,5,-1
 628 0 l 1,6,-1
 532 0 l 1,7,-1
 532 1388 l 1,8,-1
 320 1388 l 2,9,10
 192 1388 192 1388 130 1353 c 128,-1,11
 68 1318 68 1318 68 1234 c 0,12,13
 68 1230 68 1230 74 1180 c 1,14,-1
 -14 1180 l 1,15,16
 -22 1238 -22 1238 -22 1240 c 0,0,1
EndSplineSet
EndChar

StartChar: uni01AD
Encoding: 429 429 367
Width: 698
GlyphClass: 2
Flags: W
LayerCount: 2
Fore
SplineSet
54 966 m 1,0,-1
 54 1046 l 1,1,-1
 250 1046 l 1,2,-1
 250 1222 l 2,3,4
 250 1364 250 1364 333 1445 c 128,-1,5
 416 1526 416 1526 562 1526 c 0,6,7
 592 1526 592 1526 630 1521 c 128,-1,8
 668 1516 668 1516 676 1516 c 1,9,-1
 676 1438 l 1,10,11
 624 1444 624 1444 574 1444 c 0,12,13
 468 1444 468 1444 406 1386 c 128,-1,14
 344 1328 344 1328 344 1214 c 2,15,-1
 344 1046 l 1,16,-1
 610 1046 l 1,17,-1
 610 966 l 1,18,-1
 344 966 l 1,19,-1
 344 288 l 2,20,21
 344 178 344 178 387 129 c 128,-1,22
 430 80 430 80 528 80 c 2,23,-1
 612 80 l 1,24,-1
 612 0 l 1,25,-1
 518 0 l 2,26,27
 250 0 250 0 250 274 c 2,28,-1
 250 966 l 1,29,-1
 54 966 l 1,0,-1
EndSplineSet
EndChar

StartChar: uni01AE
Encoding: 430 430 368
Width: 1092
GlyphClass: 2
Flags: W
LayerCount: 2
Fore
SplineSet
38 1388 m 1,0,-1
 38 1470 l 1,1,-1
 1060 1470 l 1,2,-1
 1060 1388 l 1,3,-1
 594 1388 l 1,4,-1
 594 -178 l 2,5,6
 594 -300 594 -300 635 -353 c 128,-1,7
 676 -406 676 -406 782 -406 c 0,8,9
 824 -406 824 -406 876 -398 c 1,10,-1
 876 -480 l 1,11,12
 820 -488 820 -488 770 -488 c 0,13,14
 634 -488 634 -488 566 -417 c 128,-1,15
 498 -346 498 -346 498 -176 c 2,16,-1
 498 1388 l 1,17,-1
 38 1388 l 1,0,-1
EndSplineSet
EndChar

StartChar: uni01B1
Encoding: 433 433 371
Width: 1516
GlyphClass: 2
Flags: W
LayerCount: 2
Fore
SplineSet
120 602 m 0,0,1
 120 1034 120 1034 562 1196 c 1,2,-1
 562 1388 l 1,3,-1
 130 1388 l 1,4,-1
 130 1470 l 1,5,-1
 642 1470 l 1,6,-1
 642 1142 l 1,7,8
 434 1080 434 1080 326 937 c 128,-1,9
 218 794 218 794 218 602 c 0,10,11
 218 356 218 356 368 201 c 128,-1,12
 518 46 518 46 760 46 c 256,13,14
 1002 46 1002 46 1151 202 c 128,-1,15
 1300 358 1300 358 1300 602 c 0,16,17
 1300 792 1300 792 1193 936 c 128,-1,18
 1086 1080 1086 1080 878 1142 c 1,19,-1
 878 1470 l 1,20,-1
 1388 1470 l 1,21,-1
 1388 1388 l 1,22,-1
 956 1388 l 1,23,-1
 956 1196 l 1,24,25
 1398 1038 1398 1038 1398 602 c 0,26,27
 1398 330 1398 330 1230 147 c 128,-1,28
 1062 -36 1062 -36 760 -36 c 0,29,30
 460 -36 460 -36 290 146 c 128,-1,31
 120 328 120 328 120 602 c 0,0,1
EndSplineSet
EndChar

StartChar: uni01B2
Encoding: 434 434 372
Width: 1454
GlyphClass: 2
Flags: W
LayerCount: 2
Fore
SplineSet
238 476 m 2,0,-1
 238 1470 l 1,1,-1
 332 1470 l 1,2,-1
 332 476 l 2,3,4
 332 44 332 44 726 44 c 0,5,6
 954 44 954 44 1095 261 c 128,-1,7
 1236 478 1236 478 1236 826 c 0,8,9
 1236 1108 1236 1108 1151 1267 c 128,-1,10
 1066 1426 1066 1426 916 1426 c 0,11,12
 856 1426 856 1426 802 1414 c 1,13,-1
 802 1498 l 1,14,15
 888 1508 888 1508 930 1508 c 0,16,17
 1108 1508 1108 1508 1221 1342 c 128,-1,18
 1334 1176 1334 1176 1334 830 c 0,19,20
 1334 446 1334 446 1172 205 c 128,-1,21
 1010 -36 1010 -36 726 -36 c 0,22,23
 482 -36 482 -36 360 86 c 128,-1,24
 238 208 238 208 238 476 c 2,0,-1
EndSplineSet
EndChar

StartChar: uni01B3
Encoding: 435 435 373
Width: 1136
GlyphClass: 2
Flags: W
LayerCount: 2
Fore
SplineSet
-6 1470 m 1,0,-1
 108 1470 l 1,1,-1
 440 908 l 2,2,3
 496 818 496 818 566 694 c 1,4,-1
 570 694 l 1,5,6
 582 710 582 710 698 908 c 2,7,-1
 966 1372 l 2,8,9
 1046 1508 1046 1508 1192 1508 c 0,10,11
 1232 1508 1232 1508 1264 1504 c 1,12,-1
 1264 1422 l 1,13,14
 1202 1428 1202 1428 1200 1428 c 0,15,16
 1108 1428 1108 1428 1048 1328 c 2,17,-1
 618 606 l 1,18,-1
 618 0 l 1,19,-1
 522 0 l 1,20,-1
 522 606 l 1,21,-1
 -6 1470 l 1,0,-1
EndSplineSet
EndChar

StartChar: uni01B4
Encoding: 436 436 374
Width: 950
GlyphClass: 2
Flags: W
LayerCount: 2
Fore
SplineSet
22 1046 m 1,0,-1
 130 1046 l 1,1,-1
 386 334 l 2,2,3
 422 230 422 230 478 74 c 1,4,-1
 482 74 l 1,5,6
 522 188 522 188 574 338 c 2,7,-1
 784 940 l 2,8,9
 832 1076 832 1076 988 1076 c 0,10,11
 996 1076 996 1076 1064 1070 c 1,12,-1
 1064 990 l 1,13,14
 1036 996 1036 996 1006 996 c 0,15,16
 954 996 954 996 920 967 c 128,-1,17
 886 938 886 938 874 906 c 2,18,-1
 476 -186 l 2,19,20
 418 -342 418 -342 350 -411 c 128,-1,21
 282 -480 282 -480 192 -480 c 2,22,-1
 132 -480 l 1,23,-1
 132 -400 l 1,24,-1
 174 -400 l 2,25,26
 320 -400 320 -400 398 -148 c 2,27,-1
 434 -42 l 1,28,-1
 22 1046 l 1,0,-1
EndSplineSet
EndChar

StartChar: uni01B5
Encoding: 437 437 375
Width: 1240
GlyphClass: 2
Flags: W
LayerCount: 2
Fore
SplineSet
234 692 m 1,0,-1
 234 766 l 1,1,-1
 580 766 l 1,2,-1
 992 1388 l 1,3,-1
 184 1388 l 1,4,-1
 184 1470 l 1,5,-1
 1108 1470 l 1,6,-1
 1108 1396 l 1,7,-1
 688 766 l 1,8,-1
 1002 766 l 1,9,-1
 1002 692 l 1,10,-1
 636 692 l 1,11,-1
 228 82 l 1,12,-1
 1130 82 l 1,13,-1
 1130 0 l 1,14,-1
 116 0 l 1,15,-1
 116 74 l 1,16,-1
 528 692 l 1,17,-1
 234 692 l 1,0,-1
EndSplineSet
EndChar

StartChar: uni01B6
Encoding: 438 438 376
Width: 950
GlyphClass: 2
Flags: W
LayerCount: 2
Fore
SplineSet
80 0 m 1,0,-1
 80 66 l 1,1,-1
 394 498 l 1,2,-1
 160 498 l 1,3,-1
 160 572 l 1,4,-1
 446 572 l 1,5,-1
 736 966 l 1,6,-1
 132 966 l 1,7,-1
 132 1046 l 1,8,-1
 850 1046 l 1,9,-1
 850 982 l 1,10,-1
 554 572 l 1,11,-1
 794 572 l 1,12,-1
 794 498 l 1,13,-1
 498 498 l 1,14,-1
 196 78 l 1,15,-1
 872 78 l 1,16,-1
 872 0 l 1,17,-1
 80 0 l 1,0,-1
EndSplineSet
EndChar

StartChar: uni01B7
Encoding: 439 439 377
Width: 1372
GlyphClass: 2
Flags: W
LayerCount: 2
Fore
SplineSet
116 -182 m 1,0,-1
 196 -142 l 1,1,2
 252 -254 252 -254 366 -325 c 128,-1,3
 480 -396 480 -396 624 -396 c 0,4,5
 878 -396 878 -396 1016 -250 c 128,-1,6
 1154 -104 1154 -104 1154 138 c 0,7,8
 1154 366 1154 366 1002 500 c 128,-1,9
 850 634 850 634 540 634 c 2,10,-1
 428 634 l 1,11,-1
 428 720 l 1,12,-1
 1012 1388 l 1,13,-1
 156 1388 l 1,14,-1
 156 1470 l 1,15,-1
 1154 1470 l 1,16,-1
 1154 1416 l 1,17,-1
 536 712 l 1,18,-1
 586 712 l 1,19,20
 904 704 904 704 1077 552 c 128,-1,21
 1250 400 1250 400 1250 140 c 0,22,23
 1250 -146 1250 -146 1079 -312 c 128,-1,24
 908 -478 908 -478 626 -478 c 0,25,26
 446 -478 446 -478 314 -393 c 128,-1,27
 182 -308 182 -308 116 -182 c 1,0,-1
EndSplineSet
EndChar

StartChar: uni01B8
Encoding: 440 440 378
Width: 1372
GlyphClass: 2
Flags: W
LayerCount: 2
Fore
SplineSet
124 140 m 0,0,1
 124 400 124 400 303 556 c 128,-1,2
 482 712 482 712 786 712 c 2,3,-1
 838 712 l 1,4,-1
 222 1416 l 1,5,-1
 222 1470 l 1,6,-1
 1218 1470 l 1,7,-1
 1218 1388 l 1,8,-1
 362 1388 l 1,9,-1
 946 720 l 1,10,-1
 946 634 l 1,11,-1
 834 634 l 2,12,13
 524 634 524 634 373 500 c 128,-1,14
 222 366 222 366 222 138 c 0,15,16
 222 -104 222 -104 359 -250 c 128,-1,17
 496 -396 496 -396 750 -396 c 0,18,19
 896 -396 896 -396 1009 -325 c 128,-1,20
 1122 -254 1122 -254 1178 -142 c 1,21,-1
 1258 -182 l 1,22,23
 1192 -308 1192 -308 1060 -393 c 128,-1,24
 928 -478 928 -478 748 -478 c 0,25,26
 466 -478 466 -478 295 -312 c 128,-1,27
 124 -146 124 -146 124 140 c 0,0,1
EndSplineSet
EndChar

StartChar: uni01B9
Encoding: 441 441 379
Width: 1072
GlyphClass: 2
Flags: W
LayerCount: 2
Fore
SplineSet
116 -22 m 0,0,1
 116 188 116 188 258 307 c 128,-1,2
 400 426 400 426 624 426 c 2,3,-1
 698 426 l 1,4,-1
 168 982 l 1,5,-1
 168 1046 l 1,6,-1
 926 1046 l 1,7,-1
 926 966 l 1,8,-1
 296 966 l 1,9,-1
 812 420 l 1,10,-1
 812 356 l 1,11,-1
 660 356 l 2,12,13
 446 356 446 356 329 254 c 128,-1,14
 212 152 212 152 212 -22 c 0,15,16
 212 -190 212 -190 307 -299 c 128,-1,17
 402 -408 402 -408 566 -408 c 0,18,19
 786 -408 786 -408 902 -208 c 1,20,-1
 978 -238 l 1,21,22
 850 -488 850 -488 564 -488 c 0,23,24
 364 -488 364 -488 240 -359 c 128,-1,25
 116 -230 116 -230 116 -22 c 0,0,1
EndSplineSet
EndChar

StartChar: uni01BA
Encoding: 442 442 380
Width: 932
GlyphClass: 2
Flags: W
LayerCount: 2
Fore
SplineSet
116 -212 m 0,0,1
 116 -132 116 -132 173 -71 c 128,-1,2
 230 -10 230 -10 313 29 c 128,-1,3
 396 68 396 68 478 106 c 128,-1,4
 560 144 560 144 617 200 c 128,-1,5
 674 256 674 256 674 328 c 0,6,7
 674 498 674 498 356 498 c 2,8,-1
 286 498 l 1,9,-1
 286 558 l 1,10,-1
 686 966 l 1,11,-1
 124 966 l 1,12,-1
 124 1046 l 1,13,-1
 804 1046 l 1,14,-1
 804 982 l 1,15,-1
 388 558 l 1,16,-1
 430 556 l 2,17,18
 602 554 602 554 686 494 c 128,-1,19
 770 434 770 434 770 330 c 0,20,21
 770 246 770 246 713 181 c 128,-1,22
 656 116 656 116 574 74 c 128,-1,23
 492 32 492 32 409 -5 c 128,-1,24
 326 -42 326 -42 269 -93 c 128,-1,25
 212 -144 212 -144 212 -206 c 0,26,27
 212 -280 212 -280 265 -322 c 128,-1,28
 318 -364 318 -364 414 -364 c 0,29,30
 482 -364 482 -364 596 -348 c 1,31,-1
 596 -426 l 1,32,33
 502 -442 502 -442 404 -442 c 0,34,35
 272 -442 272 -442 194 -382 c 128,-1,36
 116 -322 116 -322 116 -212 c 0,0,1
EndSplineSet
EndChar

StartChar: uni01BB
Encoding: 443 443 381
Width: 1118
GlyphClass: 2
Flags: W
LayerCount: 2
Fore
SplineSet
244 680 m 1,0,-1
 244 758 l 1,1,-1
 696 758 l 1,2,3
 866 936 866 936 866 1114 c 0,4,5
 866 1266 866 1266 779 1347 c 128,-1,6
 692 1428 692 1428 546 1428 c 0,7,8
 420 1428 420 1428 333 1351 c 128,-1,9
 246 1274 246 1274 206 1138 c 1,10,-1
 120 1160 l 1,11,12
 162 1318 162 1318 273 1413 c 128,-1,13
 384 1508 384 1508 552 1508 c 0,14,15
 736 1508 736 1508 850 1404 c 128,-1,16
 964 1300 964 1300 964 1112 c 0,17,18
 964 932 964 932 812 758 c 1,19,-1
 1028 758 l 1,20,-1
 1028 680 l 1,21,-1
 744 680 l 1,22,23
 718 654 718 654 658 597 c 128,-1,24
 598 540 598 540 575 518 c 128,-1,25
 552 496 552 496 504 449 c 128,-1,26
 456 402 456 402 437 380 c 128,-1,27
 418 358 418 358 383 320 c 128,-1,28
 348 282 348 282 332 257 c 128,-1,29
 316 232 316 232 295 200 c 128,-1,30
 274 168 274 168 261 139 c 128,-1,31
 248 110 248 110 240 80 c 1,32,-1
 962 80 l 1,33,-1
 962 0 l 1,34,-1
 126 0 l 1,35,36
 126 134 126 134 246 287 c 128,-1,37
 366 440 366 440 620 680 c 1,38,-1
 244 680 l 1,0,-1
EndSplineSet
EndChar

StartChar: uni01BC
Encoding: 444 444 382
Width: 1080
GlyphClass: 2
Flags: W
LayerCount: 2
Fore
SplineSet
106 208 m 1,0,-1
 184 242 l 1,1,2
 280 42 280 42 514 42 c 0,3,4
 672 42 672 42 765 143 c 128,-1,5
 858 244 858 244 858 412 c 0,6,7
 858 568 858 568 745 680 c 128,-1,8
 632 792 632 792 398 792 c 0,9,10
 312 792 312 792 212 776 c 1,11,-1
 282 1388 l 1,12,-1
 174 1388 l 1,13,-1
 174 1470 l 1,14,-1
 878 1470 l 1,15,-1
 878 1388 l 1,16,-1
 370 1388 l 1,17,-1
 314 866 l 1,18,19
 380 870 380 870 434 870 c 0,20,21
 678 870 678 870 817 740 c 128,-1,22
 956 610 956 610 956 412 c 0,23,24
 956 206 956 206 837 85 c 128,-1,25
 718 -36 718 -36 514 -36 c 0,26,27
 218 -36 218 -36 106 208 c 1,0,-1
EndSplineSet
EndChar

StartChar: uni01BD
Encoding: 445 445 383
Width: 902
GlyphClass: 2
Flags: W
LayerCount: 2
Fore
SplineSet
110 144 m 1,0,-1
 182 184 l 1,1,2
 220 120 220 120 285 80 c 128,-1,3
 350 40 350 40 424 40 c 0,4,5
 554 40 554 40 622 109 c 128,-1,6
 690 178 690 178 690 284 c 0,7,8
 690 404 690 404 593 482 c 128,-1,9
 496 560 496 560 344 560 c 0,10,11
 252 560 252 560 210 554 c 1,12,-1
 274 966 l 1,13,-1
 174 966 l 1,14,-1
 174 1046 l 1,15,-1
 732 1046 l 1,16,-1
 732 966 l 1,17,-1
 354 966 l 1,18,-1
 304 638 l 1,19,-1
 358 638 l 2,20,21
 550 638 550 638 665 537 c 128,-1,22
 780 436 780 436 780 286 c 0,23,24
 780 140 780 140 689 52 c 128,-1,25
 598 -36 598 -36 424 -36 c 0,26,27
 218 -36 218 -36 110 144 c 1,0,-1
EndSplineSet
EndChar

StartChar: uni01BE
Encoding: 446 446 384
Width: 876
GlyphClass: 2
Flags: W
LayerCount: 2
Fore
SplineSet
100 966 m 1,0,-1
 100 1046 l 1,1,-1
 252 1046 l 1,2,-1
 252 1382 l 1,3,-1
 344 1382 l 1,4,-1
 344 1046 l 1,5,-1
 628 1046 l 1,6,-1
 628 966 l 1,7,-1
 344 966 l 1,8,-1
 344 782 l 2,9,10
 344 708 344 708 385 646 c 128,-1,11
 426 584 426 584 484 542 c 128,-1,12
 542 500 542 500 600 458 c 128,-1,13
 658 416 658 416 699 358 c 128,-1,14
 740 300 740 300 740 228 c 0,15,16
 740 106 740 106 661 35 c 128,-1,17
 582 -36 582 -36 420 -36 c 0,18,19
 218 -36 218 -36 104 140 c 1,20,-1
 170 182 l 1,21,22
 276 40 276 40 416 40 c 0,23,24
 648 40 648 40 648 228 c 0,25,26
 648 284 648 284 607 332 c 128,-1,27
 566 380 566 380 508 419 c 128,-1,28
 450 458 450 458 392 503 c 128,-1,29
 334 548 334 548 293 617 c 128,-1,30
 252 686 252 686 252 768 c 2,31,-1
 252 966 l 1,32,-1
 100 966 l 1,0,-1
EndSplineSet
EndChar

StartChar: uni01BF
Encoding: 447 447 385
Width: 1168
GlyphClass: 2
Flags: W
LayerCount: 2
Fore
SplineSet
194 -480 m 1,0,-1
 194 1046 l 1,1,-1
 288 1046 l 1,2,-1
 288 952 l 1,3,4
 452 1080 452 1080 634 1080 c 0,5,6
 832 1080 832 1080 947 965 c 128,-1,7
 1062 850 1062 850 1062 650 c 0,8,9
 1062 98 1062 98 288 0 c 1,10,-1
 288 -480 l 1,11,-1
 194 -480 l 1,0,-1
288 78 m 1,12,13
 972 174 972 174 972 642 c 0,14,15
 972 820 972 820 873 912 c 128,-1,16
 774 1004 774 1004 622 1004 c 0,17,18
 450 1004 450 1004 288 858 c 1,19,-1
 288 78 l 1,12,13
EndSplineSet
EndChar

StartChar: uni01C0
Encoding: 448 448 386
Width: 432
GlyphClass: 2
Flags: W
LayerCount: 2
Fore
SplineSet
176 -444 m 1,0,-1
 176 1644 l 1,1,-1
 264 1644 l 1,2,-1
 264 -444 l 1,3,-1
 176 -444 l 1,0,-1
EndSplineSet
EndChar

StartChar: uni01C1
Encoding: 449 449 387
Width: 732
GlyphClass: 2
Flags: W
LayerCount: 2
Fore
SplineSet
176 -444 m 1,0,-1
 176 1644 l 1,1,-1
 264 1644 l 1,2,-1
 264 -444 l 1,3,-1
 176 -444 l 1,0,-1
474 -444 m 1,4,-1
 474 1644 l 1,5,-1
 560 1644 l 1,6,-1
 560 -444 l 1,7,-1
 474 -444 l 1,4,-1
EndSplineSet
EndChar

StartChar: uni01C2
Encoding: 450 450 388
Width: 598
GlyphClass: 2
Flags: W
LayerCount: 2
Fore
SplineSet
42 860 m 1,0,-1
 42 930 l 1,1,-1
 258 930 l 1,2,-1
 258 1644 l 1,3,-1
 344 1644 l 1,4,-1
 344 930 l 1,5,-1
 556 930 l 1,6,-1
 556 860 l 1,7,-1
 344 860 l 1,8,-1
 344 486 l 1,9,-1
 556 486 l 1,10,-1
 556 416 l 1,11,-1
 344 416 l 1,12,-1
 344 -446 l 1,13,-1
 258 -446 l 1,14,-1
 258 416 l 1,15,-1
 42 416 l 1,16,-1
 42 486 l 1,17,-1
 258 486 l 1,18,-1
 258 860 l 1,19,-1
 42 860 l 1,0,-1
EndSplineSet
EndChar

StartChar: uni01DD
Encoding: 477 477 415
Width: 1114
GlyphClass: 2
Flags: W
LayerCount: 2
Fore
SplineSet
100 486 m 0,0,1
 100 496 100 496 101 518 c 128,-1,2
 102 540 102 540 102 550 c 1,3,-1
 916 550 l 1,4,5
 916 738 916 738 817 871 c 128,-1,6
 718 1004 718 1004 542 1004 c 0,7,8
 426 1004 426 1004 338 946 c 128,-1,9
 250 888 250 888 206 806 c 1,10,-1
 128 834 l 1,11,12
 256 1080 256 1080 544 1080 c 0,13,14
 764 1080 764 1080 886 922 c 128,-1,15
 1008 764 1008 764 1008 516 c 0,16,17
 1008 274 1008 274 882 119 c 128,-1,18
 756 -36 756 -36 550 -36 c 256,19,20
 344 -36 344 -36 222 116 c 128,-1,21
 100 268 100 268 100 486 c 0,0,1
194 478 m 1,22,23
 194 298 194 298 292 169 c 128,-1,24
 390 40 390 40 550 40 c 0,25,26
 716 40 716 40 813 170 c 128,-1,27
 910 300 910 300 916 478 c 1,28,-1
 194 478 l 1,22,23
EndSplineSet
EndChar

StartChar: uni01E4
Encoding: 484 484 422
Width: 1442
GlyphClass: 2
Flags: W
LayerCount: 2
Fore
SplineSet
120 736 m 0,0,1
 120 1080 120 1080 282 1294 c 128,-1,2
 444 1508 444 1508 742 1508 c 0,3,4
 914 1508 914 1508 1031 1422 c 128,-1,5
 1148 1336 1148 1336 1204 1222 c 1,6,-1
 1124 1190 l 1,7,8
 990 1426 990 1426 742 1426 c 256,9,10
 494 1426 494 1426 356 1236 c 128,-1,11
 218 1046 218 1046 218 736 c 0,12,13
 218 420 218 420 357 232 c 128,-1,14
 496 44 496 44 738 44 c 0,15,16
 904 44 904 44 1010 136 c 128,-1,17
 1116 228 1116 228 1154 380 c 1,18,-1
 744 380 l 1,19,-1
 744 448 l 1,20,-1
 1168 448 l 1,21,22
 1176 498 1176 498 1176 556 c 2,23,-1
 1176 688 l 1,24,-1
 720 688 l 1,25,-1
 720 768 l 1,26,-1
 1268 768 l 1,27,-1
 1268 448 l 1,28,-1
 1446 448 l 1,29,-1
 1446 380 l 1,30,-1
 1268 380 l 1,31,-1
 1268 0 l 1,32,-1
 1192 0 l 1,33,-1
 1188 274 l 1,34,35
 1144 138 1144 138 1033 51 c 128,-1,36
 922 -36 922 -36 738 -36 c 0,37,38
 450 -36 450 -36 285 174 c 128,-1,39
 120 384 120 384 120 736 c 0,0,1
EndSplineSet
EndChar

StartChar: uni01E5
Encoding: 485 485 423
Width: 1160
GlyphClass: 2
Flags: W
LayerCount: 2
Fore
SplineSet
106 546 m 256,0,1
 106 782 106 782 222 931 c 128,-1,2
 338 1080 338 1080 532 1080 c 0,3,4
 666 1080 666 1080 751 1003 c 128,-1,5
 836 926 836 926 872 824 c 1,6,-1
 872 1046 l 1,7,-1
 964 1046 l 1,8,-1
 964 102 l 2,9,10
 964 -40 964 -40 948 -124 c 1,11,-1
 1114 -124 l 1,12,-1
 1114 -188 l 1,13,-1
 934 -188 l 1,14,15
 892 -336 892 -336 800 -412 c 128,-1,16
 708 -488 708 -488 542 -488 c 0,17,18
 428 -488 428 -488 332 -441 c 128,-1,19
 236 -394 236 -394 176 -312 c 1,20,-1
 242 -268 l 1,21,22
 364 -410 364 -410 544 -410 c 0,23,24
 766 -410 766 -410 836 -188 c 1,25,-1
 420 -188 l 1,26,-1
 420 -124 l 1,27,-1
 856 -124 l 1,28,29
 872 -48 872 -48 872 92 c 2,30,-1
 872 274 l 1,31,32
 832 164 832 164 746 92 c 128,-1,33
 660 20 660 20 530 20 c 0,34,35
 338 20 338 20 222 165 c 128,-1,36
 106 310 106 310 106 546 c 256,0,1
200 544 m 0,37,38
 200 342 200 342 295 221 c 128,-1,39
 390 100 390 100 534 100 c 0,40,41
 690 100 690 100 781 222 c 128,-1,42
 872 344 872 344 872 556 c 0,43,44
 872 754 872 754 779 879 c 128,-1,45
 686 1004 686 1004 540 1004 c 0,46,47
 384 1004 384 1004 292 874 c 128,-1,48
 200 744 200 744 200 544 c 0,37,38
EndSplineSet
EndChar

StartChar: uni01EF
Encoding: 495 495 433
Width: 1072
GlyphClass: 2
Flags: W
LayerCount: 2
Fore
SplineSet
142 1578 m 1,0,-1
 246 1578 l 1,1,-1
 506 1330 l 1,2,-1
 766 1578 l 1,3,-1
 868 1578 l 1,4,-1
 550 1264 l 1,5,-1
 460 1264 l 1,6,-1
 142 1578 l 1,0,-1
96 -238 m 1,7,-1
 174 -208 l 1,8,9
 288 -408 288 -408 508 -408 c 0,10,11
 672 -408 672 -408 767 -299 c 128,-1,12
 862 -190 862 -190 862 -18 c 0,13,14
 862 152 862 152 745 254 c 128,-1,15
 628 356 628 356 416 356 c 2,16,-1
 264 356 l 1,17,-1
 264 420 l 1,18,-1
 778 966 l 1,19,-1
 148 966 l 1,20,-1
 148 1046 l 1,21,-1
 908 1046 l 1,22,-1
 908 982 l 1,23,-1
 380 428 l 1,24,-1
 468 426 l 2,25,26
 690 416 690 416 823 299 c 128,-1,27
 956 182 956 182 956 -18 c 0,28,29
 956 -230 956 -230 833 -359 c 128,-1,30
 710 -488 710 -488 510 -488 c 0,31,32
 224 -488 224 -488 96 -238 c 1,7,-1
EndSplineSet
EndChar

StartChar: uni01F6
Encoding: 502 502 440
Width: 2084
GlyphClass: 2
Flags: W
LayerCount: 2
Fore
SplineSet
238 0 m 1,0,-1
 238 1470 l 1,1,-1
 332 1470 l 1,2,-1
 332 800 l 1,3,-1
 1102 800 l 1,4,-1
 1102 1470 l 1,5,-1
 1198 1470 l 1,6,-1
 1198 362 l 2,7,8
 1198 196 1198 196 1288 118 c 128,-1,9
 1378 40 1378 40 1512 40 c 0,10,11
 1642 40 1642 40 1728 125 c 128,-1,12
 1814 210 1814 210 1814 358 c 2,13,-1
 1814 1046 l 1,14,-1
 1910 1046 l 1,15,-1
 1910 346 l 2,16,17
 1910 164 1910 164 1797 64 c 128,-1,18
 1684 -36 1684 -36 1514 -36 c 0,19,20
 1336 -36 1336 -36 1219 56 c 128,-1,21
 1102 148 1102 148 1102 346 c 2,22,-1
 1102 718 l 1,23,-1
 332 718 l 1,24,-1
 332 0 l 1,25,-1
 238 0 l 1,0,-1
EndSplineSet
EndChar

StartChar: uni01F7
Encoding: 503 503 441
Width: 1308
GlyphClass: 2
Flags: W
LayerCount: 2
Fore
SplineSet
238 -468 m 1,0,-1
 238 1470 l 1,1,-1
 334 1470 l 1,2,-1
 334 1292 l 1,3,4
 546 1508 546 1508 772 1508 c 0,5,6
 974 1508 974 1508 1084 1369 c 128,-1,7
 1194 1230 1194 1230 1194 990 c 0,8,9
 1194 834 1194 834 1132 691 c 128,-1,10
 1070 548 1070 548 985 448 c 128,-1,11
 900 348 900 348 771 255 c 128,-1,12
 642 162 642 162 546 110 c 128,-1,13
 450 58 450 58 334 4 c 1,14,-1
 334 -468 l 1,15,-1
 238 -468 l 1,0,-1
334 92 m 1,16,17
 434 140 434 140 513 184 c 128,-1,18
 592 228 592 228 709 316 c 128,-1,19
 826 404 826 404 904 494 c 128,-1,20
 982 584 982 584 1040 715 c 128,-1,21
 1098 846 1098 846 1098 986 c 0,22,23
 1098 1182 1098 1182 1011 1305 c 128,-1,24
 924 1428 924 1428 752 1428 c 0,25,26
 640 1428 640 1428 520 1351 c 128,-1,27
 400 1274 400 1274 334 1184 c 1,28,-1
 334 92 l 1,16,17
EndSplineSet
EndChar

StartChar: Aringacute
Encoding: 506 506 444
Width: 1252
GlyphClass: 2
Flags: W
LayerCount: 2
Fore
SplineSet
2 0 m 1,0,-1
 566 1470 l 1,1,-1
 688 1470 l 1,2,-1
 1254 0 l 1,3,-1
 1146 0 l 1,4,-1
 972 464 l 1,5,-1
 282 464 l 1,6,-1
 108 0 l 1,7,-1
 2 0 l 1,0,-1
310 542 m 1,8,-1
 944 542 l 1,9,-1
 718 1146 l 2,10,11
 652 1324 652 1324 632 1382 c 1,12,-1
 624 1382 l 1,13,14
 616 1360 616 1360 538 1146 c 2,15,-1
 310 542 l 1,8,-1
364 1788 m 0,16,17
 364 1886 364 1886 438 1958 c 0,18,19
 494 2014 494 2014 574 2026 c 1,20,-1
 718 2254 l 1,21,-1
 858 2254 l 1,22,-1
 670 2026 l 1,23,24
 748 2014 748 2014 804 1960 c 0,25,26
 876 1888 876 1888 876 1788 c 256,27,28
 876 1688 876 1688 804 1617 c 128,-1,29
 732 1546 732 1546 622 1546 c 0,30,31
 514 1546 514 1546 439 1617 c 128,-1,32
 364 1688 364 1688 364 1788 c 0,16,17
440 1788 m 0,33,34
 440 1712 440 1712 491 1661 c 128,-1,35
 542 1610 542 1610 622 1610 c 256,36,37
 702 1610 702 1610 752 1660 c 128,-1,38
 802 1710 802 1710 802 1788 c 0,39,40
 802 1862 802 1862 753 1914 c 128,-1,41
 704 1966 704 1966 622 1966 c 256,42,43
 540 1966 540 1966 490 1914 c 128,-1,44
 440 1862 440 1862 440 1788 c 0,33,34
EndSplineSet
EndChar

StartChar: aringacute
Encoding: 507 507 445
Width: 1120
GlyphClass: 2
Flags: W
LayerCount: 2
Fore
SplineSet
98 244 m 0,0,1
 98 386 98 386 201 474 c 128,-1,2
 304 562 304 562 534 597 c 128,-1,3
 764 632 764 632 858 670 c 1,4,-1
 858 726 l 2,5,6
 858 848 858 848 776 927 c 128,-1,7
 694 1006 694 1006 544 1006 c 0,8,9
 446 1006 446 1006 357 960 c 128,-1,10
 268 914 268 914 206 834 c 1,11,-1
 142 880 l 1,12,13
 208 968 208 968 314 1024 c 128,-1,14
 420 1080 420 1080 542 1080 c 0,15,16
 750 1080 750 1080 850 976 c 128,-1,17
 950 872 950 872 950 702 c 2,18,-1
 950 0 l 1,19,-1
 860 0 l 1,20,-1
 860 208 l 1,21,22
 824 110 824 110 714 37 c 128,-1,23
 604 -36 604 -36 458 -36 c 0,24,25
 292 -36 292 -36 195 43 c 128,-1,26
 98 122 98 122 98 244 c 0,0,1
192 248 m 0,27,28
 192 164 192 164 264 102 c 128,-1,29
 336 40 336 40 466 40 c 0,30,31
 626 40 626 40 742 143 c 128,-1,32
 858 246 858 246 858 408 c 2,33,-1
 858 596 l 1,34,35
 758 560 758 560 536 526 c 0,36,37
 192 470 192 470 192 248 c 0,27,28
284 1452 m 0,38,39
 284 1550 284 1550 358 1622 c 0,40,41
 414 1678 414 1678 494 1690 c 1,42,-1
 636 1918 l 1,43,-1
 776 1918 l 1,44,-1
 588 1690 l 1,45,46
 666 1678 666 1678 724 1624 c 0,47,48
 796 1552 796 1552 796 1452 c 256,49,50
 796 1352 796 1352 723 1281 c 128,-1,51
 650 1210 650 1210 540 1210 c 0,52,53
 432 1210 432 1210 358 1281 c 128,-1,54
 284 1352 284 1352 284 1452 c 0,38,39
358 1452 m 0,55,56
 358 1376 358 1376 409 1325 c 128,-1,57
 460 1274 460 1274 540 1274 c 256,58,59
 620 1274 620 1274 670 1324 c 128,-1,60
 720 1374 720 1374 720 1452 c 0,61,62
 720 1526 720 1526 671 1578 c 128,-1,63
 622 1630 622 1630 540 1630 c 256,64,65
 458 1630 458 1630 408 1578 c 128,-1,66
 358 1526 358 1526 358 1452 c 0,55,56
EndSplineSet
EndChar

StartChar: uni021C
Encoding: 540 540 478
Width: 1158
GlyphClass: 2
Flags: W
LayerCount: 2
Fore
SplineSet
118 -374 m 1,0,1
 246 -394 246 -394 376 -394 c 0,2,3
 630 -394 630 -394 788 -259 c 128,-1,4
 946 -124 946 -124 946 108 c 0,5,6
 946 234 946 234 905 328 c 128,-1,7
 864 422 864 422 797 470 c 128,-1,8
 730 518 730 518 659 540 c 128,-1,9
 588 562 588 562 510 562 c 0,10,11
 438 562 438 562 338 524 c 1,12,-1
 338 608 l 1,13,-1
 506 652 l 2,14,15
 700 706 700 706 809 823 c 128,-1,16
 918 940 918 940 918 1088 c 0,17,18
 918 1250 918 1250 819 1338 c 128,-1,19
 720 1426 720 1426 548 1426 c 0,20,21
 318 1426 318 1426 204 1204 c 1,22,-1
 122 1242 l 1,23,24
 180 1356 180 1356 286 1432 c 128,-1,25
 392 1508 392 1508 546 1508 c 0,26,27
 780 1508 780 1508 898 1393 c 128,-1,28
 1016 1278 1016 1278 1016 1094 c 0,29,30
 1016 920 1016 920 900 795 c 128,-1,31
 784 670 784 670 642 622 c 1,32,-1
 642 620 l 1,33,34
 712 608 712 608 777 576 c 128,-1,35
 842 544 842 544 905 486 c 128,-1,36
 968 428 968 428 1006 330 c 128,-1,37
 1044 232 1044 232 1044 108 c 0,38,39
 1044 -150 1044 -150 862 -314 c 128,-1,40
 680 -478 680 -478 378 -478 c 0,41,42
 246 -478 246 -478 118 -462 c 1,43,-1
 118 -374 l 1,0,1
EndSplineSet
EndChar

StartChar: uni021D
Encoding: 541 541 479
Width: 912
GlyphClass: 2
Flags: W
LayerCount: 2
Fore
SplineSet
118 -394 m 1,0,1
 212 -410 212 -410 298 -410 c 0,2,3
 482 -410 482 -410 590 -305 c 128,-1,4
 698 -200 698 -200 698 -14 c 0,5,6
 698 148 698 148 607 236 c 128,-1,7
 516 324 516 324 394 324 c 0,8,9
 386 324 386 324 274 302 c 1,10,-1
 274 380 l 1,11,-1
 386 406 l 2,12,13
 524 440 524 440 601 533 c 128,-1,14
 678 626 678 626 678 742 c 0,15,16
 678 852 678 852 614 928 c 128,-1,17
 550 1004 550 1004 422 1004 c 0,18,19
 354 1004 354 1004 292 967 c 128,-1,20
 230 930 230 930 190 862 c 1,21,-1
 116 900 l 1,22,23
 160 982 160 982 242 1031 c 128,-1,24
 324 1080 324 1080 426 1080 c 0,25,26
 596 1080 596 1080 682 982 c 128,-1,27
 768 884 768 884 768 750 c 0,28,29
 768 612 768 612 693 517 c 128,-1,30
 618 422 618 422 500 376 c 1,31,32
 612 354 612 354 701 257 c 128,-1,33
 790 160 790 160 790 -12 c 0,34,35
 790 -232 790 -232 659 -360 c 128,-1,36
 528 -488 528 -488 300 -488 c 0,37,38
 228 -488 228 -488 118 -474 c 1,39,-1
 118 -394 l 1,0,1
EndSplineSet
EndChar

StartChar: uni0220
Encoding: 544 544 482
Width: 1472
GlyphClass: 2
Flags: W
LayerCount: 2
Fore
SplineSet
238 0 m 1,0,-1
 238 1470 l 1,1,-1
 330 1470 l 1,2,-1
 330 1258 l 1,3,-1
 332 1258 l 1,4,5
 384 1348 384 1348 507 1428 c 128,-1,6
 630 1508 630 1508 794 1508 c 0,7,8
 1238 1508 1238 1508 1238 1010 c 2,9,-1
 1238 -480 l 1,10,-1
 1142 -480 l 1,11,-1
 1142 992 l 2,12,13
 1142 1218 1142 1218 1054 1322 c 128,-1,14
 966 1426 966 1426 774 1426 c 0,15,16
 614 1426 614 1426 473 1306 c 128,-1,17
 332 1186 332 1186 332 1032 c 2,18,-1
 332 0 l 1,19,-1
 238 0 l 1,0,-1
EndSplineSet
EndChar

StartChar: uni0221
Encoding: 545 545 483
Width: 1542
GlyphClass: 2
Flags: W
LayerCount: 2
Fore
SplineSet
1018 -252 m 1,0,1
 1040 -316 1040 -316 1104 -362 c 128,-1,2
 1168 -408 1168 -408 1246 -408 c 0,3,4
 1328 -408 1328 -408 1377 -370 c 128,-1,5
 1426 -332 1426 -332 1426 -272 c 0,6,7
 1426 -204 1426 -204 1378 -162 c 128,-1,8
 1330 -120 1330 -120 1250 -120 c 0,9,10
 1112 -120 1112 -120 1018 -252 c 1,0,1
106 524 m 0,11,12
 106 782 106 782 227 931 c 128,-1,13
 348 1080 348 1080 540 1080 c 0,14,15
 668 1080 668 1080 761 1000 c 128,-1,16
 854 920 854 920 888 806 c 1,17,-1
 888 1532 l 1,18,-1
 980 1532 l 1,19,-1
 980 14 l 2,20,21
 980 -114 980 -114 996 -166 c 1,22,23
 1036 -114 1036 -114 1103 -77 c 128,-1,24
 1170 -40 1170 -40 1250 -40 c 0,25,26
 1378 -40 1378 -40 1446 -107 c 128,-1,27
 1514 -174 1514 -174 1514 -268 c 0,28,29
 1514 -364 1514 -364 1441 -426 c 128,-1,30
 1368 -488 1368 -488 1248 -488 c 0,31,32
 1066 -488 1066 -488 970 -326 c 1,33,34
 948 -360 948 -360 900 -474 c 1,35,-1
 820 -446 l 1,36,37
 870 -322 870 -322 922 -246 c 1,38,39
 890 -178 890 -178 890 0 c 2,40,-1
 890 230 l 1,41,42
 852 118 852 118 759 41 c 128,-1,43
 666 -36 666 -36 536 -36 c 0,44,45
 362 -36 362 -36 234 104 c 128,-1,46
 106 244 106 244 106 524 c 0,11,12
200 524 m 0,47,48
 200 306 200 306 295 173 c 128,-1,49
 390 40 390 40 548 40 c 0,50,51
 692 40 692 40 791 169 c 128,-1,52
 890 298 890 298 890 524 c 0,53,54
 890 746 890 746 789 875 c 128,-1,55
 688 1004 688 1004 546 1004 c 0,56,57
 392 1004 392 1004 296 874 c 128,-1,58
 200 744 200 744 200 524 c 0,47,48
EndSplineSet
EndChar

StartChar: uni0222
Encoding: 546 546 484
Width: 1348
GlyphClass: 2
Flags: W
LayerCount: 2
Fore
SplineSet
112 462 m 0,0,1
 112 636 112 636 216 763 c 128,-1,2
 320 890 320 890 474 940 c 1,3,4
 340 982 340 982 256 1086 c 128,-1,5
 172 1190 172 1190 172 1344 c 0,6,7
 172 1414 172 1414 184 1470 c 1,8,-1
 276 1470 l 1,9,10
 276 1456 276 1456 274 1431 c 128,-1,11
 272 1406 272 1406 271 1386 c 128,-1,12
 270 1366 270 1366 270 1348 c 0,13,14
 270 1192 270 1192 381 1084 c 128,-1,15
 492 976 492 976 674 976 c 0,16,17
 844 976 844 976 962 1080 c 128,-1,18
 1080 1184 1080 1184 1080 1348 c 0,19,20
 1080 1356 1080 1356 1072 1470 c 1,21,-1
 1166 1470 l 1,22,23
 1178 1422 1178 1422 1178 1344 c 0,24,25
 1178 1182 1178 1182 1087 1080 c 128,-1,26
 996 978 996 978 864 940 c 1,27,28
 1022 902 1022 902 1130 769 c 128,-1,29
 1238 636 1238 636 1238 462 c 0,30,31
 1238 258 1238 258 1093 111 c 128,-1,32
 948 -36 948 -36 674 -36 c 0,33,34
 406 -36 406 -36 259 110 c 128,-1,35
 112 256 112 256 112 462 c 0,0,1
210 462 m 0,36,37
 210 282 210 282 340 163 c 128,-1,38
 470 44 470 44 674 44 c 0,39,40
 874 44 874 44 1007 161 c 128,-1,41
 1140 278 1140 278 1140 462 c 0,42,43
 1140 638 1140 638 1007 765 c 128,-1,44
 874 892 874 892 674 892 c 0,45,46
 482 892 482 892 346 770 c 128,-1,47
 210 648 210 648 210 462 c 0,36,37
EndSplineSet
EndChar

StartChar: uni0223
Encoding: 547 547 485
Width: 1126
GlyphClass: 2
Flags: W
LayerCount: 2
Fore
SplineSet
106 480 m 0,0,1
 106 678 106 678 199 813 c 128,-1,2
 292 948 292 948 426 976 c 1,3,4
 308 1008 308 1008 232 1109 c 128,-1,5
 156 1210 156 1210 156 1374 c 0,6,7
 156 1462 156 1462 168 1508 c 1,8,-1
 254 1508 l 1,9,10
 254 1500 254 1500 251 1449 c 128,-1,11
 248 1398 248 1398 248 1376 c 0,12,13
 248 1218 248 1218 331 1116 c 128,-1,14
 414 1014 414 1014 562 1014 c 0,15,16
 702 1014 702 1014 789 1113 c 128,-1,17
 876 1212 876 1212 876 1376 c 0,18,19
 876 1458 876 1458 870 1508 c 1,20,-1
 960 1508 l 1,21,22
 970 1468 970 1468 970 1374 c 0,23,24
 970 1214 970 1214 895 1109 c 128,-1,25
 820 1004 820 1004 700 976 c 1,26,27
 834 950 834 950 928 815 c 128,-1,28
 1022 680 1022 680 1022 480 c 0,29,30
 1022 264 1022 264 901 114 c 128,-1,31
 780 -36 780 -36 562 -36 c 0,32,33
 348 -36 348 -36 227 110 c 128,-1,34
 106 256 106 256 106 480 c 0,0,1
200 480 m 0,35,36
 200 290 200 290 300 165 c 128,-1,37
 400 40 400 40 562 40 c 0,38,39
 720 40 720 40 824 160 c 128,-1,40
 928 280 928 280 928 480 c 0,41,42
 928 674 928 674 825 804 c 128,-1,43
 722 934 722 934 562 934 c 0,44,45
 414 934 414 934 307 811 c 128,-1,46
 200 688 200 688 200 480 c 0,35,36
EndSplineSet
EndChar

StartChar: uni0224
Encoding: 548 548 486
Width: 1240
GlyphClass: 2
Flags: W
LayerCount: 2
Fore
SplineSet
116 0 m 1,0,-1
 116 74 l 1,1,-1
 992 1388 l 1,2,-1
 184 1388 l 1,3,-1
 184 1470 l 1,4,-1
 1108 1470 l 1,5,-1
 1108 1396 l 1,6,-1
 228 82 l 1,7,-1
 910 82 l 2,8,9
 1070 82 1070 82 1146 5 c 128,-1,10
 1222 -72 1222 -72 1222 -238 c 0,11,12
 1222 -360 1222 -360 1174 -480 c 1,13,-1
 1086 -480 l 1,14,15
 1134 -346 1134 -346 1134 -244 c 0,16,17
 1134 -120 1134 -120 1080 -60 c 128,-1,18
 1026 0 1026 0 880 0 c 2,19,-1
 116 0 l 1,0,-1
EndSplineSet
EndChar

StartChar: uni0225
Encoding: 549 549 487
Width: 1046
GlyphClass: 2
Flags: W
LayerCount: 2
Fore
SplineSet
80 0 m 1,0,-1
 80 66 l 1,1,-1
 736 970 l 1,2,-1
 132 970 l 1,3,-1
 132 1050 l 1,4,-1
 850 1050 l 1,5,-1
 850 986 l 1,6,-1
 196 78 l 1,7,-1
 792 78 l 2,8,9
 932 78 932 78 996 1 c 128,-1,10
 1060 -76 1060 -76 1060 -232 c 0,11,12
 1060 -376 1060 -376 1024 -480 c 1,13,-1
 938 -480 l 1,14,15
 976 -358 976 -358 976 -240 c 0,16,17
 976 -114 976 -114 926 -57 c 128,-1,18
 876 0 876 0 764 0 c 2,19,-1
 80 0 l 1,0,-1
EndSplineSet
EndChar

StartChar: uni0234
Encoding: 564 564 502
Width: 842
GlyphClass: 2
Flags: W
LayerCount: 2
Fore
SplineSet
330 -252 m 1,0,1
 350 -316 350 -316 415 -362 c 128,-1,2
 480 -408 480 -408 556 -408 c 0,3,4
 638 -408 638 -408 686 -370 c 128,-1,5
 734 -332 734 -332 734 -272 c 0,6,7
 734 -204 734 -204 686 -162 c 128,-1,8
 638 -120 638 -120 558 -120 c 0,9,10
 428 -120 428 -120 330 -252 c 1,0,1
132 -446 m 1,11,12
 194 -300 194 -300 232 -246 c 1,13,14
 198 -164 198 -164 198 6 c 2,15,-1
 198 1532 l 1,16,-1
 292 1532 l 1,17,-1
 292 16 l 2,18,19
 292 -104 292 -104 310 -166 c 1,20,21
 410 -40 410 -40 560 -40 c 0,22,23
 688 -40 688 -40 758 -108 c 128,-1,24
 828 -176 828 -176 828 -268 c 0,25,26
 828 -364 828 -364 754 -426 c 128,-1,27
 680 -488 680 -488 560 -488 c 0,28,29
 470 -488 470 -488 397 -442 c 128,-1,30
 324 -396 324 -396 284 -328 c 1,31,32
 248 -378 248 -378 212 -474 c 1,33,-1
 132 -446 l 1,11,12
EndSplineSet
EndChar

StartChar: uni0235
Encoding: 565 565 503
Width: 1530
GlyphClass: 2
Flags: W
LayerCount: 2
Fore
SplineSet
1014 -252 m 1,0,1
 1034 -316 1034 -316 1099 -362 c 128,-1,2
 1164 -408 1164 -408 1242 -408 c 0,3,4
 1324 -408 1324 -408 1370 -370 c 128,-1,5
 1416 -332 1416 -332 1416 -272 c 0,6,7
 1416 -206 1416 -206 1371 -163 c 128,-1,8
 1326 -120 1326 -120 1244 -120 c 0,9,10
 1112 -120 1112 -120 1014 -252 c 1,0,1
186 0 m 1,11,-1
 186 1046 l 1,12,-1
 274 1046 l 1,13,-1
 274 830 l 1,14,-1
 278 830 l 1,15,16
 294 910 294 910 395 995 c 128,-1,17
 496 1080 496 1080 642 1080 c 0,18,19
 692 1080 692 1080 734 1071 c 128,-1,20
 776 1062 776 1062 822 1035 c 128,-1,21
 868 1008 868 1008 900 965 c 128,-1,22
 932 922 932 922 953 848 c 128,-1,23
 974 774 974 774 974 676 c 2,24,-1
 974 16 l 2,25,26
 974 -108 974 -108 992 -166 c 1,27,28
 1092 -40 1092 -40 1246 -40 c 0,29,30
 1370 -40 1370 -40 1440 -107 c 128,-1,31
 1510 -174 1510 -174 1510 -268 c 0,32,33
 1510 -364 1510 -364 1437 -426 c 128,-1,34
 1364 -488 1364 -488 1244 -488 c 0,35,36
 1154 -488 1154 -488 1081 -442 c 128,-1,37
 1008 -396 1008 -396 966 -328 c 1,38,39
 934 -376 934 -376 896 -474 c 1,40,-1
 816 -446 l 1,41,42
 858 -330 858 -330 918 -246 c 1,43,44
 882 -166 882 -166 882 10 c 2,45,-1
 882 658 l 2,46,47
 882 1004 882 1004 624 1004 c 0,48,49
 490 1004 490 1004 383 893 c 128,-1,50
 276 782 276 782 276 636 c 2,51,-1
 276 0 l 1,52,-1
 186 0 l 1,11,-1
EndSplineSet
EndChar

StartChar: uni0236
Encoding: 566 566 504
Width: 898
GlyphClass: 2
Flags: W
LayerCount: 2
Fore
SplineSet
382 -252 m 1,0,1
 402 -316 402 -316 467 -362 c 128,-1,2
 532 -408 532 -408 612 -408 c 0,3,4
 696 -408 696 -408 741 -370 c 128,-1,5
 786 -332 786 -332 786 -272 c 0,6,7
 786 -208 786 -208 740 -164 c 128,-1,8
 694 -120 694 -120 612 -120 c 0,9,10
 480 -120 480 -120 382 -252 c 1,0,1
54 966 m 1,11,-1
 54 1046 l 1,12,-1
 250 1046 l 1,13,-1
 250 1398 l 1,14,-1
 344 1398 l 1,15,-1
 344 1046 l 1,16,-1
 626 1046 l 1,17,-1
 626 966 l 1,18,-1
 344 966 l 1,19,-1
 344 14 l 2,20,21
 344 -114 344 -114 360 -166 c 1,22,23
 460 -40 460 -40 614 -40 c 0,24,25
 740 -40 740 -40 810 -108 c 128,-1,26
 880 -176 880 -176 880 -268 c 0,27,28
 880 -364 880 -364 807 -426 c 128,-1,29
 734 -488 734 -488 614 -488 c 0,30,31
 524 -488 524 -488 450 -442 c 128,-1,32
 376 -396 376 -396 334 -328 c 1,33,34
 302 -376 302 -376 266 -474 c 1,35,-1
 186 -446 l 1,36,37
 244 -296 244 -296 286 -246 c 1,38,39
 250 -162 250 -162 250 10 c 2,40,-1
 250 966 l 1,41,-1
 54 966 l 1,11,-1
EndSplineSet
EndChar

StartChar: uni0237
Encoding: 567 567 505
Width: 556
GlyphClass: 2
Flags: W
LayerCount: 2
Fore
SplineSet
-14 -400 m 1,0,-1
 38 -400 l 2,1,2
 236 -400 236 -400 236 -134 c 2,3,-1
 236 1046 l 1,4,-1
 328 1046 l 1,5,-1
 328 -142 l 2,6,7
 328 -306 328 -306 257 -393 c 128,-1,8
 186 -480 186 -480 56 -480 c 2,9,-1
 -14 -480 l 1,10,-1
 -14 -400 l 1,0,-1
EndSplineSet
EndChar

StartChar: uni0238
Encoding: 568 568 506
Width: 1868
GlyphClass: 2
Flags: W
LayerCount: 2
Fore
SplineSet
106 524 m 0,0,1
 106 784 106 784 228 932 c 128,-1,2
 350 1080 350 1080 540 1080 c 0,3,4
 668 1080 668 1080 761 1000 c 128,-1,5
 854 920 854 920 888 806 c 1,6,-1
 888 1532 l 1,7,-1
 980 1532 l 1,8,-1
 980 802 l 1,9,10
 1008 906 1008 906 1101 993 c 128,-1,11
 1194 1080 1194 1080 1330 1080 c 0,12,13
 1522 1080 1522 1080 1642 931 c 128,-1,14
 1762 782 1762 782 1762 524 c 0,15,16
 1762 244 1762 244 1632 104 c 128,-1,17
 1502 -36 1502 -36 1328 -36 c 0,18,19
 1200 -36 1200 -36 1109 41 c 128,-1,20
 1018 118 1018 118 978 228 c 1,21,-1
 978 0 l 1,22,-1
 890 0 l 1,23,-1
 890 230 l 1,24,25
 852 116 852 116 758 40 c 128,-1,26
 664 -36 664 -36 536 -36 c 0,27,28
 364 -36 364 -36 235 103 c 128,-1,29
 106 242 106 242 106 524 c 0,0,1
200 524 m 0,30,31
 200 304 200 304 295 172 c 128,-1,32
 390 40 390 40 548 40 c 0,33,34
 690 40 690 40 786 162 c 128,-1,35
 882 284 882 284 890 490 c 1,36,-1
 890 558 l 1,37,38
 882 760 882 760 782 882 c 128,-1,39
 682 1004 682 1004 546 1004 c 0,40,41
 394 1004 394 1004 297 875 c 128,-1,42
 200 746 200 746 200 524 c 0,30,31
978 486 m 1,43,44
 986 284 986 284 1082 162 c 128,-1,45
 1178 40 1178 40 1318 40 c 0,46,47
 1474 40 1474 40 1571 171 c 128,-1,48
 1668 302 1668 302 1668 524 c 0,49,50
 1668 744 1668 744 1571 874 c 128,-1,51
 1474 1004 1474 1004 1320 1004 c 0,52,53
 1182 1004 1182 1004 1084 881 c 128,-1,54
 986 758 986 758 978 556 c 1,55,-1
 978 486 l 1,43,44
EndSplineSet
EndChar

StartChar: uni0239
Encoding: 569 569 507
Width: 1870
GlyphClass: 2
Flags: W
LayerCount: 2
Fore
SplineSet
106 524 m 0,0,1
 106 776 106 776 225 928 c 128,-1,2
 344 1080 344 1080 538 1080 c 0,3,4
 658 1080 658 1080 751 1009 c 128,-1,5
 844 938 844 938 890 810 c 1,6,-1
 890 1046 l 1,7,-1
 980 1046 l 1,8,-1
 980 808 l 1,9,10
 1024 930 1024 930 1119 1005 c 128,-1,11
 1214 1080 1214 1080 1336 1080 c 0,12,13
 1530 1080 1530 1080 1647 929 c 128,-1,14
 1764 778 1764 778 1764 524 c 0,15,16
 1764 254 1764 254 1639 109 c 128,-1,17
 1514 -36 1514 -36 1332 -36 c 0,18,19
 1204 -36 1204 -36 1113 40 c 128,-1,20
 1022 116 1022 116 980 234 c 1,21,-1
 980 -480 l 1,22,-1
 888 -480 l 1,23,-1
 888 232 l 1,24,25
 846 114 846 114 756 39 c 128,-1,26
 666 -36 666 -36 540 -36 c 0,27,28
 354 -36 354 -36 230 110 c 128,-1,29
 106 256 106 256 106 524 c 0,0,1
200 524 m 0,30,31
 200 304 200 304 297 172 c 128,-1,32
 394 40 394 40 546 40 c 0,33,34
 694 40 694 40 787 166 c 128,-1,35
 880 292 880 292 888 496 c 1,36,-1
 888 560 l 1,37,38
 880 756 880 756 785 880 c 128,-1,39
 690 1004 690 1004 546 1004 c 0,40,41
 382 1004 382 1004 291 869 c 128,-1,42
 200 734 200 734 200 524 c 0,30,31
980 498 m 1,43,44
 988 290 988 290 1083 165 c 128,-1,45
 1178 40 1178 40 1326 40 c 0,46,47
 1478 40 1478 40 1574 170 c 128,-1,48
 1670 300 1670 300 1670 524 c 0,49,50
 1670 734 1670 734 1580 869 c 128,-1,51
 1490 1004 1490 1004 1326 1004 c 0,52,53
 1186 1004 1186 1004 1087 881 c 128,-1,54
 988 758 988 758 980 562 c 1,55,-1
 980 498 l 1,43,44
EndSplineSet
EndChar

StartChar: uni023A
Encoding: 570 570 508
Width: 1252
GlyphClass: 2
Flags: W
LayerCount: 2
Fore
SplineSet
310 542 m 1,0,-1
 474 542 l 1,1,-1
 766 1016 l 1,2,-1
 718 1146 l 2,3,4
 706 1180 706 1180 675 1264 c 128,-1,5
 644 1348 644 1348 632 1382 c 1,6,-1
 624 1382 l 1,7,8
 548 1172 548 1172 538 1146 c 2,9,-1
 310 542 l 1,0,-1
558 542 m 1,10,-1
 944 542 l 1,11,-1
 798 932 l 1,12,-1
 558 542 l 1,10,-1
2 0 m 1,13,-1
 566 1470 l 1,14,-1
 690 1470 l 1,15,-1
 826 1114 l 1,16,-1
 1086 1532 l 1,17,-1
 1170 1532 l 1,18,-1
 858 1030 l 1,19,-1
 1254 0 l 1,20,-1
 1146 0 l 1,21,-1
 972 464 l 1,22,-1
 508 464 l 1,23,-1
 114 -174 l 1,24,-1
 30 -174 l 1,25,-1
 424 464 l 1,26,-1
 282 464 l 1,27,-1
 108 0 l 1,28,-1
 2 0 l 1,13,-1
EndSplineSet
EndChar

StartChar: uni023B
Encoding: 571 571 509
Width: 1266
GlyphClass: 2
Flags: W
LayerCount: 2
Fore
SplineSet
120 736 m 0,0,1
 120 1098 120 1098 287 1303 c 128,-1,2
 454 1508 454 1508 726 1508 c 0,3,4
 842 1508 842 1508 946 1454 c 1,5,-1
 1002 1594 l 1,6,-1
 1076 1594 l 1,7,-1
 1010 1414 l 1,8,9
 1118 1334 1118 1334 1170 1210 c 1,10,-1
 1088 1176 l 1,11,12
 1044 1270 1044 1270 976 1328 c 1,13,-1
 518 96 l 1,14,15
 620 44 620 44 726 44 c 0,16,17
 866 44 866 44 968 121 c 128,-1,18
 1070 198 1070 198 1124 310 c 1,19,-1
 1210 282 l 1,20,21
 1056 -36 1056 -36 726 -36 c 0,22,23
 596 -36 596 -36 488 14 c 1,24,-1
 420 -154 l 1,25,-1
 344 -154 l 1,26,-1
 422 46 l 1,27,28
 282 136 282 136 201 314 c 128,-1,29
 120 492 120 492 120 736 c 0,0,1
454 132 m 1,30,-1
 916 1374 l 1,31,32
 836 1426 836 1426 726 1426 c 0,33,34
 496 1426 496 1426 357 1238 c 128,-1,35
 218 1050 218 1050 218 736 c 0,36,37
 218 526 218 526 280 370 c 128,-1,38
 342 214 342 214 454 132 c 1,30,-1
EndSplineSet
EndChar

StartChar: uni023C
Encoding: 572 572 510
Width: 1006
GlyphClass: 2
Flags: W
LayerCount: 2
Fore
SplineSet
106 524 m 0,0,1
 106 764 106 764 226 922 c 128,-1,2
 346 1080 346 1080 562 1080 c 0,3,4
 658 1080 658 1080 730 1044 c 1,5,-1
 782 1192 l 1,6,-1
 854 1192 l 1,7,-1
 792 1008 l 1,8,9
 876 946 876 946 918 838 c 1,10,-1
 838 812 l 1,11,12
 814 868 814 868 760 922 c 1,13,-1
 464 56 l 1,14,15
 508 40 508 40 560 40 c 0,16,17
 662 40 662 40 743 102 c 128,-1,18
 824 164 824 164 866 244 c 1,19,-1
 944 216 l 1,20,21
 898 112 898 112 797 38 c 128,-1,22
 696 -36 696 -36 560 -36 c 0,23,24
 494 -36 494 -36 438 -22 c 1,25,-1
 398 -144 l 1,26,-1
 324 -144 l 1,27,-1
 376 2 l 1,28,29
 248 62 248 62 177 200 c 128,-1,30
 106 338 106 338 106 524 c 0,0,1
404 86 m 1,31,-1
 704 966 l 1,32,33
 644 1004 644 1004 560 1004 c 0,34,35
 398 1004 398 1004 299 869 c 128,-1,36
 200 734 200 734 200 524 c 0,37,38
 200 370 200 370 254 253 c 128,-1,39
 308 136 308 136 404 86 c 1,31,-1
EndSplineSet
EndChar

StartChar: uni023D
Encoding: 573 573 511
Width: 1076
GlyphClass: 2
Flags: W
LayerCount: 2
Fore
SplineSet
46 802 m 1,0,-1
 46 878 l 1,1,-1
 238 878 l 1,2,-1
 238 1470 l 1,3,-1
 332 1470 l 1,4,-1
 332 878 l 1,5,-1
 764 878 l 1,6,-1
 764 802 l 1,7,-1
 332 802 l 1,8,-1
 332 82 l 1,9,-1
 1056 82 l 1,10,-1
 1056 0 l 1,11,-1
 238 0 l 1,12,-1
 238 802 l 1,13,-1
 46 802 l 1,0,-1
EndSplineSet
EndChar

StartChar: uni023E
Encoding: 574 574 512
Width: 1092
GlyphClass: 2
Flags: W
LayerCount: 2
Fore
SplineSet
596 1388 m 1,0,-1
 596 868 l 1,1,-1
 882 1388 l 1,2,-1
 596 1388 l 1,0,-1
36 1388 m 1,3,-1
 36 1470 l 1,4,-1
 926 1470 l 1,5,-1
 994 1594 l 1,6,-1
 1072 1594 l 1,7,-1
 1004 1470 l 1,8,-1
 1060 1470 l 1,9,-1
 1060 1388 l 1,10,-1
 960 1388 l 1,11,-1
 596 726 l 1,12,-1
 596 0 l 1,13,-1
 500 0 l 1,14,-1
 500 550 l 1,15,-1
 162 -66 l 1,16,-1
 84 -66 l 1,17,-1
 500 692 l 1,18,-1
 500 1388 l 1,19,-1
 36 1388 l 1,3,-1
EndSplineSet
EndChar

StartChar: uni023F
Encoding: 575 575 513
Width: 976
GlyphClass: 2
Flags: W
LayerCount: 2
Fore
SplineSet
90 184 m 1,0,-1
 162 224 l 1,1,2
 280 40 280 40 496 40 c 0,3,4
 632 40 632 40 714 97 c 128,-1,5
 796 154 796 154 796 246 c 0,6,7
 796 298 796 298 770 338 c 128,-1,8
 744 378 744 378 693 404 c 128,-1,9
 642 430 642 430 595 447 c 128,-1,10
 548 464 548 464 478 488 c 0,11,12
 458 494 458 494 448 496 c 0,13,14
 376 518 376 518 326 539 c 128,-1,15
 276 560 276 560 223 595 c 128,-1,16
 170 630 170 630 143 681 c 128,-1,17
 116 732 116 732 116 800 c 0,18,19
 116 932 116 932 222 1006 c 128,-1,20
 328 1080 328 1080 494 1080 c 0,21,22
 616 1080 616 1080 714 1021 c 128,-1,23
 812 962 812 962 862 870 c 1,24,-1
 798 830 l 1,25,26
 752 910 752 910 673 957 c 128,-1,27
 594 1004 594 1004 496 1004 c 0,28,29
 362 1004 362 1004 286 947 c 128,-1,30
 210 890 210 890 210 800 c 0,31,32
 210 700 210 700 290 646 c 128,-1,33
 370 592 370 592 504 554 c 0,34,35
 586 532 586 532 642 511 c 128,-1,36
 698 490 698 490 760 454 c 128,-1,37
 822 418 822 418 854 366 c 128,-1,38
 886 314 886 314 886 246 c 0,39,40
 886 126 886 126 786 45 c 128,-1,41
 686 -36 686 -36 496 -36 c 0,42,43
 358 -36 358 -36 250 24 c 1,44,45
 312 -208 312 -208 350 -282 c 0,46,47
 424 -418 424 -418 564 -418 c 0,48,49
 612 -418 612 -418 646 -412 c 1,50,-1
 646 -482 l 1,51,52
 580 -488 580 -488 564 -488 c 0,53,54
 492 -488 492 -488 434 -459 c 128,-1,55
 376 -430 376 -430 343 -400 c 128,-1,56
 310 -370 310 -370 275 -289 c 128,-1,57
 240 -208 240 -208 228 -169 c 128,-1,58
 216 -130 216 -130 188 -22 c 0,59,60
 182 -4 182 -4 180 6 c 0,61,62
 152 100 152 100 90 184 c 1,0,-1
EndSplineSet
EndChar

StartChar: uni0240
Encoding: 576 576 514
Width: 950
GlyphClass: 2
Flags: W
LayerCount: 2
Fore
SplineSet
80 0 m 1,0,-1
 80 66 l 1,1,-1
 736 966 l 1,2,-1
 132 966 l 1,3,-1
 132 1046 l 1,4,-1
 850 1046 l 1,5,-1
 850 982 l 1,6,-1
 188 68 l 1,7,8
 260 64 260 64 325 27 c 128,-1,9
 390 -10 390 -10 433 -62 c 128,-1,10
 476 -114 476 -114 521 -175 c 128,-1,11
 566 -236 566 -236 603 -287 c 128,-1,12
 640 -338 640 -338 690 -373 c 128,-1,13
 740 -408 740 -408 796 -408 c 0,14,15
 856 -408 856 -408 876 -404 c 1,16,-1
 876 -480 l 1,17,18
 844 -488 844 -488 790 -488 c 0,19,20
 712 -488 712 -488 644 -438 c 128,-1,21
 576 -388 576 -388 525 -317 c 128,-1,22
 474 -246 474 -246 422 -175 c 128,-1,23
 370 -104 370 -104 301 -53 c 128,-1,24
 232 -2 232 -2 152 0 c 2,25,-1
 80 0 l 1,0,-1
EndSplineSet
EndChar

StartChar: uni0241
Encoding: 577 577 515
Width: 1100
GlyphClass: 2
Flags: W
LayerCount: 2
Fore
SplineSet
140 1214 m 1,0,1
 196 1354 196 1354 306 1431 c 128,-1,2
 416 1508 416 1508 550 1508 c 0,3,4
 730 1508 730 1508 835 1402 c 128,-1,5
 940 1296 940 1296 940 1122 c 0,6,7
 940 1030 940 1030 902 956 c 128,-1,8
 864 882 864 882 811 831 c 128,-1,9
 758 780 758 780 704 728 c 128,-1,10
 650 676 650 676 612 603 c 128,-1,11
 574 530 574 530 574 438 c 2,12,-1
 574 0 l 1,13,-1
 480 0 l 1,14,-1
 480 444 l 2,15,16
 480 544 480 544 517 623 c 128,-1,17
 554 702 554 702 607 754 c 128,-1,18
 660 806 660 806 714 856 c 128,-1,19
 768 906 768 906 806 973 c 128,-1,20
 844 1040 844 1040 844 1122 c 0,21,22
 844 1260 844 1260 767 1344 c 128,-1,23
 690 1428 690 1428 552 1428 c 0,24,25
 438 1428 438 1428 355 1359 c 128,-1,26
 272 1290 272 1290 224 1184 c 1,27,-1
 140 1214 l 1,0,1
EndSplineSet
EndChar

StartChar: uni0250
Encoding: 592 592 516
Width: 1118
GlyphClass: 2
Flags: W
LayerCount: 2
Fore
SplineSet
260 450 m 1,0,1
 362 488 362 488 586 520 c 0,2,3
 764 548 764 548 847 617 c 128,-1,4
 930 686 930 686 930 796 c 0,5,6
 930 880 930 880 857 942 c 128,-1,7
 784 1004 784 1004 652 1004 c 0,8,9
 494 1004 494 1004 377 902 c 128,-1,10
 260 800 260 800 260 638 c 2,11,-1
 260 450 l 1,0,1
170 344 m 2,12,-1
 170 1046 l 1,13,-1
 258 1046 l 1,14,-1
 258 838 l 1,15,16
 296 936 296 936 407 1008 c 128,-1,17
 518 1080 518 1080 662 1080 c 0,18,19
 828 1080 828 1080 925 1003 c 128,-1,20
 1022 926 1022 926 1022 800 c 0,21,22
 1022 658 1022 658 919 570 c 128,-1,23
 816 482 816 482 586 446 c 0,24,25
 348 410 348 410 260 376 c 1,26,-1
 260 316 l 2,27,28
 260 194 260 194 344 116 c 128,-1,29
 428 38 428 38 576 38 c 0,30,31
 780 38 780 38 914 212 c 1,32,-1
 978 166 l 1,33,34
 914 78 914 78 807 21 c 128,-1,35
 700 -36 700 -36 580 -36 c 0,36,37
 378 -36 378 -36 274 67 c 128,-1,38
 170 170 170 170 170 344 c 2,12,-1
EndSplineSet
EndChar

StartChar: uni0251
Encoding: 593 593 517
Width: 1162
GlyphClass: 2
Flags: W
LayerCount: 2
Fore
SplineSet
200 524 m 0,0,1
 200 302 200 302 298 171 c 128,-1,2
 396 40 396 40 548 40 c 0,3,4
 688 40 688 40 790 168 c 128,-1,5
 892 296 892 296 892 520 c 0,6,7
 892 742 892 742 790 873 c 128,-1,8
 688 1004 688 1004 546 1004 c 0,9,10
 392 1004 392 1004 296 874 c 128,-1,11
 200 744 200 744 200 524 c 0,0,1
106 524 m 0,12,13
 106 780 106 780 226 930 c 128,-1,14
 346 1080 346 1080 538 1080 c 0,15,16
 670 1080 670 1080 766 992 c 128,-1,17
 862 904 862 904 886 808 c 1,18,-1
 886 1046 l 1,19,-1
 976 1046 l 1,20,-1
 976 0 l 1,21,-1
 888 0 l 1,22,-1
 888 224 l 1,23,24
 848 114 848 114 756 39 c 128,-1,25
 664 -36 664 -36 540 -36 c 0,26,27
 364 -36 364 -36 235 105 c 128,-1,28
 106 246 106 246 106 524 c 0,12,13
EndSplineSet
EndChar

StartChar: uni0252
Encoding: 594 594 518
Width: 1164
GlyphClass: 2
Flags: W
LayerCount: 2
Fore
SplineSet
186 0 m 1,0,-1
 186 1046 l 1,1,-1
 276 1046 l 1,2,-1
 276 806 l 1,3,4
 300 902 300 902 396 991 c 128,-1,5
 492 1080 492 1080 626 1080 c 0,6,7
 822 1080 822 1080 940 930 c 128,-1,8
 1058 780 1058 780 1058 524 c 0,9,10
 1058 244 1058 244 930 104 c 128,-1,11
 802 -36 802 -36 626 -36 c 0,12,13
 500 -36 500 -36 408 39 c 128,-1,14
 316 114 316 114 276 224 c 1,15,-1
 276 0 l 1,16,-1
 186 0 l 1,0,-1
272 520 m 0,17,18
 272 302 272 302 373 171 c 128,-1,19
 474 40 474 40 616 40 c 0,20,21
 770 40 770 40 867 171 c 128,-1,22
 964 302 964 302 964 524 c 0,23,24
 964 744 964 744 868 874 c 128,-1,25
 772 1004 772 1004 618 1004 c 0,26,27
 478 1004 478 1004 375 873 c 128,-1,28
 272 742 272 742 272 520 c 0,17,18
EndSplineSet
EndChar

StartChar: uni0253
Encoding: 595 595 519
Width: 1170
GlyphClass: 2
Flags: W
LayerCount: 2
Fore
SplineSet
282 522 m 0,0,1
 282 300 282 300 380 170 c 128,-1,2
 478 40 478 40 622 40 c 0,3,4
 778 40 778 40 876 172 c 128,-1,5
 974 304 974 304 974 524 c 0,6,7
 974 742 974 742 878 873 c 128,-1,8
 782 1004 782 1004 626 1004 c 0,9,10
 484 1004 484 1004 383 873 c 128,-1,11
 282 742 282 742 282 522 c 0,0,1
192 0 m 1,12,-1
 192 1042 l 2,13,14
 192 1278 192 1278 287 1410 c 128,-1,15
 382 1542 382 1542 572 1542 c 0,16,17
 698 1542 698 1542 820 1504 c 1,18,-1
 810 1428 l 1,19,20
 670 1462 670 1462 582 1462 c 0,21,22
 286 1462 286 1462 286 1030 c 2,23,-1
 286 802 l 1,24,25
 316 912 316 912 408 996 c 128,-1,26
 500 1080 500 1080 634 1080 c 0,27,28
 832 1080 832 1080 948 929 c 128,-1,29
 1064 778 1064 778 1064 524 c 0,30,31
 1064 252 1064 252 940 108 c 128,-1,32
 816 -36 816 -36 632 -36 c 0,33,34
 502 -36 502 -36 413 42 c 128,-1,35
 324 120 324 120 286 228 c 1,36,-1
 286 0 l 1,37,-1
 192 0 l 1,12,-1
EndSplineSet
EndChar

StartChar: uni0254
Encoding: 596 596 520
Width: 1006
GlyphClass: 2
Flags: W
LayerCount: 2
Fore
SplineSet
62 216 m 1,0,-1
 138 244 l 1,1,2
 180 162 180 162 262 101 c 128,-1,3
 344 40 344 40 444 40 c 0,4,5
 602 40 602 40 704 173 c 128,-1,6
 806 306 806 306 806 522 c 0,7,8
 806 732 806 732 706 868 c 128,-1,9
 606 1004 606 1004 444 1004 c 0,10,11
 350 1004 350 1004 277 950 c 128,-1,12
 204 896 204 896 170 812 c 1,13,-1
 90 838 l 1,14,15
 126 942 126 942 222 1011 c 128,-1,16
 318 1080 318 1080 446 1080 c 0,17,18
 658 1080 658 1080 779 923 c 128,-1,19
 900 766 900 766 900 522 c 0,20,21
 900 268 900 268 774 116 c 128,-1,22
 648 -36 648 -36 446 -36 c 0,23,24
 314 -36 314 -36 211 37 c 128,-1,25
 108 110 108 110 62 216 c 1,0,-1
EndSplineSet
EndChar

StartChar: uni0255
Encoding: 597 597 521
Width: 1006
GlyphClass: 2
Flags: W
LayerCount: 2
Fore
SplineSet
440 70 m 1,0,1
 512 40 512 40 624 40 c 0,2,3
 718 40 718 40 780 78 c 128,-1,4
 842 116 842 116 842 174 c 0,5,6
 842 220 842 220 807 250 c 128,-1,7
 772 280 772 280 708 280 c 0,8,9
 616 280 616 280 545 215 c 128,-1,10
 474 150 474 150 440 70 c 1,0,1
106 526 m 0,11,12
 106 764 106 764 225 922 c 128,-1,13
 344 1080 344 1080 562 1080 c 0,14,15
 692 1080 692 1080 785 1009 c 128,-1,16
 878 938 878 938 916 838 c 1,17,-1
 836 812 l 1,18,19
 806 888 806 888 732 946 c 128,-1,20
 658 1004 658 1004 562 1004 c 0,21,22
 396 1004 396 1004 298 870 c 128,-1,23
 200 736 200 736 200 524 c 0,24,25
 200 246 200 246 366 114 c 1,26,27
 418 218 418 218 505 287 c 128,-1,28
 592 356 592 356 710 356 c 0,29,30
 816 356 816 356 875 302 c 128,-1,31
 934 248 934 248 934 174 c 0,32,33
 934 82 934 82 846 23 c 128,-1,34
 758 -36 758 -36 618 -36 c 256,35,36
 478 -36 478 -36 408 -6 c 1,37,38
 394 -38 394 -38 370 -130 c 1,39,-1
 286 -110 l 1,40,41
 296 -46 296 -46 330 30 c 1,42,43
 106 176 106 176 106 526 c 0,11,12
EndSplineSet
EndChar

StartChar: uni0256
Encoding: 598 598 522
Width: 1174
GlyphClass: 2
Flags: W
LayerCount: 2
Fore
SplineSet
106 524 m 0,0,1
 106 784 106 784 228 932 c 128,-1,2
 350 1080 350 1080 540 1080 c 0,3,4
 668 1080 668 1080 761 1000 c 128,-1,5
 854 920 854 920 888 806 c 1,6,-1
 888 1532 l 1,7,-1
 980 1532 l 1,8,-1
 980 -82 l 2,9,10
 980 -258 980 -258 1030 -333 c 128,-1,11
 1080 -408 1080 -408 1182 -408 c 0,12,13
 1232 -408 1232 -408 1302 -398 c 1,14,-1
 1302 -478 l 1,15,16
 1242 -488 1242 -488 1172 -488 c 0,17,18
 1036 -488 1036 -488 963 -400 c 128,-1,19
 890 -312 890 -312 890 -88 c 2,20,-1
 890 230 l 1,21,22
 852 116 852 116 758 40 c 128,-1,23
 664 -36 664 -36 536 -36 c 0,24,25
 362 -36 362 -36 234 104 c 128,-1,26
 106 244 106 244 106 524 c 0,0,1
200 524 m 0,27,28
 200 306 200 306 295 173 c 128,-1,29
 390 40 390 40 548 40 c 0,30,31
 692 40 692 40 791 170 c 128,-1,32
 890 300 890 300 890 524 c 0,33,34
 890 746 890 746 789 875 c 128,-1,35
 688 1004 688 1004 546 1004 c 0,36,37
 396 1004 396 1004 298 874 c 128,-1,38
 200 744 200 744 200 524 c 0,27,28
EndSplineSet
EndChar

StartChar: uni0257
Encoding: 599 599 523
Width: 1174
GlyphClass: 2
Flags: W
LayerCount: 2
Fore
SplineSet
106 524 m 0,0,1
 106 784 106 784 228 932 c 128,-1,2
 350 1080 350 1080 540 1080 c 0,3,4
 668 1080 668 1080 762 999 c 128,-1,5
 856 918 856 918 888 804 c 1,6,-1
 888 1266 l 2,7,8
 888 1400 888 1400 972 1471 c 128,-1,9
 1056 1542 1056 1542 1196 1542 c 0,10,11
 1246 1542 1246 1542 1316 1534 c 1,12,-1
 1316 1454 l 1,13,14
 1230 1460 1230 1460 1212 1460 c 0,15,16
 980 1460 980 1460 980 1244 c 2,17,-1
 980 0 l 1,18,-1
 890 0 l 1,19,-1
 890 232 l 1,20,21
 852 118 852 118 758 41 c 128,-1,22
 664 -36 664 -36 536 -36 c 0,23,24
 362 -36 362 -36 234 104 c 128,-1,25
 106 244 106 244 106 524 c 0,0,1
200 524 m 256,26,27
 200 304 200 304 295 172 c 128,-1,28
 390 40 390 40 548 40 c 0,29,30
 690 40 690 40 790 170 c 128,-1,31
 890 300 890 300 890 524 c 0,32,33
 890 746 890 746 789 875 c 128,-1,34
 688 1004 688 1004 546 1004 c 0,35,36
 394 1004 394 1004 297 874 c 128,-1,37
 200 744 200 744 200 524 c 256,26,27
EndSplineSet
EndChar

StartChar: uni0258
Encoding: 600 600 524
Width: 1114
GlyphClass: 2
Flags: W
LayerCount: 2
Fore
SplineSet
102 496 m 1,0,1
 102 508 102 508 101 526 c 128,-1,2
 100 544 100 544 100 556 c 0,3,4
 100 778 100 778 222 929 c 128,-1,5
 344 1080 344 1080 550 1080 c 0,6,7
 758 1080 758 1080 883 927 c 128,-1,8
 1008 774 1008 774 1008 530 c 0,9,10
 1008 278 1008 278 881 121 c 128,-1,11
 754 -36 754 -36 542 -36 c 0,12,13
 392 -36 392 -36 287 33 c 128,-1,14
 182 102 182 102 126 210 c 1,15,-1
 206 238 l 1,16,17
 252 152 252 152 340 96 c 128,-1,18
 428 40 428 40 542 40 c 0,19,20
 716 40 716 40 816 173 c 128,-1,21
 916 306 916 306 916 496 c 1,22,-1
 102 496 l 1,0,1
194 566 m 1,23,-1
 916 566 l 1,24,25
 910 742 910 742 815 873 c 128,-1,26
 720 1004 720 1004 550 1004 c 0,27,28
 390 1004 390 1004 292 875 c 128,-1,29
 194 746 194 746 194 566 c 1,23,-1
EndSplineSet
EndChar

StartChar: uni025A
Encoding: 602 602 526
Width: 1246
GlyphClass: 2
Flags: W
LayerCount: 2
Fore
SplineSet
100 444 m 1,0,-1
 860 792 l 1,1,2
 818 882 818 882 735 943 c 128,-1,3
 652 1004 652 1004 534 1004 c 0,4,5
 424 1004 424 1004 337 946 c 128,-1,6
 250 888 250 888 208 806 c 1,7,-1
 128 834 l 1,8,9
 256 1080 256 1080 536 1080 c 256,10,11
 816 1080 816 1080 936 828 c 1,12,-1
 1082 910 l 1,13,14
 1134 782 1134 782 1250 782 c 0,15,16
 1294 782 1294 782 1308 786 c 1,17,-1
 1308 714 l 1,18,19
 1280 708 1280 708 1248 708 c 0,20,21
 1178 708 1178 708 1129 735 c 128,-1,22
 1080 762 1080 762 1058 804 c 1,23,-1
 964 754 l 1,24,25
 1002 652 1002 652 1002 520 c 0,26,27
 1002 282 1002 282 880 123 c 128,-1,28
 758 -36 758 -36 538 -36 c 0,29,30
 350 -36 350 -36 232 100 c 128,-1,31
 114 236 114 236 100 444 c 1,0,-1
196 404 m 1,32,33
 220 232 220 232 315 136 c 128,-1,34
 410 40 410 40 538 40 c 0,35,36
 716 40 716 40 813 178 c 128,-1,37
 910 316 910 316 910 506 c 0,38,39
 910 510 910 510 910 514 c 0,40,41
 910 614 910 614 884 716 c 1,42,-1
 196 404 l 1,32,33
EndSplineSet
EndChar

StartChar: uni025B
Encoding: 603 603 527
Width: 916
GlyphClass: 2
Flags: W
LayerCount: 2
Fore
SplineSet
106 270 m 0,0,1
 106 386 106 386 179 458 c 128,-1,2
 252 530 252 530 358 554 c 1,3,-1
 358 556 l 1,4,5
 268 582 268 582 208 644 c 128,-1,6
 148 706 148 706 148 804 c 0,7,8
 148 926 148 926 235 1003 c 128,-1,9
 322 1080 322 1080 488 1080 c 0,10,11
 706 1080 706 1080 818 902 c 1,12,-1
 742 864 l 1,13,14
 652 1004 652 1004 492 1004 c 0,15,16
 366 1004 366 1004 303 948 c 128,-1,17
 240 892 240 892 240 802 c 0,18,19
 240 710 240 710 316 649 c 128,-1,20
 392 588 392 588 546 588 c 2,21,-1
 606 588 l 1,22,-1
 606 518 l 1,23,-1
 546 518 l 2,24,25
 370 518 370 518 285 445 c 128,-1,26
 200 372 200 372 200 270 c 0,27,28
 200 166 200 166 280 103 c 128,-1,29
 360 40 360 40 496 40 c 0,30,31
 584 40 584 40 663 85 c 128,-1,32
 742 130 742 130 784 190 c 1,33,-1
 854 148 l 1,34,35
 796 66 796 66 701 15 c 128,-1,36
 606 -36 606 -36 496 -36 c 0,37,38
 320 -36 320 -36 213 45 c 128,-1,39
 106 126 106 126 106 270 c 0,0,1
EndSplineSet
EndChar

StartChar: uni025C
Encoding: 604 604 528
Width: 918
GlyphClass: 2
Flags: W
LayerCount: 2
Fore
SplineSet
62 148 m 1,0,-1
 132 190 l 1,1,2
 176 130 176 130 255 85 c 128,-1,3
 334 40 334 40 420 40 c 0,4,5
 554 40 554 40 637 103 c 128,-1,6
 720 166 720 166 720 270 c 0,7,8
 720 372 720 372 635 445 c 128,-1,9
 550 518 550 518 374 518 c 2,10,-1
 312 518 l 1,11,-1
 312 588 l 1,12,-1
 374 588 l 2,13,14
 528 588 528 588 602 649 c 128,-1,15
 676 710 676 710 676 802 c 0,16,17
 676 892 676 892 614 948 c 128,-1,18
 552 1004 552 1004 428 1004 c 0,19,20
 266 1004 266 1004 176 864 c 1,21,-1
 100 902 l 1,22,23
 212 1080 212 1080 428 1080 c 0,24,25
 594 1080 594 1080 681 1002 c 128,-1,26
 768 924 768 924 768 804 c 0,27,28
 768 706 768 706 708 645 c 128,-1,29
 648 584 648 584 556 556 c 1,30,-1
 558 554 l 1,31,32
 664 530 664 530 739 458 c 128,-1,33
 814 386 814 386 814 270 c 0,34,35
 814 126 814 126 707 45 c 128,-1,36
 600 -36 600 -36 424 -36 c 0,37,38
 314 -36 314 -36 217 15 c 128,-1,39
 120 66 120 66 62 148 c 1,0,-1
EndSplineSet
EndChar

StartChar: uni025D
Encoding: 605 605 529
Width: 990
GlyphClass: 2
Flags: W
LayerCount: 2
Fore
SplineSet
62 148 m 1,0,-1
 132 190 l 1,1,2
 170 136 170 136 251 88 c 128,-1,3
 332 40 332 40 414 40 c 0,4,5
 558 40 558 40 639 104 c 128,-1,6
 720 168 720 168 720 270 c 256,7,8
 720 372 720 372 635 445 c 128,-1,9
 550 518 550 518 372 518 c 2,10,-1
 312 518 l 1,11,-1
 312 588 l 1,12,-1
 372 588 l 2,13,14
 526 588 526 588 601 649 c 128,-1,15
 676 710 676 710 676 802 c 0,16,17
 676 896 676 896 612 950 c 128,-1,18
 548 1004 548 1004 428 1004 c 0,19,20
 268 1004 268 1004 176 864 c 1,21,-1
 100 902 l 1,22,23
 214 1080 214 1080 428 1080 c 0,24,25
 668 1080 668 1080 744 918 c 1,26,-1
 888 988 l 1,27,28
 914 928 914 928 963 888 c 128,-1,29
 1012 848 1012 848 1072 848 c 0,30,31
 1114 848 1114 848 1128 852 c 1,32,-1
 1128 778 l 1,33,34
 1100 772 1100 772 1066 772 c 0,35,36
 994 772 994 772 940 807 c 128,-1,37
 886 842 886 842 862 886 c 1,38,-1
 766 838 l 1,39,40
 768 822 768 822 768 784 c 0,41,42
 764 698 764 698 703 639 c 128,-1,43
 642 580 642 580 558 556 c 1,44,-1
 558 554 l 1,45,46
 662 530 662 530 738 458 c 128,-1,47
 814 386 814 386 814 270 c 0,48,49
 814 124 814 124 708 44 c 128,-1,50
 602 -36 602 -36 418 -36 c 0,51,52
 308 -36 308 -36 211 18 c 128,-1,53
 114 72 114 72 62 148 c 1,0,-1
EndSplineSet
EndChar

StartChar: uni025E
Encoding: 606 606 530
Width: 1112
GlyphClass: 2
Flags: W
LayerCount: 2
Fore
SplineSet
106 528 m 0,0,1
 106 786 106 786 234 933 c 128,-1,2
 362 1080 362 1080 574 1080 c 0,3,4
 752 1080 752 1080 856 1001 c 128,-1,5
 960 922 960 922 960 790 c 0,6,7
 960 690 960 690 904 625 c 128,-1,8
 848 560 848 560 766 536 c 1,9,-1
 766 534 l 1,10,11
 864 514 864 514 934 443 c 128,-1,12
 1004 372 1004 372 1004 260 c 0,13,14
 1004 120 1004 120 894 42 c 128,-1,15
 784 -36 784 -36 582 -36 c 0,16,17
 386 -36 386 -36 246 105 c 128,-1,18
 106 246 106 246 106 528 c 0,0,1
200 528 m 0,19,20
 200 396 200 396 238 296 c 128,-1,21
 276 196 276 196 335 143 c 128,-1,22
 394 90 394 90 457 65 c 128,-1,23
 520 40 520 40 584 40 c 0,24,25
 744 40 744 40 828 100 c 128,-1,26
 912 160 912 160 912 256 c 0,27,28
 912 348 912 348 836 421 c 128,-1,29
 760 494 760 494 586 494 c 2,30,-1
 520 494 l 1,31,-1
 520 566 l 1,32,-1
 586 566 l 2,33,34
 742 566 742 566 805 632 c 128,-1,35
 868 698 868 698 868 782 c 0,36,37
 868 886 868 886 791 945 c 128,-1,38
 714 1004 714 1004 576 1004 c 0,39,40
 416 1004 416 1004 308 880 c 128,-1,41
 200 756 200 756 200 528 c 0,19,20
EndSplineSet
EndChar

StartChar: uni025F
Encoding: 607 607 531
Width: 562
GlyphClass: 2
Flags: W
LayerCount: 2
Fore
SplineSet
-6 564 m 1,0,-1
 -6 640 l 1,1,-1
 240 640 l 1,2,-1
 240 1046 l 1,3,-1
 332 1046 l 1,4,-1
 332 640 l 1,5,-1
 552 640 l 1,6,-1
 552 564 l 1,7,-1
 332 564 l 1,8,-1
 332 -136 l 2,9,10
 332 -300 332 -300 261 -387 c 128,-1,11
 190 -474 190 -474 60 -474 c 2,12,-1
 -10 -474 l 1,13,-1
 -10 -394 l 1,14,-1
 40 -394 l 2,15,16
 240 -394 240 -394 240 -128 c 2,17,-1
 240 564 l 1,18,-1
 -6 564 l 1,0,-1
EndSplineSet
EndChar

StartChar: uni0260
Encoding: 608 608 532
Width: 1154
GlyphClass: 2
Flags: W
LayerCount: 2
Fore
SplineSet
106 542 m 256,0,1
 106 782 106 782 222 931 c 128,-1,2
 338 1080 338 1080 532 1080 c 0,3,4
 666 1080 666 1080 750 1003 c 128,-1,5
 834 926 834 926 872 824 c 1,6,-1
 872 1260 l 2,7,8
 872 1392 872 1392 960 1467 c 128,-1,9
 1048 1542 1048 1542 1184 1542 c 0,10,11
 1200 1542 1200 1542 1298 1536 c 1,12,-1
 1298 1458 l 1,13,14
 1242 1462 1242 1462 1196 1462 c 0,15,16
 1094 1462 1094 1462 1029 1405 c 128,-1,17
 964 1348 964 1348 964 1238 c 2,18,-1
 964 94 l 2,19,20
 964 -188 964 -188 870 -338 c 128,-1,21
 776 -488 776 -488 542 -488 c 0,22,23
 432 -488 432 -488 335 -442 c 128,-1,24
 238 -396 238 -396 176 -312 c 1,25,-1
 242 -268 l 1,26,27
 370 -410 370 -410 546 -410 c 0,28,29
 872 -410 872 -410 872 70 c 2,30,-1
 872 250 l 1,31,32
 776 0 776 0 534 0 c 0,33,34
 342 0 342 0 224 151 c 128,-1,35
 106 302 106 302 106 542 c 256,0,1
200 542 m 0,36,37
 200 332 200 332 295 205 c 128,-1,38
 390 78 390 78 536 78 c 0,39,40
 694 78 694 78 783 201 c 128,-1,41
 872 324 872 324 872 544 c 0,42,43
 872 750 872 750 780 877 c 128,-1,44
 688 1004 688 1004 540 1004 c 0,45,46
 384 1004 384 1004 292 876 c 128,-1,47
 200 748 200 748 200 542 c 0,36,37
EndSplineSet
EndChar

StartChar: uni0262
Encoding: 610 610 534
Width: 1180
GlyphClass: 2
Flags: W
LayerCount: 2
Fore
SplineSet
106 522 m 0,0,1
 106 772 106 772 241 927 c 128,-1,2
 376 1082 376 1082 610 1082 c 0,3,4
 852 1082 852 1082 988 868 c 1,5,-1
 912 834 l 1,6,7
 790 1004 790 1004 610 1004 c 0,8,9
 422 1004 422 1004 311 872 c 128,-1,10
 200 740 200 740 200 522 c 0,11,12
 200 302 200 302 310 171 c 128,-1,13
 420 40 420 40 604 40 c 0,14,15
 768 40 768 40 860 143 c 128,-1,16
 952 246 952 246 952 386 c 2,17,-1
 952 474 l 1,18,-1
 588 474 l 1,19,-1
 588 550 l 1,20,-1
 1038 550 l 1,21,-1
 1038 0 l 1,22,-1
 962 0 l 1,23,-1
 960 174 l 1,24,25
 926 88 926 88 833 26 c 128,-1,26
 740 -36 740 -36 600 -36 c 0,27,28
 374 -36 374 -36 240 115 c 128,-1,29
 106 266 106 266 106 522 c 0,0,1
EndSplineSet
EndChar

StartChar: uni0263
Encoding: 611 611 535
Width: 964
GlyphClass: 2
Flags: W
LayerCount: 2
Fore
SplineSet
26 1046 m 1,0,-1
 128 1046 l 1,1,-1
 484 170 l 1,2,-1
 838 1046 l 1,3,-1
 942 1046 l 1,4,-1
 546 98 l 1,5,6
 628 -6 628 -6 669 -83 c 128,-1,7
 710 -160 710 -160 710 -240 c 0,8,9
 710 -348 710 -348 647 -418 c 128,-1,10
 584 -488 584 -488 484 -488 c 0,11,12
 388 -488 388 -488 326 -421 c 128,-1,13
 264 -354 264 -354 264 -240 c 0,14,15
 264 -180 264 -180 289 -118 c 128,-1,16
 314 -56 314 -56 339 -19 c 128,-1,17
 364 18 364 18 424 96 c 1,18,-1
 26 1046 l 1,0,-1
342 -244 m 0,19,20
 342 -316 342 -316 381 -368 c 128,-1,21
 420 -420 420 -420 484 -420 c 0,22,23
 550 -420 550 -420 590 -368 c 128,-1,24
 630 -316 630 -316 630 -244 c 0,25,26
 630 -192 630 -192 606 -135 c 128,-1,27
 582 -78 582 -78 559 -47 c 128,-1,28
 536 -16 536 -16 484 50 c 1,29,30
 342 -118 342 -118 342 -244 c 0,19,20
EndSplineSet
Substitution2: "'sups' Superscript lookup 5 subtable" uni02E0
Substitution2: "'aalt' Access All Alternates lookup 0 subtable" uni02E0
EndChar

StartChar: uni0264
Encoding: 612 612 536
Width: 956
GlyphClass: 2
Flags: W
LayerCount: 2
Fore
SplineSet
480 732 m 1,0,1
 416 656 416 656 379 604 c 128,-1,2
 342 552 342 552 310 465 c 128,-1,3
 278 378 278 378 278 284 c 0,4,5
 278 178 278 178 334 109 c 128,-1,6
 390 40 390 40 484 40 c 0,7,8
 572 40 572 40 625 110 c 128,-1,9
 678 180 678 180 678 284 c 0,10,11
 678 414 678 414 629 515 c 128,-1,12
 580 616 580 616 480 732 c 1,0,1
82 996 m 1,13,-1
 82 1072 l 1,14,15
 126 1080 126 1080 156 1080 c 0,16,17
 252 1080 252 1080 323 1027 c 128,-1,18
 394 974 394 974 480 864 c 1,19,20
 562 972 562 972 635 1026 c 128,-1,21
 708 1080 708 1080 800 1080 c 0,22,23
 848 1080 848 1080 876 1074 c 1,24,-1
 876 994 l 1,25,26
 832 1004 832 1004 804 1004 c 0,27,28
 728 1004 728 1004 666 952 c 128,-1,29
 604 900 604 900 532 800 c 1,30,31
 656 654 656 654 714 541 c 128,-1,32
 772 428 772 428 772 282 c 0,33,34
 772 138 772 138 695 51 c 128,-1,35
 618 -36 618 -36 484 -36 c 0,36,37
 342 -36 342 -36 264 51 c 128,-1,38
 186 138 186 138 186 282 c 0,39,40
 186 348 186 348 202 414 c 128,-1,41
 218 480 218 480 234 521 c 128,-1,42
 250 562 250 562 294 626 c 128,-1,43
 338 690 338 690 355 711 c 128,-1,44
 372 732 372 732 426 800 c 1,45,46
 354 902 354 902 293 953 c 128,-1,47
 232 1004 232 1004 154 1004 c 0,48,49
 148 1004 148 1004 82 996 c 1,13,-1
EndSplineSet
EndChar

StartChar: uni0265
Encoding: 613 613 537
Width: 1158
GlyphClass: 2
Flags: W
LayerCount: 2
Fore
SplineSet
176 366 m 2,0,-1
 176 1046 l 1,1,-1
 268 1046 l 1,2,-1
 268 388 l 2,3,4
 268 40 268 40 530 40 c 0,5,6
 662 40 662 40 768 150 c 128,-1,7
 874 260 874 260 874 412 c 2,8,-1
 874 1046 l 1,9,-1
 964 1046 l 1,10,-1
 964 -480 l 1,11,-1
 874 -480 l 1,12,-1
 874 200 l 1,13,-1
 872 200 l 1,14,15
 838 110 838 110 740 37 c 128,-1,16
 642 -36 642 -36 512 -36 c 0,17,18
 450 -36 450 -36 397 -20 c 128,-1,19
 344 -4 344 -4 290 37 c 128,-1,20
 236 78 236 78 206 162 c 128,-1,21
 176 246 176 246 176 366 c 2,0,-1
EndSplineSet
EndChar

StartChar: uni0266
Encoding: 614 614 538
Width: 1158
GlyphClass: 2
Flags: W
LayerCount: 2
Fore
SplineSet
194 0 m 1,0,-1
 194 1216 l 2,1,2
 194 1370 194 1370 287 1456 c 128,-1,3
 380 1542 380 1542 522 1542 c 0,4,5
 610 1542 610 1542 724 1526 c 1,6,-1
 724 1448 l 1,7,8
 616 1462 616 1462 530 1462 c 0,9,10
 406 1462 406 1462 347 1380 c 128,-1,11
 288 1298 288 1298 288 1200 c 2,12,-1
 288 844 l 1,13,-1
 290 844 l 1,14,15
 328 938 328 938 424 1009 c 128,-1,16
 520 1080 520 1080 650 1080 c 0,17,18
 712 1080 712 1080 764 1065 c 128,-1,19
 816 1050 816 1050 869 1009 c 128,-1,20
 922 968 922 968 953 884 c 128,-1,21
 984 800 984 800 984 676 c 2,22,-1
 984 0 l 1,23,-1
 896 0 l 1,24,-1
 896 658 l 2,25,26
 896 1004 896 1004 634 1004 c 0,27,28
 502 1004 502 1004 395 895 c 128,-1,29
 288 786 288 786 288 632 c 2,30,-1
 288 0 l 1,31,-1
 194 0 l 1,0,-1
EndSplineSet
Substitution2: "'sups' Superscript lookup 5 subtable" uni02B1
Substitution2: "'aalt' Access All Alternates lookup 0 subtable" uni02B1
EndChar

StartChar: uni0267
Encoding: 615 615 539
Width: 1168
GlyphClass: 2
Flags: W
LayerCount: 2
Fore
SplineSet
194 0 m 1,0,-1
 194 1214 l 2,1,2
 194 1370 194 1370 287 1456 c 128,-1,3
 380 1542 380 1542 522 1542 c 0,4,5
 610 1542 610 1542 724 1526 c 1,6,-1
 724 1448 l 1,7,8
 616 1462 616 1462 530 1462 c 0,9,10
 406 1462 406 1462 347 1379 c 128,-1,11
 288 1296 288 1296 288 1196 c 2,12,-1
 288 844 l 1,13,-1
 290 844 l 1,14,15
 328 938 328 938 424 1009 c 128,-1,16
 520 1080 520 1080 650 1080 c 0,17,18
 712 1080 712 1080 764 1064 c 128,-1,19
 816 1048 816 1048 869 1008 c 128,-1,20
 922 968 922 968 953 884 c 128,-1,21
 984 800 984 800 984 676 c 2,22,-1
 984 -138 l 2,23,24
 984 -310 984 -310 917 -399 c 128,-1,25
 850 -488 850 -488 686 -488 c 0,26,27
 628 -488 628 -488 572 -482 c 1,28,-1
 572 -404 l 1,29,30
 622 -410 622 -410 674 -410 c 0,31,32
 784 -410 784 -410 840 -348 c 128,-1,33
 896 -286 896 -286 896 -134 c 2,34,-1
 896 658 l 2,35,36
 896 1004 896 1004 634 1004 c 0,37,38
 502 1004 502 1004 395 894 c 128,-1,39
 288 784 288 784 288 632 c 2,40,-1
 288 0 l 1,41,-1
 194 0 l 1,0,-1
EndSplineSet
EndChar

StartChar: uni0268
Encoding: 616 616 540
Width: 554
GlyphClass: 2
Flags: W
LayerCount: 2
Fore
SplineSet
200 1322 m 1,0,-1
 200 1492 l 1,1,-1
 356 1492 l 1,2,-1
 356 1322 l 1,3,-1
 200 1322 l 1,0,-1
54 540 m 1,4,-1
 54 618 l 1,5,-1
 234 618 l 1,6,-1
 234 1046 l 1,7,-1
 326 1046 l 1,8,-1
 326 618 l 1,9,-1
 504 618 l 1,10,-1
 504 540 l 1,11,-1
 326 540 l 1,12,-1
 326 0 l 1,13,-1
 234 0 l 1,14,-1
 234 540 l 1,15,-1
 54 540 l 1,4,-1
EndSplineSet
EndChar

StartChar: uni0269
Encoding: 617 617 541
Width: 658
GlyphClass: 2
Flags: W
LayerCount: 2
Fore
SplineSet
184 270 m 2,0,-1
 184 1046 l 1,1,-1
 278 1046 l 1,2,-1
 278 274 l 2,3,4
 278 42 278 42 454 42 c 0,5,6
 500 42 500 42 592 54 c 1,7,-1
 592 -26 l 1,8,9
 486 -36 486 -36 440 -36 c 0,10,11
 184 -36 184 -36 184 270 c 2,0,-1
EndSplineSet
EndChar

StartChar: uni026B
Encoding: 619 619 543
Width: 494
GlyphClass: 2
Flags: W
LayerCount: 2
Fore
SplineSet
-20 756 m 1,0,-1
 -20 834 l 1,1,2
 58 864 58 864 124 864 c 0,3,4
 150 864 150 864 200 852 c 1,5,-1
 200 1532 l 1,6,-1
 294 1532 l 1,7,-1
 294 834 l 1,8,9
 350 820 350 820 392 820 c 0,10,11
 460 820 460 820 514 850 c 1,12,-1
 514 772 l 1,13,14
 452 740 452 740 392 740 c 0,15,16
 358 740 358 740 294 756 c 1,17,-1
 294 0 l 1,18,-1
 200 0 l 1,19,-1
 200 774 l 1,20,21
 150 786 150 786 124 786 c 0,22,23
 72 786 72 786 -20 756 c 1,0,-1
EndSplineSet
EndChar

